<svg xml:space="preserve" style="width:18px;height: 100%;vertical-align: middle;fill: currentColor;overflow: hidden;" viewBox="0 0 24 24" y="0px" x="0px" id="1514361317959" version="1.1" xmlns:xlink="http://www.w3.org/1999/xlink" xmlns="http://www.w3.org/2000/svg">
  <g>
    <polygon points="2.51,21.98 2.51,20.24 11.11,20.24 11.11,17.87 12.89,17.87 12.89,20.24 21.49,20.24 21.49,21.98  "></polygon>
    <path d="M0.33,2.02v15.85h23.34V2.02H0.33z M22.38,16.24H1.62V3.66h20.75V16.24z"></path>
    <path d="M5.34,11.33"></path>
    <path d="M13.11,14.02c-0.27,0-0.51-0.16-0.62-0.41l-2.26-5.2L8.8,13c-0.09,0.28-0.35,0.47-0.65,0.47c-0.07,0-0.14-0.01-0.2-0.03   c-0.18-0.06-0.32-0.18-0.4-0.34l-1.19-2.31H3.35c-0.38-0.01-0.68-0.31-0.67-0.69c0.01-0.36,0.3-0.66,0.67-0.67l3.43,0   c0.25,0,0.49,0.14,0.6,0.37L8,11.02l1.48-4.74C9.57,5.99,9.83,5.8,10.13,5.8c0.07,0,0.14,0.01,0.2,0.03   c0.19,0.06,0.35,0.2,0.42,0.38l2.28,5.26l1.11-3.29c0.09-0.27,0.35-0.46,0.64-0.46c0.07,0,0.15,0.01,0.22,0.04   c0.08,0.03,0.15,0.07,0.22,0.12l1.81,1.5h3.73c0.37,0,0.68,0.3,0.68,0.68c0,0.37-0.3,0.68-0.68,0.68h-3.98   c-0.16,0-0.31-0.06-0.43-0.16l-1.24-1.03l-1.36,4.02c-0.09,0.27-0.33,0.45-0.62,0.46l-0.01,0H13.11z"></path>
  </g>
</svg>
