<svg t="1514361317958" class="icon" style="width:18px;height: 100%;vertical-align: middle;fill: currentColor;overflow: hidden;" viewBox="0 0 1024 1024" version="1.1" xmlns="http://www.w3.org/2000/svg" p-id="722" xmlns:xlink="http://www.w3.org/1999/xlink" width="200" height="200"><defs><style type="text/css"></style></defs><path d="M177.529 36.14C285.043-23.57 431.973-9.1 520.797 78.132c46.522 41.13 70.208 99.57 93.61 155.443-49.95 29.78-92.08 70.208-140.49 102.123 1.555-62.83-6.945-136.444-66.803-171.616-88.22-65.249-230.19-2.69-238.85 107.23-12.337 76.587 42.413 141.268 109.216 169.494 8.229-13.57 16.593-27.227 24.822-40.71 39.292 37.306 78.289 74.747 115.878 113.892-34.604 36.874-71.195 72.046-109.216 105.528-13.756-12.053-27.227-24.254-41.415-35.604-49.778-15.038-100.272-28.078-147.793-49.495-14.187-63.262-71.06-106.946-81.978-171.763-33.136-124.54 26.29-264.956 139.75-326.516z" p-id="723"></path><path d="M614.383 233.576c133.755-42.55 293.737 20.849 352.595 150.347 60.142 123.108 22.132 286.076-91.476 364.796-75.6 57.982-176.588 60.845-266.646 43.968-2.134-59.426-15.272-117.73-18.973-177.007 56.02 54.75 149.915 69.64 211.475 15.322 83.964-63.83 69.777-209.724-25.672-255.16-58.575-34.185-126.661-11.201-180.696 20.146 8.364 15.322 16.74 30.78 25.105 46.238-52.764 15.039-105.812 29.078-159.415 40.847q-18.295-74.674-36.17-149.496c16.456 0.851 33.05 1.702 49.494 2.122 48.323-31.915 90.453-72.343 140.38-102.123z" p-id="724"></path><path d="M109.17 529.866l10.635 4.54c47.509 21.416 98.003 34.469 147.794 49.495-58.44 35.455-112.054 95.165-98.287 169.012 8.08 110.068 149.78 172.332 237.852 107.515 59.29-35.036 68.925-107.33 68.074-169.914l-48.508 1.234q17.654-75.525 35.32-150.915c54.75 10.635 108.649 24.822 162.252 40.144-11.634 11.35-23.119 22.835-34.469 34.604 3.701 59.29 16.877 117.581 19.011 177.007-22.551 106.515-108.563 198.004-215.164 223.294-78.906 17.494-166.077 7.28-233.731-38.959C67.62 918.633 17.83 804.456 31.869 696.942c6.107-62.83 38.158-119.136 77.302-167.076z" p-id="725"></path></svg>
