<?xml version="1.0" standalone="no"?>
<!DOCTYPE svg PUBLIC "-//W3C//DTD SVG 1.1//EN" "http://www.w3.org/Graphics/SVG/1.1/DTD/svg11.dtd" >
<svg xmlns="http://www.w3.org/2000/svg">
<metadata>Generated by IcoMoon</metadata>
<defs>
<font id="icomoon" horiz-adv-x="1024">
<font-face units-per-em="1024" ascent="960" descent="-64" />
<missing-glyph horiz-adv-x="1024" />
<glyph unicode="&#x20;" horiz-adv-x="512" d="" />
<glyph unicode="&#xe900;" glyph-name="wis" d="M556.851 678.707l-118.784-423.731h-63.693l-85.35 305.306c-3.84 13.875-6.144 28.467-6.861 43.776h-1.075c-1.075-15.155-3.738-29.542-7.68-43.213l-86.17-305.869h-63.232l-122.829 423.731h60.467l86.426-320.051c3.84-14.387 6.093-28.928 6.861-43.571h1.638c0.87 11.008 3.891 25.446 9.011 43.571l91.648 320.051h53.914l87.552-322.56c2.867-10.547 5.222-24.064 7.117-40.499h1.075c0.87 11.827 3.533 25.754 7.936 41.626l83.2 321.434h58.829zM714.086 632.474h-40.755v-331.366h40.755v-46.182h-136.243v46.182h40.806v331.366h-40.806v46.234h136.243v-46.234zM763.597 334.541c12.954-11.315 30.259-20.582 51.968-27.904s42.342-10.957 61.85-10.957c59.443 0 89.139 21.146 89.139 63.488 0 11.827-3.226 22.477-9.626 32-6.349 9.523-15.104 17.818-26.214 25.139-11.11 7.27-32.051 18.534-62.669 33.638-42.445 21.197-70.451 40.806-84.019 58.982-13.363 18.176-20.122 38.912-20.122 62.259 0 35.226 14.080 63.078 42.342 83.712 28.314 20.634 64 30.925 107.008 30.925 42.138 0 73.011-5.12 92.723-15.309v-59.597c-25.446 17.715-57.702 26.522-96.819 26.522-25.907 0-47.002-5.427-63.283-16.23-16.333-10.854-24.525-25.958-24.525-45.312 0-17.152 5.683-31.13 16.998-41.83 11.315-10.752 35.789-25.446 73.574-44.032 41.626-19.917 70.758-39.782 87.245-59.648 16.589-19.968 24.832-42.291 24.832-67.123 0-37.171-13.414-65.69-40.448-85.555-26.982-19.866-64.512-29.85-112.384-29.85-16.845 0-36.403 2.406-58.675 7.014-22.426 4.659-38.656 10.394-48.845 17.357v62.31z" />
<glyph unicode="&#xe901;" glyph-name="workflow" d="M1024 646.963v279.296c0 25.702-20.838 46.541-46.541 46.541h-279.245c-25.754 0-46.541-20.838-46.541-46.541v-116.378c-227.379 0-418.406-156.262-472.73-366.899l-48.384 8.499c-8.704 1.485-17.51-1.997-22.733-9.062s-6.042-16.538-2.048-24.422l50.432-99.533c-88.474-14.387-156.211-91.085-156.211-183.501 0-102.656 83.507-186.163 186.214-186.163 94.771 0 173.056 71.219 184.576 162.918h164.506v-46.541c0-8.806 4.966-16.845 12.851-20.838 7.885-3.942 17.306-3.072 24.422 2.202l81.357 61.030c13.261-89.651 90.573-158.771 183.859-158.771 102.707 0 186.214 83.507 186.214 186.163 0 94.771-71.219 173.056-162.97 184.576v164.506h46.592c8.755 0 16.845 4.966 20.787 12.851s3.123 17.306-2.202 24.371l-59.392 79.104h110.49c25.856 0.051 46.694 20.89 46.694 46.592zM186.214 41.882c-51.354 0-93.082 41.728-93.082 93.030s41.779 93.082 93.082 93.082 93.082-41.779 93.082-93.082-41.779-93.030-93.082-93.030zM930.97 134.963c0-51.302-41.779-93.030-93.082-93.030s-93.030 41.728-93.030 93.030 41.728 93.082 93.030 93.082 93.082-41.779 93.082-93.082zM747.213 496.947c3.942-7.885 11.981-12.851 20.787-12.851h46.541v-164.506c-82.637-10.394-148.48-75.11-160.614-157.184l-81.408 61.082c-7.014 5.274-16.486 6.093-24.371 2.202-7.885-3.994-12.851-11.981-12.851-20.838v-46.541h-164.506c-10.547 84.122-77.414 150.938-161.638 161.331 0.051 0.512 0.307 0.973 0.307 1.536 0 0.102 0 0.154 0 0.256l70.451 65.946c6.451 5.99 8.909 15.155 6.4 23.603-2.56 8.499-9.574 14.797-18.278 16.282l-43.213 7.629c50.381 188.774 222.362 328.448 426.803 328.448v-116.378c0-25.702 20.838-46.541 46.541-46.541h110.541l-59.341-79.155c-5.274-7.014-6.144-16.435-2.15-24.32zM930.97 693.555h-186.214v186.163h186.214v-186.163z" />
<glyph unicode="&#xe902;" glyph-name="menu" d="M204.8 564.89c-56.525 0-102.4-45.824-102.4-102.4s45.875-102.4 102.4-102.4c56.576 0 102.4 45.824 102.4 102.4 0 56.525-45.824 102.4-102.4 102.4zM204.8 411.238c-28.262 0-51.2 22.989-51.2 51.2s22.938 51.2 51.2 51.2 51.2-22.989 51.2-51.2c0-28.211-22.938-51.2-51.2-51.2zM512 564.89c-56.525 0-102.4-45.824-102.4-102.4s45.875-102.4 102.4-102.4c56.576 0 102.4 45.824 102.4 102.4 0 56.525-45.824 102.4-102.4 102.4zM512 411.238c-28.262 0-51.2 22.989-51.2 51.2s22.938 51.2 51.2 51.2 51.2-22.989 51.2-51.2c0-28.211-22.938-51.2-51.2-51.2zM819.2 564.89c-56.525 0-102.4-45.824-102.4-102.4s45.875-102.4 102.4-102.4c56.576 0 102.4 45.824 102.4 102.4 0 56.525-45.824 102.4-102.4 102.4zM819.2 411.238c-28.262 0-51.2 22.989-51.2 51.2s22.938 51.2 51.2 51.2 51.2-22.989 51.2-51.2c0-28.211-22.938-51.2-51.2-51.2zM204.8 256c-56.525 0-102.4-45.824-102.4-102.4s45.875-102.4 102.4-102.4c56.576 0 102.4 45.824 102.4 102.4s-45.824 102.4-102.4 102.4zM204.8 102.4c-28.262 0-51.2 22.989-51.2 51.2s22.938 51.2 51.2 51.2 51.2-22.989 51.2-51.2c0-28.262-22.938-51.2-51.2-51.2zM512 256c-56.525 0-102.4-45.824-102.4-102.4s45.875-102.4 102.4-102.4c56.576 0 102.4 45.824 102.4 102.4s-45.824 102.4-102.4 102.4zM512 102.4c-28.262 0-51.2 22.989-51.2 51.2s22.938 51.2 51.2 51.2 51.2-22.989 51.2-51.2c0-28.262-22.938-51.2-51.2-51.2zM819.2 256c-56.525 0-102.4-45.824-102.4-102.4s45.875-102.4 102.4-102.4c56.576 0 102.4 45.824 102.4 102.4s-45.824 102.4-102.4 102.4zM819.2 102.4c-28.262 0-51.2 22.989-51.2 51.2s22.938 51.2 51.2 51.2 51.2-22.989 51.2-51.2c0-28.262-22.938-51.2-51.2-51.2zM204.8 870.4c-56.525 0-102.4-45.824-102.4-102.4s45.875-102.4 102.4-102.4c56.576 0 102.4 45.824 102.4 102.4s-45.824 102.4-102.4 102.4zM204.8 716.8c-28.262 0-51.2 22.938-51.2 51.2 0 28.211 22.938 51.2 51.2 51.2s51.2-22.989 51.2-51.2c0-28.262-22.938-51.2-51.2-51.2zM512 870.4c-56.525 0-102.4-45.824-102.4-102.4s45.875-102.4 102.4-102.4c56.576 0 102.4 45.824 102.4 102.4s-45.824 102.4-102.4 102.4zM512 716.8c-28.262 0-51.2 22.938-51.2 51.2 0 28.211 22.938 51.2 51.2 51.2s51.2-22.989 51.2-51.2c0-28.262-22.938-51.2-51.2-51.2zM819.2 870.4c-56.525 0-102.4-45.824-102.4-102.4s45.875-102.4 102.4-102.4c56.576 0 102.4 45.824 102.4 102.4s-45.824 102.4-102.4 102.4zM819.2 716.8c-28.262 0-51.2 22.989-51.2 51.2s22.938 51.2 51.2 51.2 51.2-22.989 51.2-51.2c0-28.262-22.938-51.2-51.2-51.2z" />
<glyph unicode="&#xe903;" glyph-name="module" d="M505.958 665.6v-256h-256v256h256zM499.558 716.8h-243.2c-31.846 0-57.6-25.805-57.6-57.6v-243.2c0-31.795 25.754-57.6 57.6-57.6h243.2c31.795 0 57.6 25.805 57.6 57.6v243.2c0 31.795-25.805 57.6-57.6 57.6v0zM761.958 204.8h-512c-28.262 0-28.262-51.2 0-51.2h512c28.262 0 28.262 51.2 0 51.2v0zM793.6 921.6c98.816 0 179.2-80.384 179.2-179.2v-563.2c0-98.816-80.384-179.2-179.2-179.2h-563.2c-98.816 0-179.2 80.384-179.2 179.2v563.2c0 98.816 80.384 179.2 179.2 179.2h563.2zM793.6 972.8h-563.2c-127.232 0-230.4-103.168-230.4-230.4v-563.2c0-127.232 103.168-230.4 230.4-230.4h563.2c127.232 0 230.4 103.168 230.4 230.4v563.2c0 127.232-103.168 230.4-230.4 230.4v0z" />
<glyph unicode="&#xe904;" glyph-name="test" d="M536.371 418.97v43.366c0 13.414-10.957 24.371-24.371 24.371s-24.371-10.957-24.371-24.371v-43.366c-37.786-10.701-65.69-45.056-65.69-86.272 0-49.715 40.294-90.061 90.061-90.061 49.715 0 90.061 40.294 90.061 90.061 0 41.216-27.904 75.622-65.69 86.272zM512 291.43c-22.784 0-41.267 18.534-41.267 41.267 0 22.784 18.534 41.267 41.267 41.267 22.784 0 41.267-18.534 41.267-41.267s-18.483-41.267-41.267-41.267zM1023.898 218.419c-1.485 280.832-231.117 509.286-511.898 509.286s-510.413-228.454-511.846-509.286l-0.154-24.525h1024l-0.102 24.525zM49.664 242.688c3.994 68.608 23.45 133.018 54.221 190.515 2.765-4.25 6.298-7.987 11.213-10.189l102.093-45.568c3.584-1.587 7.322-2.355 11.008-2.355 10.394 0 20.378 5.99 24.883 16.077 6.093 13.619-0.102 29.798-13.722 35.891l-102.144 45.517c-2.765 1.229-5.632 1.536-8.499 1.792 36.301 53.555 83.251 99.277 138.138 133.734 0.154-0.41 0.102-0.819 0.256-1.178l44.8-102.4c4.454-10.189 14.49-16.282 24.986-16.282 3.635 0 7.27 0.717 10.803 2.253 13.67 5.99 19.968 22.067 13.978 35.789l-44.8 102.4c-0.87 1.946-2.714 2.97-3.942 4.608 56.115 26.931 118.272 42.803 183.91 44.902-2.253-3.942-3.891-8.294-3.891-13.158v-111.77c0-14.95 12.237-27.136 27.136-27.136s27.136 12.237 27.136 27.136v111.77c0 4.506-1.382 8.602-3.328 12.339 72.499-5.018 140.39-26.829 200.038-61.594l-60.314-89.754c-8.346-12.39-5.018-29.338 7.373-37.683 4.608-3.123 9.882-4.608 15.104-4.608 8.755 0 17.357 4.198 22.579 11.981l60.57 90.112c46.438-34.918 86.067-78.182 116.736-127.744l-102.656-34.611c-14.131-4.762-21.811-20.275-17.050-34.406 3.789-11.315 14.438-18.483 25.805-18.483 2.867 0 5.786 0.461 8.602 1.434l105.933 35.686c1.946 0.666 3.482 1.946 5.171 3.021 24.115-51.61 39.117-108.339 42.547-168.090h-924.672z" />
<glyph unicode="&#xe905;" glyph-name="node" d="M874.138 535.706c-33.178 0-63.59-11.213-88.474-29.542l-42.496 39.117c19.251 25.19 31.078 56.269 31.078 90.368 0 82.637-67.226 149.862-149.862 149.862s-149.862-67.226-149.862-149.862c0-57.037 32.358-106.086 79.36-131.43l-62.822-84.634c-20.122 10.086-42.496 16.23-66.509 16.23-26.931 0-51.866-7.731-73.728-20.224l-66.048 81.050c9.318 19.507 14.95 41.062 14.95 64.051 0 82.637-67.226 149.862-149.862 149.862s-149.862-67.226-149.862-149.862 67.226-149.862 149.862-149.862c40.96 0 78.080 16.589 105.165 43.315l57.19-70.144c-23.040-26.368-37.427-60.416-37.427-98.048 0-82.637 67.226-149.862 149.862-149.862s149.862 67.226 149.862 149.862c0 40.653-16.384 77.466-42.803 104.499l72.243 97.382c6.758-0.922 13.466-2.048 20.48-2.048 30.515 0 58.829 9.267 82.534 24.986l43.776-40.192c-16.589-24.115-26.419-53.248-26.419-84.685 0-82.637 67.226-149.862 149.862-149.862s149.862 67.226 149.862 149.862-67.277 149.811-149.914 149.811zM149.862 460.8c-55.091 0-99.891 44.8-99.891 99.891s44.8 99.891 99.891 99.891 99.891-44.8 99.891-99.891-44.8-99.891-99.891-99.891zM424.602 186.061c-55.091 0-99.891 44.8-99.891 99.891s44.8 99.891 99.891 99.891 99.891-44.8 99.891-99.891-44.8-99.891-99.891-99.891zM524.493 635.648c0 55.091 44.8 99.891 99.891 99.891s99.891-44.8 99.891-99.891-44.8-99.891-99.891-99.891-99.891 44.8-99.891 99.891zM874.138 285.952c-55.091 0-99.891 44.8-99.891 99.891s44.8 99.891 99.891 99.891 99.891-44.8 99.891-99.891-44.8-99.891-99.891-99.891z" />
<glyph unicode="&#xe906;" glyph-name="systemconfig" d="M670.515 394.138c-28.672 9.677-47.923 36.454-47.923 66.662s19.251 56.986 47.923 66.662c8.704 2.918 13.722 12.083 11.418 21.043-8.141 31.59-20.634 61.901-37.222 90.163-4.813 8.192-15.258 11.059-23.603 6.554-10.291-5.581-21.914-8.55-33.638-8.55-38.81 0-70.349 31.539-70.349 70.349 0 11.776 2.97 23.398 8.55 33.638 4.557 8.346 1.638 18.79-6.554 23.603-28.262 16.589-58.624 29.133-90.214 37.222-8.858 2.304-18.074-2.714-20.992-11.418-9.626-28.672-36.454-47.923-66.662-47.923s-57.037 19.302-66.662 47.923c-2.918 8.704-12.083 13.722-21.043 11.418-31.539-8.090-61.85-20.634-90.163-37.222-8.192-4.813-11.059-15.258-6.554-23.603 5.632-10.291 8.55-21.914 8.55-33.69 0-38.81-31.539-70.349-70.349-70.349-11.776 0-23.45 2.97-33.638 8.55-8.346 4.557-18.79 1.69-23.603-6.502-16.589-28.262-29.082-58.624-37.222-90.163-2.304-8.909 2.714-18.074 11.418-21.043 28.672-9.626 47.923-36.454 47.923-66.662s-19.251-56.986-47.923-66.662c-8.704-2.918-13.722-12.083-11.418-21.043 8.141-31.59 20.634-61.901 37.274-90.163 4.813-8.192 15.258-11.059 23.603-6.554 10.24 5.581 21.914 8.55 33.638 8.55 38.81 0 70.349-31.539 70.349-70.349 0-11.776-2.97-23.398-8.55-33.638-4.557-8.346-1.638-18.79 6.554-23.603 28.262-16.589 58.573-29.133 90.163-37.222 1.485-0.41 2.918-0.563 4.352-0.563 7.373 0 14.182 4.71 16.64 11.981 9.626 28.672 36.454 47.923 66.662 47.923s56.986-19.251 66.662-47.923c2.918-8.704 12.083-13.722 21.043-11.418 31.59 8.141 61.901 20.634 90.163 37.222 8.192 4.813 11.059 15.258 6.554 23.603-5.581 10.291-8.55 21.914-8.55 33.638 0 38.81 31.539 70.349 70.349 70.349 11.776 0 23.398-2.97 33.638-8.55 8.346-4.557 18.79-1.638 23.603 6.554 16.589 28.262 29.133 58.573 37.222 90.163 2.304 8.96-2.714 18.125-11.418 21.043zM613.427 333.363c-8.499 1.843-17.254 2.816-26.010 2.816-67.021 0-121.549-54.528-121.549-121.549 0-8.755 0.973-17.459 2.816-26.010-8.806-4.147-17.869-7.834-26.982-11.11-22.323 32.768-59.546 53.146-100.454 53.146-40.96 0-78.234-20.429-100.454-53.146-9.216 3.277-18.227 7.014-26.982 11.11 1.843 8.55 2.816 17.254 2.816 26.010 0 67.021-54.528 121.549-121.549 121.549-8.755 0-17.459-0.973-26.010-2.816-4.147 8.806-7.834 17.869-11.11 26.982 32.717 22.323 53.146 59.546 53.146 100.454 0 40.96-20.429 78.234-53.146 100.454 3.226 9.216 6.963 18.176 11.11 26.982 8.499-1.843 17.254-2.816 26.010-2.816 67.021 0 121.549 54.528 121.549 121.549 0 8.755-0.973 17.51-2.816 26.010 8.806 4.147 17.818 7.885 26.982 11.11 22.323-32.768 59.546-53.146 100.454-53.146 40.96 0 78.234 20.429 100.454 53.146 9.216-3.277 18.176-7.014 26.982-11.11-1.843-8.499-2.765-17.254-2.765-25.958 0-67.021 54.528-121.549 121.549-121.549 8.755 0 17.51 0.973 26.010 2.816 4.147-8.806 7.834-17.869 11.11-26.982-32.768-22.374-53.197-59.597-53.197-100.506 0-40.96 20.429-78.234 53.146-100.454-3.226-9.216-6.912-18.176-11.11-26.982zM341.248 566.323c-58.163 0-105.523-47.36-105.523-105.523s47.36-105.523 105.523-105.523c58.163 0 105.523 47.36 105.523 105.523s-47.36 105.523-105.523 105.523zM341.248 406.477c-29.952 0-54.323 24.371-54.323 54.323s24.371 54.323 54.323 54.323 54.323-24.371 54.323-54.323-24.371-54.323-54.323-54.323zM1018.010 769.024c-14.336 4.813-23.91 18.227-23.91 33.28 0 15.104 9.626 28.467 23.91 33.28 4.352 1.434 6.861 6.042 5.734 10.496-4.045 15.77-10.291 30.925-18.586 45.056-2.406 4.096-7.629 5.53-11.776 3.277-5.12-2.816-10.957-4.25-16.794-4.25-19.405 0-35.123 15.77-35.123 35.123 0 5.888 1.485 11.674 4.25 16.794 2.253 4.147 0.819 9.37-3.277 11.776-14.131 8.294-29.286 14.541-45.056 18.586-4.454 1.126-9.011-1.331-10.496-5.734-4.813-14.336-18.227-23.91-33.28-23.91s-28.467 9.626-33.28 23.91c-1.434 4.352-6.042 6.861-10.496 5.734-15.77-4.045-30.925-10.291-45.056-18.586-4.096-2.406-5.53-7.629-3.277-11.776 2.816-5.12 4.25-10.957 4.25-16.794 0-19.405-15.77-35.123-35.123-35.123-5.888 0-11.725 1.485-16.794 4.25-4.147 2.253-9.37 0.819-11.776-3.277-8.294-14.131-14.541-29.286-18.586-45.056-1.126-4.454 1.382-9.011 5.734-10.496 14.336-4.813 23.91-18.227 23.91-33.28 0-15.104-9.626-28.467-23.91-33.28-4.352-1.434-6.861-6.042-5.734-10.496 4.045-15.77 10.291-30.925 18.586-45.056 2.406-4.096 7.629-5.53 11.776-3.277 5.12 2.816 10.957 4.25 16.794 4.25 19.354 0 35.123-15.77 35.123-35.123 0-5.888-1.485-11.674-4.25-16.794-2.253-4.147-0.819-9.37 3.277-11.776 14.131-8.294 29.286-14.541 45.056-18.586 0.717-0.205 1.485-0.256 2.202-0.256 3.686 0 7.117 2.355 8.346 5.99 4.813 14.336 18.227 23.91 33.28 23.91s28.467-9.626 33.28-23.91c1.434-4.352 6.042-6.861 10.496-5.734 15.77 4.045 30.925 10.291 45.056 18.586 4.096 2.406 5.53 7.629 3.277 11.776-2.816 5.12-4.25 10.957-4.25 16.794 0 19.405 15.77 35.123 35.123 35.123 5.888 0 11.674-1.485 16.794-4.25 4.147-2.253 9.37-0.819 11.776 3.277 8.294 14.131 14.541 29.286 18.586 45.056 1.075 4.454-1.434 9.011-5.786 10.496zM989.491 738.611c-4.25 0.922-8.602 1.382-13.005 1.382-33.485 0-60.723-27.238-60.723-60.723 0-4.352 0.461-8.704 1.382-13.005-4.403-2.048-8.909-3.942-13.466-5.53-11.162 16.384-29.747 26.573-50.176 26.573-20.48 0-39.117-10.24-50.176-26.573-4.608 1.638-9.114 3.482-13.466 5.53 0.922 4.25 1.382 8.602 1.382 13.005 0 33.485-27.238 60.723-60.723 60.723-4.352 0-8.704-0.461-13.005-1.382-2.048 4.403-3.942 8.909-5.53 13.466 16.384 11.162 26.573 29.747 26.573 50.176 0 20.48-10.24 39.117-26.573 50.176 1.638 4.608 3.482 9.114 5.53 13.466 4.25-0.922 8.602-1.382 13.005-1.382 33.485 0 60.723 27.238 60.723 60.723 0 4.352-0.461 8.755-1.382 13.005 4.403 2.048 8.909 3.942 13.466 5.53 11.162-16.384 29.747-26.573 50.176-26.573 20.48 0 39.117 10.24 50.176 26.573 4.608-1.638 9.114-3.482 13.466-5.53-0.922-4.25-1.382-8.602-1.382-13.005 0-33.485 27.238-60.723 60.723-60.723 4.352 0 8.755 0.461 13.005 1.382 2.048-4.403 3.942-8.909 5.53-13.466-16.384-11.162-26.573-29.747-26.573-50.176 0-20.48 10.24-39.117 26.573-50.176-1.587-4.557-3.43-9.062-5.53-13.466zM853.504 855.040c-29.082 0-52.736-23.654-52.736-52.736s23.654-52.736 52.736-52.736c29.082 0 52.736 23.654 52.736 52.736s-23.654 52.736-52.736 52.736zM853.504 775.168c-14.95 0-27.136 12.186-27.136 27.136s12.186 27.136 27.136 27.136 27.136-12.186 27.136-27.136-12.186-27.136-27.136-27.136zM1018.010 86.016c-14.336 4.813-23.91 18.227-23.91 33.28 0 15.104 9.626 28.467 23.91 33.28 4.352 1.434 6.861 6.042 5.734 10.496-4.045 15.77-10.291 30.925-18.586 45.056-2.406 4.096-7.629 5.53-11.776 3.277-5.12-2.816-10.957-4.25-16.794-4.25-19.405 0-35.123 15.77-35.123 35.123 0 5.888 1.485 11.674 4.25 16.794 2.253 4.147 0.819 9.37-3.277 11.776-14.131 8.294-29.286 14.541-45.056 18.586-4.454 1.126-9.011-1.331-10.496-5.734-4.813-14.336-18.227-23.91-33.28-23.91s-28.467 9.626-33.28 23.91c-1.434 4.352-6.042 6.861-10.496 5.734-15.77-4.045-30.925-10.291-45.056-18.586-4.096-2.406-5.53-7.629-3.277-11.776 2.816-5.12 4.25-10.957 4.25-16.794 0-19.405-15.77-35.123-35.123-35.123-5.888 0-11.725 1.485-16.794 4.25-4.147 2.253-9.37 0.819-11.776-3.277-8.294-14.131-14.541-29.286-18.586-45.056-1.126-4.454 1.382-9.011 5.734-10.496 14.336-4.813 23.91-18.227 23.91-33.28 0-15.104-9.626-28.467-23.91-33.28-4.352-1.434-6.861-6.042-5.734-10.496 4.045-15.77 10.291-30.925 18.586-45.056 2.406-4.096 7.629-5.53 11.776-3.277 5.12 2.816 10.957 4.25 16.794 4.25 19.354 0 35.123-15.77 35.123-35.123 0-5.888-1.485-11.674-4.25-16.794-2.253-4.147-0.819-9.37 3.277-11.776 14.131-8.294 29.286-14.541 45.056-18.586 0.614-0.256 1.331-0.358 2.048-0.358 3.686 0 7.117 2.355 8.346 5.99 4.813 14.336 18.227 23.91 33.28 23.91s28.467-9.626 33.28-23.91c1.434-4.352 6.042-6.861 10.496-5.734 15.77 4.045 30.925 10.291 45.056 18.586 4.096 2.406 5.53 7.629 3.277 11.776-2.816 5.12-4.25 10.957-4.25 16.794 0 19.405 15.77 35.123 35.123 35.123 5.888 0 11.674-1.485 16.794-4.25 4.147-2.253 9.37-0.819 11.776 3.277 8.294 14.131 14.541 29.286 18.586 45.056 1.229 4.557-1.28 9.114-5.632 10.598zM989.491 55.603c-4.25 0.922-8.602 1.382-13.005 1.382-33.485 0-60.723-27.238-60.723-60.723 0-4.352 0.461-8.704 1.382-13.005-4.403-2.048-8.909-3.942-13.466-5.53-11.162 16.384-29.747 26.573-50.176 26.573-20.48 0-39.117-10.24-50.176-26.573-4.608 1.638-9.114 3.482-13.466 5.53 0.922 4.25 1.382 8.602 1.382 13.005 0 33.485-27.238 60.723-60.723 60.723-4.352 0-8.704-0.461-13.005-1.382-2.048 4.403-3.942 8.909-5.53 13.466 16.384 11.162 26.573 29.747 26.573 50.176 0 20.48-10.24 39.117-26.573 50.176 1.638 4.608 3.482 9.114 5.53 13.466 4.25-0.922 8.602-1.382 13.005-1.382 33.485 0 60.723 27.238 60.723 60.723 0 4.352-0.461 8.755-1.382 13.005 4.403 2.048 8.909 3.942 13.466 5.53 11.162-16.384 29.747-26.573 50.176-26.573 20.48 0 39.117 10.24 50.176 26.573 4.608-1.638 9.114-3.482 13.466-5.53-0.922-4.25-1.382-8.602-1.382-13.005 0-33.485 27.238-60.723 60.723-60.723 4.352 0 8.755 0.461 13.005 1.382 2.048-4.403 3.942-8.909 5.53-13.466-16.384-11.162-26.573-29.747-26.573-50.176 0-20.48 10.24-39.117 26.573-50.176-1.587-4.557-3.43-9.062-5.53-13.466zM853.504 172.032c-29.082 0-52.736-23.654-52.736-52.736s23.654-52.736 52.736-52.736c29.082 0 52.736 23.654 52.736 52.736s-23.654 52.736-52.736 52.736zM853.504 92.16c-14.95 0-27.136 12.186-27.136 27.136s12.186 27.136 27.136 27.136 27.136-12.186 27.136-27.136c0-14.95-12.186-27.136-27.136-27.136z" />
<glyph unicode="&#xe907;" glyph-name="function" d="M426.65 972.8h-369.766c-31.283 0-56.883-25.6-56.883-56.883v-369.766c0-31.283 25.6-56.883 56.883-56.883h369.766c31.283 0 56.883 25.6 56.883 56.883v369.766c0 31.283-25.6 56.883-56.883 56.883zM426.65 546.15h-369.766v369.766h369.766v-369.766zM426.65 432.333h-369.766c-31.283 0-56.883-25.6-56.883-56.883v-369.766c0-31.283 25.6-56.883 56.883-56.883h369.766c31.283 0 56.883 25.6 56.883 56.883v369.766c0 31.283-25.6 56.883-56.883 56.883zM426.65 5.683h-369.766v369.766h369.766v-369.766zM967.117 972.8h-369.766c-31.283 0-56.883-25.6-56.883-56.883v-369.766c0-31.283 25.6-56.883 56.883-56.883h369.766c31.283 0 56.883 25.6 56.883 56.883v369.766c0 31.283-25.6 56.883-56.883 56.883zM967.117 546.15h-369.766v369.766h369.766v-369.766zM967.117 432.333h-369.766c-31.283 0-56.883-25.6-56.883-56.883v-369.766c0-31.283 25.6-56.883 56.883-56.883h369.766c31.283 0 56.883 25.6 56.883 56.883v369.766c0 31.283-25.6 56.883-56.883 56.883zM967.117 5.683h-369.766v369.766h369.766v-369.766z" />
<glyph unicode="&#xe908;" glyph-name="message" d="M771.43 497.357c-31.386 0-56.883 25.498-56.883 56.883s25.498 56.883 56.883 56.883 56.883-25.498 56.883-56.883c0-31.386-25.498-56.883-56.883-56.883v0zM505.958 497.357c-31.386 0-56.883 25.498-56.883 56.883s25.498 56.883 56.883 56.883c31.386 0 56.883-25.498 56.883-56.883s-25.498-56.883-56.883-56.883v0zM240.435 497.357c-31.386 0-56.883 25.498-56.883 56.883s25.498 56.883 56.883 56.883 56.883-25.498 56.883-56.883c0-31.386-25.446-56.883-56.883-56.883v0zM922.675 829.85c27.648 0 50.125-22.477 50.125-50.125v-514.15c0-27.648-22.477-50.125-50.125-50.125h-267.981c-15.616 0-30.362-7.117-40.038-19.302l-70.963-89.139c-10.598-13.261-24.371-15.258-31.693-15.258s-21.094 1.997-31.693 15.258l-70.963 89.139c-9.728 12.186-24.474 19.302-40.038 19.302h-267.981c-27.648 0-50.125 22.477-50.125 50.125v514.15c0 27.648 22.477 50.125 50.125 50.125h821.35zM922.675 881.050h-821.35c-55.962 0-101.325-45.363-101.325-101.325v-514.15c0-55.962 45.363-101.325 101.325-101.325h267.981l70.963-89.139c18.33-23.040 45.056-34.56 71.731-34.56s53.402 11.52 71.731 34.56l70.963 89.139h267.981c55.962 0 101.325 45.363 101.325 101.325v514.15c0 55.962-45.363 101.325-101.325 101.325v0z" />
<glyph unicode="&#xe909;" glyph-name="authorsys" d="M550.656 752.077c-1.331 24.422-26.266 20.275-50.637 20.275 18.022-4.813 35.021-11.469 50.637-20.275zM290.253 813.261c-94.566 0-138.086-119.706-62.515-179.917 25.754 68.813 77.056 118.221 144.333 137.728-18.381 25.446-48.077 42.189-81.818 42.189zM94.925 652.134c3.84-12.39 8.858-24.218 14.797-35.482l-31.078-31.078c-8.346-8.346-8.346-21.862 0-30.259l54.733-54.784c3.994-3.942 9.472-6.195 15.155-6.195 5.632 0 11.059 2.253 15.104 6.246l31.027 31.078c4.659-2.458 9.83-3.994 14.643-6.093 0 0.358-0.051 0.717-0.051 1.075 0 25.395 2.918 49.357 8.090 71.834-37.427 24.115-62.413 65.946-62.413 113.715 0 74.65 60.723 135.373 135.322 135.373 50.534 0 94.157-28.109 117.453-69.222 24.883 3.072 48.23 3.072 76.339-2.253-3.635 11.008-7.885 21.709-13.21 31.744l31.078 31.078c4.045 3.994 6.298 9.472 6.298 15.104 0 5.683-2.253 11.11-6.298 15.104l-54.733 54.733c-4.198 4.198-9.626 6.298-15.104 6.298s-10.906-2.099-15.104-6.246l-31.13-31.13c-11.264 5.939-23.091 10.957-35.482 14.746v43.93c0 11.776-9.523 21.35-21.35 21.35h-77.466c-11.776 0-21.402-9.574-21.402-21.35v-43.93c-12.339-3.789-24.166-8.755-35.43-14.746l-31.078 31.078c-4.198 4.198-9.626 6.246-15.104 6.246s-10.957-2.099-15.104-6.246l-54.784-54.733c-3.994-3.994-6.246-9.421-6.246-15.104s2.253-11.11 6.246-15.104l31.078-31.078c-5.939-11.264-10.906-23.091-14.694-35.482h-43.93c-11.827 0-21.402-9.574-21.402-21.402v-77.466c0-11.776 9.574-21.402 21.402-21.402h43.827zM765.747 237.773c34.253 18.79 57.754 54.733 57.754 96.461 0 60.877-49.562 110.387-110.438 110.387-21.402 0-41.267-6.4-58.214-16.998-10.138-40.397-26.112-79.053-47.053-112.64 59.29-11.162 113.664-38.144 157.952-77.21zM994.253 376.013c0 12.749-10.342 23.091-23.040 23.091h-47.36c-4.096 13.363-9.523 26.163-15.974 38.298l33.536 33.536c4.352 4.301 6.758 10.189 6.758 16.282s-2.406 11.981-6.758 16.333l-59.034 59.085c-4.506 4.454-10.445 6.707-16.333 6.707s-11.776-2.253-16.282-6.758l-33.587-33.536c-12.134 6.451-24.883 11.827-38.298 15.923v47.309c0 12.749-10.291 23.040-23.040 23.040h-83.558c-5.581 0-10.547-2.253-14.541-5.581 7.014-25.651 10.906-53.504 10.906-83.2 0-18.842-1.485-37.99-4.198-57.037 15.565 5.734 32.102 9.318 49.613 9.318 79.821 0 144.742-64.922 144.742-144.742 0-50.995-26.624-95.693-66.611-121.498 29.082-31.898 52.224-69.734 67.277-112.128 2.458-0.87 5.069-1.485 7.629-1.485 5.888 0 11.776 2.253 16.333 6.758l59.085 59.085c4.301 4.301 6.707 10.189 6.707 16.282s-2.355 11.981-6.707 16.333l-33.587 33.536c6.451 12.134 11.878 24.934 15.974 38.298h47.36c6.093 0 12.032 2.406 16.333 6.758 4.301 4.301 6.758 10.189 6.758 16.282l-0.102 83.712zM811.418 79.667c-35.84 105.421-130.458 177.92-239.77 187.75-36.608-38.758-81.92-63.334-133.222-63.334-51.251 0-96.614 24.576-133.171 63.334-109.363-9.882-203.981-82.381-239.821-187.802l-19.814-58.266c-5.683-16.794-2.97-35.277 7.373-49.664 10.342-14.336 26.982-22.886 44.646-22.886h681.523c17.715 0 34.355 8.55 44.646 22.938s13.056 32.87 7.322 49.664l-19.712 58.266zM260.762 526.592c0-130.714 79.565-271.002 177.715-271.002s177.715 140.288 177.715 271.002c0 271.002-355.43 271.565-355.43 0z" />
<glyph unicode="&#xe90a;" glyph-name="timingtask" d="M502.835 757.197c-9.933 0-17.971-8.038-17.971-17.971s8.038-17.971 17.971-17.971h323.379c9.933 0 17.971 8.038 17.971 17.971s-8.038 17.971-17.971 17.971h-323.379zM844.186 487.731c0 9.933-8.038 17.971-17.971 17.971h-323.379c-9.933 0-17.971-8.038-17.971-17.971s8.038-17.971 17.971-17.971h323.379c9.933 0 17.971 8.038 17.971 17.971zM387.482 842.701c-7.475 6.451-18.842 5.632-25.293-1.946l-112.23-130.918-68.659 51.507c-7.936 5.939-19.2 4.352-25.139-3.584-5.99-7.936-4.352-19.2 3.584-25.139l82.125-61.594c3.226-2.406 7.014-3.584 10.752-3.584 5.069 0 10.138 2.15 13.67 6.298l123.187 143.718c6.451 7.475 5.581 18.79-1.997 25.242zM387.482 591.206c-7.475 6.451-18.842 5.581-25.293-1.946l-112.23-130.918-68.659 51.507c-7.936 5.888-19.2 4.352-25.139-3.635-5.99-7.885-4.352-19.149 3.584-25.139l82.125-61.594c3.226-2.406 7.014-3.584 10.752-3.584 5.069 0 10.138 2.15 13.67 6.298l123.187 143.718c6.451 7.526 5.581 18.842-1.997 25.293zM362.189 319.795l-112.23-130.918-68.659 51.507c-7.885 5.939-19.149 4.352-25.139-3.584-5.939-7.936-4.352-19.2 3.584-25.139l82.125-61.594c3.226-2.406 7.014-3.584 10.752-3.584 5.069 0 10.138 2.15 13.67 6.298l123.187 143.718c6.451 7.526 5.581 18.842-1.946 25.293-7.526 6.4-18.893 5.53-25.344-1.997zM484.915 38.605h-248.371c-100.813 0-182.835 81.971-182.835 182.835v532.634c0 100.813 81.971 182.835 182.835 182.835h532.634c100.813 0 182.835-81.971 182.835-182.835v-374.118c0-9.933 8.038-17.971 17.971-17.971s17.971 8.038 17.971 17.971v374.118c-0.051 120.627-98.15 218.726-218.778 218.726h-532.634c-120.627 0-218.726-98.099-218.726-218.726v-532.634c0-120.627 98.099-218.726 218.726-218.726h248.371c9.933 0 17.971 8.038 17.971 17.971-0.051 9.933-8.038 17.92-17.971 17.92zM870.4 335.667c0-10.035-7.629-18.227-17.050-18.227h-273.050c-9.472 0-17.101 8.141-17.101 18.227v4.557c0 10.035 7.629 18.176 17.050 18.176h273.050c9.472 0 17.101-8.141 17.101-18.227v-4.506zM870.4-32.973c0-10.086-7.629-18.227-17.050-18.227h-273.050c-9.472 0-17.101 8.141-17.101 18.227v4.557c0 10.035 7.629 18.227 17.050 18.227h273.050c9.421 0 17.050-8.141 17.050-18.227v-4.557h0.051zM716.8 152.781l-3.226 1.485c-1.382 0.614-34.15 15.616-67.379 40.090-44.39 32.666-67.891 66.509-67.891 97.946 0 18.739 15.36 34.355 44.442 45.261 24.934 9.318 58.317 14.438 94.106 14.438 35.738 0 69.171-5.12 94.106-14.438 29.082-10.854 44.442-26.522 44.442-45.261 0-31.437-23.45-65.28-67.891-97.946-33.28-24.474-66.048-39.475-67.379-40.090l-3.328-1.485zM716.8 344.32c-33.792 0-65.229-4.762-88.474-13.466-17.613-6.605-38.554-18.637-38.554-38.554 0-37.274 35.277-71.014 64.922-92.826 26.419-19.456 53.094-32.973 62.157-37.376 9.062 4.403 35.84 18.022 62.31 37.478 29.542 21.76 64.717 55.45 64.717 92.672 0 19.968-20.992 32-38.554 38.554-23.296 8.755-54.733 13.517-88.525 13.517zM716.8-40.96c-35.738 0-69.171 5.12-94.106 14.438-29.082 10.854-44.442 26.522-44.442 45.261 0 31.437 23.45 65.28 67.891 97.946 33.28 24.474 66.048 39.475 67.379 40.090l3.277 1.434 3.226-1.485c1.382-0.614 34.15-15.616 67.379-40.090 44.39-32.666 67.891-66.509 67.891-97.946 0-18.739-15.36-34.355-44.442-45.261-24.883-9.267-58.317-14.387-94.054-14.387zM716.8 148.89c-9.062-4.403-35.84-18.022-62.31-37.478-29.542-21.76-64.717-55.45-64.717-92.672 0-19.968 20.992-32 38.554-38.554 23.245-8.704 54.682-13.466 88.474-13.466s65.229 4.762 88.474 13.466c17.613 6.605 38.554 18.637 38.554 38.554 0 37.222-35.226 70.912-64.717 92.672-26.47 19.456-53.248 33.075-62.31 37.478zM807.373 259.072c0-50.483-90.573-91.443-90.573-91.443s-90.573 40.96-90.573 91.443 181.146 50.534 181.146 0z" />
<glyph unicode="&#xe90b;" glyph-name="docnumallocation" d="M814.387 926.259c59.136 0 107.213-43.725 107.213-97.485v-736c0-53.76-48.077-97.434-107.213-97.434h-604.774c-59.136 0-107.213 43.725-107.213 97.434v736c0 53.76 48.077 97.434 107.213 97.434h604.774zM814.387 972.8h-604.774c-87.142 0-158.413-64.819-158.413-144.026v-736c0-79.155 71.27-143.974 158.413-143.974h604.826c87.091 0 158.362 64.819 158.362 143.974v736c0 79.206-71.27 144.026-158.413 144.026v0zM714.291 240.896c0.563-3.533 0.461-7.68-0.461-12.646-0.819-4.966-2.304-9.984-4.352-15.053-2.048-5.12-4.506-9.677-7.373-13.773-2.918-4.096-6.144-7.014-9.574-8.755-3.533-1.792-6.554-2.662-9.165-2.662s-5.478 0.563-8.704 1.741c-2.918 0.87-6.554 1.69-10.906 2.406-4.403 0.717-8.806 0.819-13.312 0.41s-9.011-1.382-13.517-2.816c-4.454-1.434-8.397-3.942-11.52-7.424-7.014-7.27-11.11-15.565-12.237-24.934-1.126-9.318 0.154-18.176 3.942-26.624 2.918-5.837 2.458-11.622-1.28-17.459-1.741-2.355-4.557-4.71-8.294-7.168-3.789-2.509-7.936-4.762-12.442-6.81-4.454-2.048-9.216-3.635-14.234-4.813-4.966-1.178-9.318-1.741-13.107-1.741-2.611 0-5.018 1.024-7.373 3.072-2.304 2.048-3.891 4.25-4.813 6.554h-0.461c-3.226 9.062-8.653 16.794-16.333 23.347s-16.64 9.83-26.829 9.83c-9.882 0-18.842-3.277-26.829-9.83s-13.619-14.182-16.794-22.938c-1.434-3.533-3.635-6.042-6.554-7.629-2.867-1.587-6.042-2.406-9.574-2.406-4.045 0-8.653 0.717-13.722 2.202-5.069 1.434-10.189 3.277-15.258 5.478s-9.677 4.71-13.773 7.629c-4.045 2.918-7.117 5.837-9.165 8.704-1.434 2.048-2.253 4.454-2.406 7.168-0.154 2.765 0.922 6.656 3.277 11.571 3.226 6.707 4.403 14.336 3.686 22.938s-4.403 16.538-11.11 23.808c-4.045 4.352-9.011 7.168-14.797 8.499-5.837 1.331-11.315 1.843-16.589 1.536-6.144-0.256-12.339-1.434-18.739-3.533-4.045-1.126-8.141-0.819-12.237 0.87-3.226 1.126-6.195 3.84-8.96 8.038s-5.222 8.909-7.424 13.978c-2.202 5.12-3.84 10.342-5.018 15.718-1.126 5.376-1.434 9.83-0.87 13.312 0.87 6.4 3.738 10.496 8.704 12.237 8.704 3.533 16.538 9.267 23.552 17.306 7.014 7.987 10.496 16.947 10.496 26.88 0 10.189-3.482 19.046-10.496 26.624s-14.848 13.107-23.552 16.64c-2.56 0.819-4.71 2.918-6.451 6.298s-2.662 6.81-2.662 10.24c0 3.789 0.563 8.038 1.741 12.698s2.714 9.165 4.557 13.568c1.894 4.352 4.096 8.346 6.554 12.032 2.509 3.635 5.171 6.349 8.038 8.090 2.355 1.434 4.608 2.048 6.81 1.741 2.202-0.256 4.557-0.87 7.168-1.741 8.704-3.533 17.818-4.557 27.29-3.277 9.421 1.28 17.818 5.478 25.088 12.442 3.482 3.533 6.042 7.782 7.629 12.902s2.662 10.138 3.072 15.104c0.461 4.966 0.461 9.472 0 13.517-0.41 4.096-0.819 7.014-1.075 8.704-0.563 1.741-1.075 3.789-1.536 6.144s-0.205 4.403 0.614 6.144c1.741 4.045 4.864 7.629 9.37 10.701s9.37 5.632 14.592 7.629c5.222 2.048 10.342 3.584 15.258 4.608s8.858 1.536 11.776 1.536c3.738 0 6.758-1.229 8.96-3.686 2.202-2.509 3.686-5.069 4.557-7.68 3.226-7.834 8.448-14.746 15.718-20.736s15.872-8.96 25.754-8.96c10.189 0 19.2 2.867 27.034 8.55s13.363 12.902 16.589 21.606c1.126 2.355 3.021 4.762 5.427 7.219 2.458 2.509 4.966 3.686 7.629 3.686 4.045 0 8.499-0.563 13.312-1.741 4.813-1.126 9.523-2.765 14.182-4.813 4.71-2.048 9.011-4.659 12.902-7.834 3.942-3.226 7.066-6.707 9.37-10.496 1.434-2.355 1.894-4.864 1.28-7.629-0.563-2.765-1.126-4.71-1.741-5.888-3.789-8.448-4.915-17.306-3.533-26.624 1.434-9.318 5.683-17.51 12.646-24.474 7.014-7.014 15.565-10.803 25.754-11.571 10.189-0.717 19.661 0.922 28.365 5.018 2.304 1.434 5.12 2.048 8.499 1.741s6.144-1.638 8.499-3.891c4.352-4.045 8.192-10.291 11.52-18.586 3.379-8.294 5.581-16.691 6.758-25.088 0.563-4.966-0.205-8.806-2.355-11.571-2.202-2.765-4.454-4.557-6.81-5.478-9.011-3.226-16.691-8.806-23.091-16.794s-9.574-17.101-9.574-27.29c0-9.933 2.714-18.586 8.038-26.010 5.376-7.373 12.442-12.749 21.146-15.923 2.048-1.126 3.789-2.355 5.222-3.482 3.277-2.714 5.478-6.093 6.605-10.138v0 0 0zM511.437 187.648c15.002 0 29.184 2.867 42.496 8.499 13.363 5.683 24.934 13.517 34.816 23.501 9.83 10.035 17.613 21.606 23.245 34.816s8.499 27.29 8.499 42.291c0 15.053-2.816 29.133-8.499 42.291-5.632 13.21-13.414 24.73-23.245 34.56s-21.402 17.613-34.816 23.296c-13.312 5.683-27.494 8.55-42.496 8.55s-29.133-2.867-42.291-8.499c-13.107-5.683-24.627-13.466-34.458-23.296s-17.613-21.402-23.245-34.56c-5.632-13.158-8.499-27.29-8.499-42.291s2.867-29.133 8.499-42.291c5.632-13.158 13.414-24.781 23.245-34.816s21.35-17.818 34.509-23.501c13.21-5.683 27.29-8.55 42.24-8.55v0 0 0zM307.2 819.2h409.6v-51.2h-409.6v51.2zM358.4 716.8h307.2v-51.2h-307.2v51.2z" />
<glyph unicode="&#xe90c;" glyph-name="dataconfig" d="M857.907 781.875c0-105.445-192.049-190.925-428.954-190.925s-428.954 85.48-428.954 190.925c0 105.445 192.049 190.925 428.954 190.925s428.954-85.48 428.954-190.925zM528.282 80.64c-30.054 7.68-52.531 32.154-58.214 62.106-13.568-0.614-27.29-0.922-41.114-0.922-236.954 0.051-428.954 85.453-428.954 190.976 0-44.032 0-73.472 0-145.971 0-105.472 192-190.925 428.954-190.925 34.099 0 67.072 1.946 98.918 5.325-13.824 24.474-14.438 54.682 0.41 79.411zM428.954 194.253c13.414 0 26.573 0.358 39.68 0.87v21.914c0 36.659 25.037 68.198 60.058 76.902-9.216 15.565-12.595 33.331-10.394 50.432-28.826-2.714-58.675-4.147-89.344-4.147-236.954-0.051-428.954 85.35-428.954 190.874 0-44.032 0-73.472 0-145.971 0.051-105.421 192-190.874 428.954-190.874zM428.954 392.602c42.342 0 83.251 2.816 121.907 7.936l32.051 32.051c15.36 15.411 35.686 23.245 56.115 23.245 13.773 0 27.546-3.584 39.987-10.854 9.062 34.56 40.397 59.187 76.698 59.187h59.494c1.075 0 2.15-0.256 3.174-0.256 25.088 24.218 39.424 51.149 39.424 79.616 0 38.758 0 79.155 0 145.971 0-105.472-192-190.925-428.954-190.925s-428.8 85.453-428.8 190.925c0-44.032 0-73.472 0-145.971 0-105.472 191.949-190.925 428.902-190.925zM1024 157.542v59.494l-70.81 11.571c-4.147 16.742-10.752 32.512-19.456 47.002l41.267 58.778-42.086 42.086-58.061-41.779c-14.49 8.755-30.362 15.462-47.206 19.661l-12.39 70.451h-59.494l-11.469-70.246c-16.896-4.147-32.87-10.701-47.36-19.405l-57.907 41.318-42.086-42.086 40.755-58.214c-8.858-14.592-15.565-30.515-19.763-47.514l-69.939-11.622v-59.494l69.888-12.39c4.147-16.998 10.854-32.973 19.763-47.565l-41.318-57.702 42.086-42.138 58.317 40.806c14.592-8.755 30.515-15.36 47.36-19.507l11.674-70.246h59.494l12.493 70.451c16.794 4.198 32.666 10.957 47.104 19.712l58.726-41.216 42.035 42.138-41.933 58.214c8.704 14.49 15.258 30.259 19.405 47.104l70.912 12.339zM785.971 103.834c-45.773 0-82.995 37.12-82.995 82.995 0 45.773 37.222 82.995 82.995 82.995 45.875 0 82.995-37.222 82.995-82.995 0-45.875-37.12-82.995-82.995-82.995z" />
<glyph unicode="&#xe90d;" glyph-name="log" d="M908.032 606.515h-24.576v118.682c0 0.717-0.102 1.485-0.205 2.253-0.051 4.71-1.536 9.318-4.762 13.005l-197.427 225.536c-0.051 0.051-0.102 0.102-0.154 0.154-1.178 1.331-2.56 2.406-3.994 3.328-0.41 0.307-0.87 0.512-1.331 0.768-1.28 0.666-2.611 1.229-3.942 1.69-0.358 0.102-0.717 0.256-1.075 0.358-1.536 0.307-3.072 0.512-4.659 0.512h-485.222c-22.118 0-40.141-18.022-40.141-40.141v-326.093h-24.576c-31.693 0-57.395-25.702-57.395-57.395v-298.445c0-31.693 25.702-57.395 57.395-57.395h24.576v-204.339c0-22.17 18.022-40.192 40.141-40.192h662.579c22.118 0 40.141 18.022 40.141 40.141v204.339h24.576c31.693 0 57.395 25.702 57.395 57.395v298.445c0.051 31.744-25.651 57.395-57.344 57.395zM180.685 932.659h465.152v-205.466c0-11.11 9.011-20.070 20.070-20.070h177.357v-100.608h-662.579v326.144zM593.562 406.118c0-89.242-54.118-143.309-133.632-143.309-80.742 0-128 60.979-128 138.496 0 81.562 52.070 142.541 132.403 142.541 83.61-0.051 129.229-62.618 129.229-137.728zM153.446 267.213v272.128h61.747v-220.467h108.237v-51.661h-169.984zM843.315-0.154h-662.63v193.434h662.579l0.051-193.434zM861.286 279.757c-18.995-6.451-54.886-15.309-90.829-15.309-49.664 0-85.606 12.493-110.643 36.71-25.037 23.398-38.758 58.982-38.349 98.918 0.41 90.47 66.202 142.131 155.443 142.131 35.123 0 62.157-6.912 75.52-13.312l-12.902-49.254c-14.95 6.451-33.485 11.725-63.386 11.725-51.251 0-90.061-29.082-90.061-88.013 0-56.115 35.123-89.242 85.606-89.242 14.131 0 25.446 1.587 30.259 3.994v56.934h-41.984v48.026h101.325v-143.309zM396.954 402.483c0-53.299 25.037-90.829 66.202-90.829 41.574 0 65.382 39.578 65.382 92.467 0 48.845-23.398 90.88-65.792 90.88-41.574-0.051-65.792-39.629-65.792-92.518z" />
<glyph unicode="&#xe90e;" glyph-name="personnel" d="M186.88 384.614h-68.864c-51.405 0-99.738 24.627-99.738 81.715 0 41.626-1.536 181.453 63.744 181.453 10.803 0 64.256-43.725 133.632-43.725 23.654 0 46.285 4.147 68.352 11.827-1.485-11.315-2.56-22.63-2.56-33.946 0-46.797 14.899-93.030 41.626-131.584-53.402-1.536-101.734-24.678-136.192-65.741zM215.706 647.782c-72.499 0-131.584 59.136-131.584 131.584s59.136 131.584 131.584 131.584c72.499 0 131.584-59.136 131.584-131.584s-59.085-131.584-131.584-131.584zM736.461-10.189h-449.331c-82.227 0-137.267 49.869-137.267 133.171 0 116.173 27.238 294.502 177.869 294.502 17.51 0 81.254-71.424 184.064-71.424s166.554 71.424 184.064 71.424c150.579 0 177.869-178.381 177.869-294.502-0.051-83.354-55.040-133.171-137.267-133.171zM511.795 384.614c-109.005 0-197.376 88.422-197.376 197.376s88.422 197.376 197.376 197.376 197.376-88.422 197.376-197.376-88.371-197.376-197.376-197.376zM807.885 647.782c-72.499 0-131.584 59.136-131.584 131.584s59.085 131.584 131.584 131.584 131.584-59.136 131.584-131.584-59.085-131.584-131.584-131.584zM905.574 384.614h-68.864c-34.458 41.114-82.79 64.205-136.243 65.792 26.726 38.554 41.626 84.838 41.626 131.584 0 11.315-1.075 22.63-2.56 33.946 22.118-7.68 44.698-11.827 68.352-11.827 69.376 0 122.829 43.725 133.632 43.725 65.28 0 63.744-139.827 63.744-181.453 0.051-57.139-48.282-81.766-99.686-81.766z" />
<glyph unicode="&#xe90f;" glyph-name="staff" d="M736.666 65.997h-449.331c-81.766 0-137.267 49.818-137.267 133.12 0 116.224 27.238 294.554 177.869 294.554 15.974 0 83.302-71.475 184.064-71.475s168.090 71.475 184.064 71.475c150.579 0 177.869-178.381 177.869-294.554-0.051-83.302-55.552-133.12-137.267-133.12zM512 460.8c-109.005 0-197.376 88.422-197.376 197.376s88.371 197.427 197.376 197.427 197.376-88.422 197.376-197.376-88.371-197.427-197.376-197.427z" />
<glyph unicode="&#xe910;" glyph-name="recruitment" d="M335.002 41.779v152.166l-233.216-37.786-10.138 62.618 41.472 6.451v577.126h-28.57v62.669h320.819v-62.72h-27.699v-533.76l35.072 6.451 10.138-63.539-45.21-7.424v-162.253h-62.669zM195.789 660.378h139.213v141.978h-139.213v-141.978zM195.789 455.731h139.213v141.978h-139.213v-141.978zM195.789 235.366l139.213 23.040v133.683h-139.213v-156.723zM932.352 363.52h-333.722l-19.354-73.728h230.451c54.426 0 99.533-45.158 99.533-99.533v-52.531c0-54.426-45.158-99.533-99.533-99.533h-200.96v62.669h200.96c20.275 0 35.942 15.718 35.942 36.915v52.531c0 21.197-15.667 36.864-35.942 36.864h-312.474l35.942 136.448h-89.446v62.669h488.602v-62.771zM563.61 462.182c-55.296 0-98.662 45.158-98.662 99.584v177.92c0 54.374 43.366 98.611 98.662 98.611h93.082v45.158h62.72v-45.158h94.054c53.453 0 97.69-44.237 97.69-98.611v-177.92c0-54.426-44.237-99.584-97.69-99.584h-249.856zM527.667 685.261h129.075v90.368h-93.082c-19.354 0-35.942-15.667-35.942-35.942v-54.426zM656.742 524.851v97.69h-129.075v-60.826c0-21.197 16.589-36.864 35.942-36.864h93.133zM719.411 775.629v-90.368h129.075v54.426c0 20.275-15.667 35.942-35.021 35.942h-94.054zM848.486 561.715v60.826h-129.075v-97.69h94.054c19.354 0 35.021 15.667 35.021 36.864z" />
<glyph unicode="&#xe911;" glyph-name="kpi" d="M407.296 228.454h-82.176l-174.592 211.2c-5.99 7.424-10.086 13.21-12.288 17.408h-1.536v-228.608h-60.006v464.691h60.006v-218.675h1.485c3.379 5.376 7.475 11.11 12.288 17.101l168.602 201.626h74.138l-195.021-222.925 209.101-241.818zM526.694 402.125v-173.722h-60.006v464.742h131.994c50.176 0 89.139-12.083 116.838-36.301s41.574-58.778 41.574-103.782c0-45.619-16.179-82.534-48.589-110.848s-72.909-41.626-121.498-40.038h-60.314zM526.694 640.358v-185.395h55.501c36.608 0 64.41 8.243 83.405 24.73s28.518 40.141 28.518 70.963c0 59.802-35.379 89.702-106.189 89.702h-61.235zM947.302 642.458h-44.698v-363.315h44.698v-50.688h-149.402v50.688h44.698v363.315h-44.698v50.688h149.402v-50.688z" />
<glyph unicode="&#xe912;" glyph-name="basicconfig" d="M945.050 972.8h-866.099c-57.498 0-104.55-47.053-104.55-104.55v-610.15c0-57.446 47.053-104.499 104.55-104.499h407.45v-153.6h-409.6v-51.2h870.4v51.2h-409.6v153.6h407.45c57.498 0 104.55 47.053 104.55 104.55v610.099c0 57.498-47.053 104.55-104.55 104.55zM998.4 206.95c0-0.922-1.178-2.15-2.15-2.15h-968.499c-0.973 0-2.15 1.178-2.15 2.15v712.499c0 0.973 1.178 2.15 2.15 2.15h968.55c0.922 0 2.099-1.178 2.099-2.15v-712.499zM747.315 756.787l-64.563-64.819-62.976 11.418-11.315 62.976 64.563 64.819c-14.49 14.49-35.174 21.146-50.534 20.326-15.411-0.819-48.333-9.472-73.83-36.557-24.678-26.061-50.637-74.598-27.648-128.563 2.765-6.502 5.837-15.104-3.328-24.218-9.267-9.165-245.709-231.731-245.709-231.731-22.17-19.098-20.582-54.374-0.102-74.957 20.787-20.48 55.859-21.709 74.957 0.358 0 0 220.774 235.162 231.629 245.811 9.728 9.472 18.381 6.298 24.218 3.328 40.704-21.043 98.611-2.765 128.666 27.29s35.533 59.085 36.454 73.933c1.024 14.694-4.147 34.253-20.48 50.586v0zM323.84 381.645c-7.219-7.066-18.842-7.066-25.958 0-7.066 7.219-7.066 18.842 0 25.958 7.219 7.066 18.842 7.066 25.958 0 7.066-7.219 7.066-18.893 0-25.958v0z" />
<glyph unicode="&#xe913;" glyph-name="training" d="M631.757 755.251c0-13.261-17.357-24.013-38.707-24.013h-369.101c-21.402 0-38.707 10.752-38.707 24.013v0c0 13.261 17.357 24.013 38.707 24.013h369.101c21.35 0 38.707-10.752 38.707-24.013v0 0zM408.474 604.877c0-13.261-17.357-24.013-38.707-24.013h-145.818c-21.402 0-38.707 10.752-38.707 24.013v0c0 13.261 17.357 24.013 38.707 24.013h145.818c21.35 0 38.707-10.752 38.707-24.013v0 0zM800.922 972.8h-577.843c-105.728 0-191.386-85.709-191.386-191.386v-241.664c0-105.677 85.709-191.386 191.386-191.386h265.421c-3.635-5.99-6.042-13.619-6.042-22.17v-88.474l-246.426-202.598c-10.189-8.397-11.674-23.603-3.277-33.792s23.603-11.674 33.792-3.277l215.91 177.51v-192.461c0-18.944 10.752-34.304 24.013-34.304s24.013 15.36 24.013 34.304v343.091c0 8.55-2.406 16.179-6.042 22.17h276.531c105.677 0 191.386 85.709 191.386 191.386v241.664c-0.051 105.677-85.709 191.386-191.437 191.386zM944.282 539.75c0-79.053-64.307-143.36-143.36-143.36h-577.843c-79.053 0-143.36 64.307-143.36 143.36v241.664c0 79.053 64.307 143.36 143.36 143.36h577.894c79.053 0 143.36-64.307 143.36-143.36v-241.664zM638.822 182.272c-11.008 7.322-26.010 4.25-33.28-6.758-7.322-11.008-4.25-26.010 6.758-33.28l203.776-135.117c11.008-7.322 26.010-4.25 33.28 6.758 7.322 11.008 4.25 26.010-6.758 33.28l-203.776 135.117z" />
<glyph unicode="&#xe914;" glyph-name="logmonitorsys" d="M29.85 891.238c-19.2 0 0 19.251 0 0v-614.4c0-19.2 0 0 0-51.2l139.315 0.87c10.547 0 20.378 4.762 27.034 12.851l194.048 240.589 88.576-73.114c14.131-11.725 34.97-10.24 47.514 3.174l172.237 185.805c16.742-10.24 36.403-16.026 57.498-16.026 61.133 0 110.95 49.715 110.95 110.95s-49.715 110.95-110.95 110.95c-61.133 0-110.95-49.715-110.95-110.95 0-14.746 2.867-28.877 8.243-41.779l-155.597-167.68-90.317 74.547c-7.066 5.939-16.333 8.653-25.6 7.782-9.216-0.819-17.613-5.478-23.552-12.698l-226.048-274.074h-51.2v563.2h870.4v-563.2h-460.8c-19.2 0 0 0-51.2 0v-204.8h-204.8c-19.2 0-42.547 3.635-42.547-15.565s15.462-34.714 34.662-34.714h466.33c19.2 0 34.662 15.462 34.662 34.714 0 19.2-13.107 15.565-32.307 15.565h-204.8v153.6h512v665.6h-972.8zM756.070 732.57c22.989 0 41.626-18.637 41.626-41.626s-18.637-41.626-41.626-41.626c-22.989 0-41.626 18.637-41.626 41.626 0.051 22.989 18.688 41.626 41.626 41.626v0 0zM756.070 732.57v0z" />
<glyph unicode="&#xe915;" glyph-name="trackmatch" d="M960.051 594.995l-34.099-31.232c10.24-38.861 14.694-79.002 13.261-119.757-8.243-231.117-206.643-412.621-442.317-404.531-235.622 8.090-420.659 202.701-412.416 433.869 8.243 231.117 206.643 412.621 442.266 404.531 27.392-0.922 54.477-4.71 81.101-10.752l36.147 33.075c-37.683 10.854-76.493 17.050-115.763 18.381-258.56 8.858-476.262-190.259-485.274-443.853s193.946-467.098 452.506-475.955c258.56-8.858 476.262 190.259 485.274 443.853 1.843 52.070-5.12 103.219-20.685 152.371v0 0zM701.747 530.227c6.758-17.254 11.059-35.43 12.749-54.17 9.779-109.568-73.165-206.592-184.934-216.166-111.718-9.574-210.586 71.782-220.365 181.402s73.165 206.592 184.883 216.166c24.73 2.099 49.459-0.307 73.114-6.81l-3.84 42.854c-23.808 5.018-48.333 6.656-72.909 4.557-134.554-11.571-234.445-128.358-222.669-260.301 11.776-131.994 130.816-229.99 265.37-218.419s234.496 128.307 222.72 260.301c-1.638 18.586-5.581 36.762-11.418 54.272l-42.701-3.686zM644.147 593.101l-122.931-120.525-9.472-0.102c-3.942 0-7.629-1.536-10.394-4.25-2.611-2.509-4.045-5.939-4.045-9.574 0-3.584 1.434-6.963 4.096-9.523 5.786-5.683 15.104-5.632 20.838-0.051 3.328 3.277 4.762 7.68 3.891 12.083l-2.355 12.39 120.678 118.374-0.41-0.051 0.102 1.229zM821.453 766.259l11.162 156.826-196.864-193.075-8.55-120.73-115.558-113.357c-9.677-0.051-19.302-3.635-26.675-10.906-14.848-14.541-14.848-38.144 0-52.685 14.848-14.592 38.912-14.541 53.76 0 9.216 9.062 12.698 21.606 10.445 33.28l112.23 110.080 123.136 8.448 196.813 193.075-159.898-10.957zM766.106 623.718l-96.717-6.605 6.758 94.874 107.264 105.216-6.758-94.874 96.717 6.605-107.264-105.216z" />
<glyph unicode="&#xe916;" glyph-name="exception" d="M857.907-4.608h-691.814c-59.955 0-113.664 31.027-143.616 82.893-29.952 51.917-29.952 113.92 0 165.837l345.907 599.142c30.003 51.917 83.661 82.944 143.616 82.944s113.613-31.027 143.616-82.893l345.907-599.142c29.952-51.917 29.952-113.92 0-165.837s-83.661-82.944-143.616-82.944zM408.013 820.429l-345.907-599.142c-21.709-37.632-21.709-82.534 0-120.064 21.709-37.632 60.57-60.058 103.987-60.058h691.814c43.418 0 82.278 22.426 103.987 60.058 21.709 37.581 21.709 82.483 0 120.064l-345.907 599.142c-21.709 37.53-60.57 60.006-103.987 60.006s-82.278-22.477-103.987-60.006v0zM486.4 733.645h51.149v-457.472h-51.149v457.472zM557.722 184.678c0-25.251-20.47-45.722-45.722-45.722s-45.722 20.47-45.722 45.722c0 25.251 20.47 45.722 45.722 45.722s45.722-20.47 45.722-45.722z" />
<glyph unicode="&#xe917;" glyph-name="ordertrack" d="M761.344-51.2h-561.101c-90.010 0-163.226 73.216-163.226 163.226v591.718c0 90.010 73.216 163.226 163.226 163.226h57.805c15.002 0 27.187-12.186 27.187-27.187s-12.186-27.187-27.187-27.187h-57.805c-60.006 0-108.8-48.794-108.8-108.8v-591.718c0-60.006 48.794-108.8 108.8-108.8h561.101c60.006 0 108.8 48.794 108.8 108.8v54.426c0 15.053 12.186 27.187 27.187 27.187s27.187-12.186 27.187-27.187v-54.426c0.051-90.061-73.165-163.277-163.174-163.277v0zM649.984 145.562c-31.181 0-60.672 13.619-80.947 37.427-116.787 136.704-256 326.195-256 452.813 0 185.805 151.142 336.998 336.947 336.998s336.998-151.194 336.998-336.998c0-126.618-139.213-316.211-256-452.864-20.378-23.757-49.869-37.376-80.998-37.376zM649.984 922.829c-158.259 0-287.027-128.768-287.027-287.027 0-85.658 88.934-238.899 244.070-420.403 21.504-25.344 64.358-25.293 85.965 0 155.085 181.453 244.019 334.746 244.019 420.403 0 158.259-128.768 287.027-287.027 287.027zM649.984 535.757c-71.782 0-130.202 58.368-130.202 130.202s58.419 130.202 130.202 130.202 130.202-58.368 130.202-130.202-58.419-130.202-130.202-130.202zM649.984 746.24c-44.237 0-80.23-35.994-80.23-80.23s35.994-80.23 80.23-80.23c44.237 0 80.23 35.994 80.23 80.23s-35.994 80.23-80.23 80.23zM338.944 280.883h-166.502c-9.216 0-16.64 11.213-16.64 24.986s7.475 24.986 16.64 24.986h166.502c9.216 0 16.64-11.213 16.64-24.986 0-13.824-7.475-24.986-16.64-24.986v0zM489.523 117.658h-317.85c-8.755 0-15.872 11.213-15.872 24.986s7.117 24.986 15.872 24.986h317.85c8.755 0 15.872-11.213 15.872-24.986 0.051-13.824-7.066-24.986-15.872-24.986v0z" />
<glyph unicode="&#xe918;" glyph-name="otherplatform" d="M413.389 972.8h-367.411c-25.446 0-45.978-20.531-45.978-45.875v-367.514c0-25.446 20.531-45.926 45.978-45.926h367.411c25.446 0 45.978 20.48 45.978 45.926v367.514c0 25.344-20.531 45.875-45.978 45.875zM408.32 600.218c0-19.763-15.974-35.738-35.738-35.738h-285.798c-19.814 0-35.738 15.974-35.738 35.738v285.798c0 19.763 15.974 35.738 35.738 35.738h285.798c19.763 0 35.738-15.923 35.738-35.738v-285.798zM418.509 411.341h-367.462c-25.395 0-45.926-20.48-45.926-45.875v-367.565c0-25.395 20.531-45.926 45.926-45.926h367.462c25.446 0 45.926 20.531 45.926 45.926v367.565c0 25.395-20.531 45.875-45.926 45.875zM413.389 38.81c0-19.814-15.974-35.738-35.738-35.738h-285.798c-19.763 0-35.738 15.974-35.738 35.738v285.798c0 19.814 15.974 35.738 35.738 35.738h285.85c19.763 0 35.738-15.974 35.738-35.738v-285.798zM974.848 411.341h-367.411c-25.498 0-45.978-20.48-45.978-45.875v-367.565c0-25.395 20.48-45.926 45.978-45.926h367.411c25.344 0 45.926 20.531 45.926 45.926v367.565c0.051 25.395-20.582 45.875-45.926 45.875zM969.728 38.81c0-19.814-15.923-35.738-35.789-35.738h-285.747c-19.866 0-35.789 15.974-35.789 35.738v285.798c0 19.814 15.974 35.738 35.789 35.738h285.747c19.866 0 35.789-15.974 35.789-35.738v-285.798zM791.091 972.8c-126.874 0-229.632-102.81-229.632-229.683 0-126.822 102.81-229.683 229.632-229.683 126.925 0 229.683 102.861 229.683 229.683 0.051 126.874-102.758 229.683-229.683 229.683zM791.091 564.48c-98.611 0-178.688 80.077-178.688 178.637 0 98.714 80.077 178.637 178.688 178.637 98.662 0 178.637-79.923 178.637-178.637 0-98.56-79.974-178.637-178.637-178.637z" />
<glyph unicode="&#xe919;" glyph-name="lazadalinio" d="M218.624 316.416v327.168h-42.445v-365.568h173.619c-7.987 16.794 9.626 38.4 9.626 38.4h-140.8zM603.802 643.994l16.026-38.4h178.432l-115.2-183.194c-5.581 5.581-25.651 11.213-25.651 11.213l-88.781 210.381h-38.4l-165.581-365.568 37.581-0.819 45.517 102.707c112.896 67.686 219.341 15.718 219.341 15.718l-63.232-98.406 7.987-19.2h206.438c-6.4 11.981 11.213 38.4 11.213 38.4h-167.987l186.419 297.574v29.594h-244.122zM465.408 427.981l84.019 177.562 67.994-160.768c0 0-96 15.206-152.013-16.794zM512 972.749c-282.675 0-512-229.222-512-512s229.325-512 512-512c282.829 0 512.051 229.222 512.051 512s-229.222 512-512.051 512zM512-12.8c-261.478 0-473.6 212.019-473.6 473.6 0 261.53 212.122 473.6 473.6 473.6 261.632 0 473.651-212.070 473.651-473.6 0-261.581-212.019-473.6-473.651-473.6z" />
<glyph unicode="&#xe91a;" glyph-name="cd" d="M434.995 194.458c-42.752-22.426-96.358-33.69-160.819-33.69-83.251 0-149.658 26.47-199.475 79.258-49.766 52.89-74.598 122.778-74.598 209.766 0 93.44 28.006 168.704 83.968 225.638 55.962 56.986 127.078 85.453 213.299 85.453 55.45 0 101.325-7.885 137.574-23.603v-78.336c-41.472 22.989-87.040 34.458-136.806 34.458-64.717 0-117.402-21.555-158.157-64.614-40.755-43.162-61.133-101.325-61.133-174.592 0-69.325 19.046-124.57 56.986-165.427 37.939-40.806 87.706-61.235 149.197-61.235 57.498 0 107.469 13.005 149.965 38.963v-72.038zM551.168 170.496v580.608h165.734c87.91 0 161.075-25.651 219.341-76.851 58.47-51.251 87.603-119.962 87.603-206.131 0-89.958-29.133-162.099-87.603-216.269-58.266-54.272-133.427-81.357-225.382-81.357h-159.693zM626.125 684.442v-447.59h84.326c73.728 0 131.277 20.173 172.646 60.365s62.054 96.614 62.054 169.011c0 72.448-21.248 126.976-63.693 163.43-42.496 36.506-98.355 54.733-167.578 54.733h-87.757z" />
<glyph unicode="&#xe91b;" glyph-name="pm" d="M71.782 383.488v-207.872h-71.782v556.032h157.901c60.109 0 106.701-14.438 139.827-43.469 33.126-28.928 49.766-70.349 49.766-124.16 0-54.579-19.405-98.816-58.214-132.71-38.758-33.792-87.194-49.766-145.408-47.872h-72.090zM71.782 668.518v-221.85h66.406c43.776 0 77.005 9.83 99.789 29.645 22.733 19.661 34.099 47.974 34.099 84.838 0 71.526-42.394 107.366-127.078 107.366h-73.216zM952.576 175.667v368.282c0 30.413 1.741 66.867 5.325 109.466h-1.741c-6.246-26.778-11.827-45.517-16.486-56.013l-183.45-421.734h-39.782l-183.040 418.56c-4.352 9.523-9.83 29.286-16.538 59.187h-2.15c2.406-25.856 3.584-63.437 3.584-112.691v-365.056h-68.608v555.981h97.28l163.994-381.184c12.493-29.133 20.685-51.968 24.781-68.198h2.509c12.493 34.202 21.197 57.446 26.266 69.632l166.861 379.75h92.621v-555.981h-71.424z" />
<glyph unicode="&#xe91c;" glyph-name="myproject" d="M22.528 600.627l435.098-282.778c30.003-19.507 78.694-19.558 108.8 0l435.098 282.778c30.003 19.558 29.901 51.2 0 70.707l-435.098 282.778c-30.106 19.507-78.797 19.558-108.8 0l-435.098-282.829c-30.106-19.558-30.003-51.2 0-70.656zM1001.626 470.63c-1.792 0-3.379-0.614-5.12-0.973l-8.397-3.942-419.277-272.538c-14.899-9.626-34.099-14.643-53.606-15.053-1.075-0.051-2.099 0.358-3.226 0.358-1.075 0-2.15-0.41-3.277-0.358-19.405 0.41-38.707 5.376-53.504 15.053l-419.277 272.538-8.499 3.942c-1.638 0.41-3.226 0.973-5.018 0.973-12.39 0-22.426-9.984-22.426-22.374 0-6.451 2.816-12.186 7.219-16.23l-0.205-0.307 448.205-291.277c15.411-10.035 35.686-15.002 56.013-15.002 0.307 0 0.512 0.102 0.768 0.102 0.205 0 0.512-0.102 0.819-0.102 20.224 0 40.499 4.966 56.013 15.002l448 291.584c4.25 4.045 7.168 9.779 7.168 16.23 0 12.39-10.086 22.374-22.374 22.374zM1001.626 298.035c-1.792 0-3.379-0.614-5.12-1.024l-8.397-3.942-419.277-272.538c-14.899-9.626-34.099-14.643-53.606-15.053-1.075-0.051-2.099 0.358-3.226 0.358-1.075 0-2.15-0.41-3.277-0.358-19.405 0.41-38.707 5.376-53.504 15.053l-419.277 272.538-8.499 3.942c-1.587 0.41-3.226 1.024-5.018 1.024-12.39 0-22.426-9.984-22.426-22.374 0-6.451 2.816-12.186 7.219-16.23l-0.205-0.307 448.205-291.277c15.411-10.035 35.686-15.002 56.013-15.002 0.307 0 0.512 0.102 0.768 0.102 0.205 0 0.512-0.102 0.819-0.102 20.224 0 40.499 4.966 56.013 15.002l448 291.584c4.25 4.045 7.168 9.779 7.168 16.23 0 12.39-10.086 22.374-22.374 22.374z" />
<glyph unicode="&#xe91d;" glyph-name="myproject1" d="M968.602 819.814h-458.752v101.99c0 28.211-22.784 50.995-50.995 50.995h-407.91c-28.16 0-50.944-22.784-50.944-50.995v-102.093c0.154 0 0.256 0.102 0.461 0.102-0.461-38.963-0.461-38.963-0.461-50.534v-765.645c0-28.006 23.040-50.534 51.149-50.534h917.453c28.211 0 51.098 22.528 51.098 50.534v765.645c0 27.904-22.886 50.534-51.098 50.534zM50.944 880.998c0 22.579 18.176 40.755 40.755 40.755h326.298c22.528 0 40.806-18.227 40.806-40.755v-61.184h-407.654c0 0-0.102 0-0.154 0v61.184zM968.704 48.691c0-24.678-20.582-44.595-45.926-44.595h-825.856c-25.242 0-45.978 19.917-45.978 44.595v675.533c0 24.678 20.736 44.646 45.978 44.646h825.856c25.293 0 45.926-19.968 45.926-44.646v-675.533zM815.77 607.949h-458.957c-13.978 0-25.446-11.418-25.446-25.498s11.469-25.498 25.446-25.498h458.906c14.080 0 25.498 11.418 25.498 25.498s-11.366 25.498-25.446 25.498zM254.925 607.949h-50.995c-14.131 0-25.498-11.418-25.498-25.498s11.366-25.498 25.498-25.498h50.995c14.029 0 25.446 11.418 25.446 25.498s-11.418 25.498-25.446 25.498zM815.77 411.955h-458.957c-13.978 0-25.446-11.418-25.446-25.446 0-14.080 11.469-25.498 25.446-25.498h458.906c14.080 0 25.498 11.418 25.498 25.498 0.051 14.029-11.366 25.446-25.446 25.446zM254.925 411.955h-50.995c-14.131 0-25.498-11.418-25.498-25.446 0-14.080 11.366-25.498 25.498-25.498h50.995c14.029 0 25.446 11.418 25.446 25.498 0 14.029-11.418 25.446-25.446 25.446zM815.77 216.013h-458.957c-13.978 0-25.446-11.418-25.446-25.498s11.469-25.498 25.446-25.498h458.906c14.080 0 25.498 11.418 25.498 25.498 0.051 14.080-11.366 25.498-25.446 25.498zM254.925 216.013h-50.995c-14.131 0-25.498-11.418-25.498-25.498s11.366-25.498 25.498-25.498h50.995c14.029 0 25.446 11.418 25.446 25.498s-11.418 25.498-25.446 25.498z" />
<glyph unicode="&#xe91e;" glyph-name="dataanalysis" d="M642.918 327.475v-360.192c0.205 0 0.307-0.102 0.512-0.102 197.683 0 357.888 160.307 357.888 357.99 0 0.768-0.102 1.485-0.102 2.304h-358.298zM1024.102 464.077h-0.512c-1.792 281.293-230.195 508.723-511.846 508.723-282.778 0-512-229.222-512-512s229.222-512 512-512c-0.205 0-0.41 0.051-0.614 0.051v51.2c-254.259 0.307-460.186 206.438-460.186 460.749 0 254.515 206.285 460.8 460.8 460.8 253.389 0 458.854-204.544 460.698-457.523h-460.749v-515.277c0.205 0 0.41-0.051 0.614-0.051 16.486 0 32.87 0.819 48.998 2.355l1.587 1.536v460.032h459.11c1.485 15.872 2.304 31.898 2.304 48.128 0 1.075-0.205 2.202-0.205 3.277z" />
<glyph unicode="&#xe91f;" glyph-name="businessreport" d="M779.315 680.192l-45.107-11.11c-0.102 0-0.205-0.051-0.307-0.051l-155.085-38.042c-15.821-3.789-25.6-19.814-21.709-35.584 3.891-15.821 19.917-25.498 35.686-21.709l86.016 21.043-120.678-199.168-214.118 129.843-145.101-239.206c-8.397-13.875-3.891-32.102 9.984-40.499s32-3.994 40.499 9.882l114.483 188.723 214.016-129.69 163.994 270.438 29.184-119.45c3.891-15.821 19.917-25.498 35.686-21.606 15.923 3.891 25.498 19.814 21.606 35.584l-49.050 200.602zM512 972.8c-282.778 0-512-229.222-512-512s229.222-512 512-512c282.778 0 512 229.222 512 512s-229.222 512-512 512zM512 0c-254.515 0-460.8 206.285-460.8 460.8s206.285 460.8 460.8 460.8 460.8-206.285 460.8-460.8-206.285-460.8-460.8-460.8z" />
<glyph unicode="&#xe920;" glyph-name="bi" d="M739.994 3.072h-459.315c-14.080 0-25.498-11.469-25.498-25.498 0-14.131 11.418-25.549 25.498-25.549h459.315c14.182 0 25.6 11.418 25.6 25.549 0 14.029-11.366 25.498-25.6 25.498zM459.264 552.602c27.29 6.758 40.858 27.187 54.426 40.755 13.67 13.67 20.429 33.997 20.429 61.184 0 27.341-6.81 54.528-33.997 74.854-20.378 20.531-47.667 27.29-88.422 27.29h-129.28v-435.456h129.28c40.755 0 74.854 13.568 101.99 33.997 27.238 20.378 40.909 54.426 40.909 88.474s-6.758 54.374-27.238 74.803c-13.67 20.429-40.806 34.099-68.096 34.099zM336.845 702.259h54.477c54.426 0 81.613-20.326 81.613-61.184 0-20.429-6.861-40.858-20.48-54.426-13.568-13.722-33.946-20.48-61.133-20.48h-54.477v136.090zM472.934 389.274c-13.67-13.619-40.858-20.429-68.096-20.429h-67.994v149.658h61.235c68.045 0 102.093-20.429 102.093-74.803 0-20.378-13.619-40.858-27.238-54.426zM602.214 709.12h40.909v-340.326h-40.909v-47.565h136.141v47.565h-40.858v340.326h40.858v47.565h-136.141zM969.728 972.8h-918.733c-28.16 0-50.995-22.886-50.995-51.046v-765.594c0-28.16 22.835-50.995 50.995-50.995h918.733c28.262 0 51.046 22.835 51.046 50.995v765.594c0.051 28.16-22.784 51.046-51.046 51.046zM969.728 201.216c0-24.832-20.531-45.056-45.978-45.056h-826.778c-25.446 0-45.978 20.224-45.978 45.056v675.482c0 24.883 20.531 45.056 45.978 45.056h826.778c25.446 0 45.978-20.173 45.978-45.056v-675.482z" />
<glyph unicode="&#xe921;" glyph-name="libreport" d="M542.259 188.467h-60.57c-23.603 0-28.621-4.966-28.621-28.57v-62.208c0-23.501 5.018-28.518 28.621-28.518h60.57c23.501 0 28.57 5.018 28.57 28.518v62.208c-1.741 23.603-6.656 28.57-28.57 28.57zM340.326 595.507h-60.416c-23.552 0-28.672-5.069-28.672-28.672v-62.157c0-23.552 5.12-28.621 28.672-28.621h60.416c23.654 0 28.57 5.069 28.57 28.621v62.157c-1.536 25.293-6.554 28.672-28.57 28.672zM340.326 392.090h-60.416c-23.552 0-28.672-5.171-28.672-28.723v-60.518c0-23.552 5.12-28.621 28.672-28.621h60.416c23.654 0 28.57 5.069 28.57 28.621v62.208c-1.536 21.914-6.554 27.034-28.57 27.034zM340.326 188.467h-60.416c-23.552 0-28.672-4.966-28.672-28.57v-62.208c0-23.501 5.12-28.518 28.672-28.518h60.416c23.654 0 28.57 5.018 28.57 28.518v62.208c-1.536 23.603-6.554 28.57-28.57 28.57zM683.571 69.222h60.467c23.552 0 28.57 5.018 28.57 28.518v62.208c-1.536 23.603-6.656 28.57-28.57 28.57h-60.467c-23.654 0-28.672-4.966-28.672-28.57v-62.208c0-23.552 5.018-28.518 28.672-28.518zM453.069 363.418v-60.518c0-23.552 5.018-28.621 28.621-28.621h60.57c23.501 0 28.57 5.069 28.57 28.621v62.208c-1.69 21.862-6.656 26.982-28.57 26.982h-60.57c-23.603 0-28.621-5.12-28.621-28.672zM1013.914 594.995l-482.304 372.634c-5.786 4.454-12.902 5.888-19.558 4.864-6.707 1.024-13.824-0.41-19.61-4.864l-482.406-372.634c-11.213-8.653-13.312-24.678-4.71-35.942 8.602-11.213 24.576-13.312 35.942-4.762l29.286 22.682 0.051-602.266c0-0.256-0.154-0.512-0.154-0.768 0-14.131 11.52-25.6 25.6-25.6h831.795c14.182 0 25.651 11.418 25.651 25.6v603.034l29.338-22.682c11.213-8.55 27.187-6.451 35.84 4.71 8.653 11.315 6.502 27.341-4.762 35.994zM902.195-0.41h-780.442v617.011l390.298 301.414 390.144-301.414v-617.011z" />
<glyph unicode="&#xe922;" glyph-name="customcomplaint" d="M234.854 817.152c-14.080 0-25.549-11.469-25.549-25.6v-481.331c-0.051-14.182 11.366-25.549 25.549-25.549s25.498 11.366 25.498 25.549l0.102 481.331c-0.102 14.131-11.52 25.6-25.6 25.6zM418.918 630.835c-14.131 0-25.549-11.469-25.549-25.549v-295.117c-0.051-14.182 11.366-25.549 25.498-25.549s25.549 11.366 25.549 25.549v295.168c0 14.080-11.418 25.498-25.498 25.498zM602.88 817.152c-14.131 0-25.549-11.469-25.549-25.6v-481.331c0-14.182 11.418-25.549 25.498-25.549 14.182 0 25.549 11.366 25.549 25.549l0.051 481.382c-0.051 14.080-11.418 25.549-25.549 25.549zM786.893 630.835c-14.080 0-25.498-11.469-25.498-25.549v-295.117c-0.102-14.182 11.315-25.549 25.498-25.549 14.131 0 25.498 11.366 25.498 25.549l0.051 295.168c-0.051 14.080-11.469 25.498-25.549 25.498zM970.752 972.8h-919.706c-28.211 0-51.046-22.733-51.046-50.688v-760.627c0-28.006 22.835-50.637 51.046-50.637h152.269l115.763-145.050c19.968-19.814 52.275-19.814 72.243 0l180.48 145.050h398.95c28.262 0 51.098 22.63 51.098 50.637v760.627c0 27.955-22.835 50.688-51.098 50.688zM970.752 206.234c0-24.627-20.582-44.749-46.029-44.749h-374.067l-63.078-53.811-100.608-82.227c-15.974-15.872-41.779-15.872-57.754 0l-97.075 135.68-75.776 0.358h-59.29c-25.446 0-46.029 20.122-46.029 44.749v671.078c0 24.73 20.582 44.8 46.029 44.8h827.597c25.446 0 46.029-20.070 46.029-44.8v-671.078z" />
<glyph unicode="&#xe923;" glyph-name="ae" d="M989.082 472.525l-357.786 363.315c-80.794 79.616-139.11 137.165-239.206 136.96h-162.714c-197.274 0-230.554-73.114-230.554-236.851v-173.619c0-91.597 17.766-118.579 87.245-186.214l403.354-394.445c45.158-43.93 130.662-43.725 175.565-0.205l324.506 316.058c22.682 21.914 35.686 53.606 35.686 87.091 0 33.741-13.158 65.638-36.096 87.91zM936.806 315.802l-285.594-277.35c-40.397-39.219-118.323-36.352-158.976 3.226l-350.925 353.28c-62.566 60.826-90.112 84.787-90.112 167.27l-1.075 146.227c0 147.354 29.952 213.146 207.462 213.146h146.432c90.112 0.154 125.389-61.389 198.093-133.069l334.694-335.974c20.582-20.070 28.979-27.29 28.979-57.651 0-30.106-8.602-59.392-28.979-79.104zM227.891 800c0-28.277-22.923-51.2-51.2-51.2s-51.2 22.923-51.2 51.2c0 28.277 22.923 51.2 51.2 51.2s51.2-22.923 51.2-51.2zM491.213 719.155l-377.293-171.366 39.219-38.912 101.12 49.101 114.483-113.51-46.438-103.066 39.219-38.912 167.731 378.931-38.042 37.734zM460.339 642.048l-71.834-155.546-92.314 91.494 154.573 73.472c6.042 2.97 13.926 7.834 23.347 14.848l0.922-0.87c-7.526-10.598-12.442-18.432-14.694-23.398zM401.254 263.117l147.968-146.586 31.181 31.488-112.486 111.309 91.699 92.57 98.406-97.485 31.078 31.437-98.406 97.434 87.296 88.115 106.189-105.267 31.334 31.693-141.722 140.39z" />
<glyph unicode="&#xe924;" glyph-name="aekpi" d="M989.696 610.97c-58.778 208.64-250.112 361.83-477.594 361.83s-418.867-153.088-477.645-361.779c-19.968-7.066-34.458-25.498-34.458-47.821v-204.8c0-26.112 19.866-46.797 45.056-50.022 54.067-150.426 178.278-266.906 333.466-310.221 0.973-27.341 23.194-49.357 50.842-49.357h165.325c28.314 0 51.2 22.886 51.2 51.2 0 28.211-22.886 51.2-51.2 51.2h-165.325c-9.011 0-16.998-3.021-24.371-7.014-146.176 36.096-263.68 144.179-312.986 284.826 6.093 8.397 10.394 18.176 10.394 29.389v204.8c0 15.309-7.066 28.672-17.664 37.99 54.118 185.037 224.819 320.41 427.366 320.41 202.496 0 373.146-135.322 427.264-320.358-10.65-9.37-17.766-22.733-17.766-38.042v-204.8c0-28.314 22.938-51.2 51.2-51.2s51.2 22.886 51.2 51.2v204.8c0 22.272-14.438 40.704-34.304 47.77zM717.414 609.997c-28.262 0-51.2-22.938-51.2-51.2 0-3.891 1.382-7.373 2.253-11.059l-90.010-90.010c-4.915 1.536-9.882 3.072-15.258 3.072-4.25 0-8.090-1.434-12.032-2.458l-65.587 65.587c0.102 1.178 0.666 2.202 0.666 3.379 0 28.262-22.938 51.2-51.2 51.2-1.178 0-2.202-0.614-3.379-0.666l-1.485 1.485-2.304-2.253c-24.678-3.635-44.032-24.013-44.032-49.766 0-4.71 1.485-8.909 2.662-13.21l-91.341-91.341c-4.454 1.28-8.858 2.765-13.722 2.765-28.262 0-51.2-22.886-51.2-51.2s22.938-51.2 51.2-51.2 51.2 22.886 51.2 51.2c0 2.355-1.024 4.301-1.331 6.554l96.666 96.666c2.406-0.358 4.557-1.434 7.066-1.434 5.99 0 11.571 1.536 16.896 3.43l61.696-61.696c-0.461-2.816-1.638-5.325-1.638-8.243 0-25.6 19.098-45.824 43.571-49.664l1.536-1.536 1.024 1.024c1.741-0.205 3.277-1.024 5.069-1.024 28.262 0 51.2 22.886 51.2 51.2 0 1.792-0.819 3.328-1.024 5.069l94.771 94.771c3.123-0.614 5.99-1.843 9.267-1.843 28.262 0 51.2 22.886 51.2 51.2 0 28.211-22.989 51.2-51.2 51.2z" />
<glyph unicode="&#xe925;" glyph-name="aecreatekpi" d="M998.4 128h-102.4v102.4c0 14.182-11.469 25.6-25.6 25.6s-25.6-11.418-25.6-25.6v-102.4h-102.4c-14.131 0-25.6-11.418-25.6-25.6 0-14.080 11.469-25.6 25.6-25.6h102.4v-102.4c0-14.080 11.469-25.6 25.6-25.6s25.6 11.52 25.6 25.6v102.4h102.4c14.131 0 25.6 11.52 25.6 25.6 0 14.182-11.469 25.6-25.6 25.6zM1024 870.4c0 56.576-45.875 102.4-102.4 102.4h-819.2c-56.525 0-102.4-45.824-102.4-102.4v-819.2c0-56.525 45.875-102.4 102.4-102.4l512 0.205c13.773 0.41 24.781 11.622 24.781 25.395 0 13.875-11.059 24.986-24.781 25.498v0.102h-471.040c-50.893 0-92.16 41.318-92.16 92.211v737.331c0 50.893 41.267 92.109 92.16 92.109h737.28c50.893 0 92.16-41.216 92.16-92.109v-471.142h0.051c0-0.102-0.051-0.102-0.051-0.205 0-14.182 11.469-25.6 25.6-25.6s25.6 11.418 25.6 25.6c0 0.102-0.051 0.102-0.051 0.205h0.051v512zM231.373 247.501c0-14.080 11.469-25.6 25.6-25.6s25.6 11.52 25.6 25.6h1.024c9.882 118.118 107.776 211.2 228.454 211.2 120.627 0 218.573-93.082 228.454-211.2h0.973c0-14.080 11.469-25.6 25.6-25.6s25.6 11.52 25.6 25.6c-8.755 128.819-104.038 233.779-228.198 257.28 58.88 21.555 101.12 77.517 101.12 143.821 0 84.787-68.813 153.6-153.6 153.6s-153.6-68.813-153.6-153.6c0-66.304 42.24-122.266 101.12-143.821-124.211-23.45-219.494-128.461-228.147-257.28zM409.6 648.602c0 56.474 45.875 102.4 102.4 102.4 56.627 0 102.4-45.926 102.4-102.4 0-56.627-45.773-102.4-102.4-102.4-56.525-0.051-102.4 45.773-102.4 102.4z" />
<glyph unicode="&#xe926;" glyph-name="detailtemplate" d="M409.6 972.851h-358.4c-28.314 0-51.2-22.886-51.2-51.2v-460.8c0-28.314 22.886-51.2 51.2-51.2h358.4c28.314 0 51.2 22.886 51.2 51.2v460.8c0 28.262-22.886 51.2-51.2 51.2zM409.6 502.733c0-23.142-17.818-41.933-39.885-41.933h-278.733c-21.965 0-39.782 18.79-39.782 41.933v376.986c0 23.142 17.818 41.882 39.782 41.882h278.682c22.118 0.051 39.936-18.739 39.936-41.882v-376.986zM972.8 512h-358.4c-28.314 0-51.2-22.886-51.2-51.2v-460.8c0-28.314 22.886-51.2 51.2-51.2h358.4c28.314 0 51.2 22.886 51.2 51.2v460.8c0 28.314-22.886 51.2-51.2 51.2zM972.8 41.882c0-23.091-17.818-41.882-39.885-41.882h-278.682c-22.016 0-39.834 18.79-39.834 41.882v376.986c0 23.245 17.818 41.933 39.782 41.933h278.682c22.118 0 39.936-18.688 39.936-41.882v-377.037zM409.6 307.2h-358.4c-28.314 0-51.2-22.886-51.2-51.2v-256c0-28.211 22.886-51.2 51.2-51.2h358.4c28.314 0 51.2 22.989 51.2 51.2v256c0 28.314-22.886 51.2-51.2 51.2zM409.6 36.608c0-20.224-17.818-36.608-39.782-36.608h-278.835c-21.965 0-39.782 16.384-39.782 36.608v182.886c0 20.122 17.818 36.506 39.782 36.506h278.784c22.016 0 39.834-16.384 39.834-36.506v-182.886zM972.8 970.701h-358.4c-28.314 0-51.2-22.938-51.2-51.2v-256c0-28.262 22.886-51.2 51.2-51.2h358.4c28.314 0 51.2 22.938 51.2 51.2v256c0 28.211-22.886 51.2-51.2 51.2zM972.8 700.058c0-20.173-17.818-36.608-39.782-36.608h-278.784c-22.016 0-39.782 16.384-39.782 36.608v182.886c0 20.173 17.818 36.557 39.782 36.557h278.784c22.016 0 39.782-16.384 39.782-36.557v-182.886z" />
<glyph unicode="&#xe927;" glyph-name="customersys" d="M989.696 611.021c-58.829 208.691-250.112 361.779-477.594 361.779s-418.867-153.088-477.645-361.779c-19.968-7.014-34.458-25.446-34.458-47.821v-204.8c0-26.112 19.866-46.797 45.056-49.971 61.85-172.083 215.654-299.93 402.381-324.25 13.722-21.248 37.427-35.379 64.563-35.379 42.445 0 76.8 34.355 76.8 76.8s-34.355 76.8-76.8 76.8c-38.349 0-69.786-28.109-75.622-64.819-160.666 27.597-291.635 140.902-344.422 291.379 6.144 8.499 10.445 18.227 10.445 29.44v204.8c0 15.309-7.066 28.672-17.664 37.99 54.118 185.088 224.819 320.41 427.366 320.41 202.496 0 373.146-135.322 427.264-320.307-10.701-9.37-17.766-22.733-17.766-38.093v-204.8c0-28.314 22.938-51.2 51.2-51.2s51.2 22.886 51.2 51.2v204.8c0 22.323-14.438 40.755-34.304 47.821z" />
<glyph unicode="&#xe928;" glyph-name="mailmanagement" d="M972.8 798.003h-921.6c-28.314 0-51.2-22.938-51.2-51.2v-614.4c0-28.211 22.886-51.2 51.2-51.2h921.6c28.314 0 51.2 22.989 51.2 51.2v614.4c0 28.262-22.886 51.2-51.2 51.2zM972.8 702.976v-526.694c0-8.909-3.43-16.691-8.192-23.603l-286.976 286.925 286.925 286.976c4.813-6.912 8.243-14.694 8.243-23.603zM912.384 746.803l-369.459-369.408c-18.022-18.125-46.49-18.688-63.59-1.587l-371.098 370.995h804.147zM58.061 154.675c-3.942 6.4-6.861 13.619-6.861 21.606v526.694c0 8.038 2.918 15.206 6.912 21.658l284.877-285.030-284.928-284.928zM108.134 132.403l271.104 271.104 94.925-94.925c19.968-20.019 52.378-20.122 72.397 0l94.925 94.925 271.053-271.104h-804.403z" />
<glyph unicode="&#xe929;" glyph-name="servicemanag" d="M1013.76 119.552l-32.87 24.934c0.205 3.021 0.41 6.093 0.41 9.37 0 3.328-0.102 6.502-0.307 9.523l31.488 24.064 0.922 0.768c10.598 9.165 13.261 23.962 6.502 35.942l-38.195 64.461c-5.069 8.858-14.643 14.336-25.037 14.336-3.226 0-6.4-0.563-9.523-1.536l-38.605-15.155c-5.734 3.789-11.52 7.117-17.306 9.882l-5.581 37.786c-1.587 13.926-13.875 24.73-28.416 24.73h-66.867c-51.763 33.741-109.978 58.266-172.339 71.475 102.963 41.83 175.616 142.746 175.616 260.813 0 155.494-126.003 281.6-281.549 281.6s-281.651-126.106-281.651-281.6c0-117.606 72.141-218.266 174.541-260.403-216.627-43.827-381.696-219.238-401.971-444.416-1.792-3.482-3.021-7.27-3.021-11.469 0-14.131 11.469-25.6 25.6-25.6h741.837c2.253 0 4.301 0.768 6.4 1.28 2.406-0.614 4.762-1.28 7.27-1.28h76.083c13.978 0 26.317 10.24 28.621 23.962l5.734 38.963c6.093 2.97 11.725 6.144 16.998 9.574l38.349-14.95c3.174-1.126 6.451-1.69 9.779-1.69 9.984 0 19.251 5.069 24.73 13.466l38.758 65.28c6.912 11.93 4.198 26.726-6.4 35.891zM281.651 690.944c0 127.181 103.219 230.4 230.451 230.4s230.349-103.219 230.349-230.4c0-127.232-103.117-230.4-230.349-230.4s-230.451 103.168-230.451 230.4zM511.539 390.246c87.706 0 169.472-24.883 239.206-67.43l-3.994-26.982c-6.093-2.97-11.827-6.195-17.203-9.626l-38.195 15.002c-3.174 1.075-6.451 1.69-9.728 1.69-10.035 0-19.251-5.069-24.781-13.517l-38.758-65.28c-6.963-12.493-3.891-27.853 7.526-36.762l31.846-24.32c-0.205-3.021-0.307-6.093-0.307-9.267 0-3.123 0.102-6.195 0.307-9.267l-32.819-25.088c-10.598-9.165-13.261-23.962-6.502-35.994l38.195-64.461c4.096-7.066 11.418-11.11 19.405-12.749v-2.355h0.051v2.355c1.894-0.41 3.584-1.485 5.581-1.485 3.277 0 6.451 0.563 9.523 1.536l38.605 15.104c5.734-3.789 11.52-7.066 17.357-9.83l1.69-11.418h-691.917c34.253 220.928 224.461 390.144 454.912 390.144zM952.832 45.875l-50.125 19.558-8.755-6.81c-7.27-5.734-16.589-10.957-27.546-15.616l-10.035-4.25-7.526-50.944h-59.392l-7.578 51.456-10.65 4.045c-9.267 3.43-18.278 8.55-27.546 15.565l-8.704 6.502-49.51-19.456-29.133 49.152 41.933 31.949-1.434 11.11c-0.666 5.171-0.973 10.291-0.973 15.718s0.307 10.598 0.973 15.718l1.434 11.11-41.933 32 29.133 49.152 49.51-19.456 8.704 6.502c7.885 5.888 17.408 11.264 28.262 15.872l10.035 4.198 7.475 50.995h58.982l7.526-51.507 10.752-3.994c9.216-3.482 18.227-8.602 27.494-15.565l8.704-6.502 49.51 19.456 29.133-49.152-42.598-32.461 2.304-11.776c0.819-4.198 1.126-8.806 1.126-14.541 0-5.069-0.666-10.138-1.331-15.718l-1.434-11.162 42.291-31.949-29.082-49.203zM826.675 205.056c-35.123 0-63.744-28.621-63.744-63.693 0-35.174 28.621-63.693 63.744-63.693s63.642 28.57 63.642 63.693c0.051 35.072-28.518 63.693-63.642 63.693zM826.675 116.429c-13.773 0-24.934 11.162-24.934 24.883 0 13.773 11.213 24.883 24.934 24.883s24.832-11.162 24.832-24.883c0.051-13.722-11.11-24.883-24.832-24.883z" />
<glyph unicode="&#xe92a;" glyph-name="reportsys" d="M972.8 972.8h-921.6c-28.314 0-51.2-22.938-51.2-51.2v-768c0-28.262 22.886-51.2 51.2-51.2h435.2v-102.4h-204.8c-14.080 0-25.6-11.469-25.6-25.6s11.52-25.6 25.6-25.6h460.8c14.182 0 25.6 11.469 25.6 25.6s-11.418 25.6-25.6 25.6h-204.8v102.4h435.2c28.314 0 51.2 22.938 51.2 51.2v768c0 28.262-22.886 51.2-51.2 51.2zM972.8 198.81c0-24.934-20.582-45.21-46.080-45.21h-829.44c-25.498 0-46.080 20.275-46.080 45.21v677.581c0 24.934 20.582 45.21 46.080 45.21h829.44c25.498 0 46.080-20.275 46.080-45.21v-677.581zM763.187 717.875l-197.632-197.632-90.522 90.522-0.307-0.307c-10.035 8.448-24.934 8.243-34.355-1.229l-217.242-217.242 0.307-0.307c-8.448-10.035-8.243-24.934 1.178-34.406s24.32-9.677 34.406-1.178l0.307-0.307 199.117 199.117 88.986-88.986c9.472-9.472 24.32-9.677 34.406-1.178l0.307-0.307 217.242 217.242c9.984 9.984 9.984 26.214 0 36.198s-26.214 9.984-36.198 0z" />
<glyph unicode="&#xe92b;" glyph-name="supplychain" d="M512 930.15l-166.4-247.501h328.55c-51.2 85.35-106.701 166.4-162.15 247.501v0zM0-4.25h273.050v273.050h-273.050v-273.050zM887.45 264.55c-76.8 0-136.55-59.75-136.55-136.55s59.75-136.55 136.55-136.55c76.8 0 136.55 59.75 136.55 136.55s-64 136.55-136.55 136.55v0zM614.4 200.55c-4.25 4.25-8.55 8.55-17.050 8.55-4.25 0-12.8-4.25-17.050-8.55-8.55-8.55-8.55-21.35 0-34.15l17.050-17.050h-230.4c-12.8 0-21.35-8.55-21.35-21.35s8.55-21.35 21.35-21.35h230.4l-17.050-17.050c-8.55-8.55-8.55-21.35 0-34.15 8.55-8.55 21.35-8.55 34.15 0l59.699 59.699c8.55 8.55 4.25 25.6-4.25 29.85l-55.501 55.552zM883.2 358.4l-115.2 196.25 25.6-8.55c29.85-8.499 42.65 34.15 12.8 42.701s-55.45 17.050-85.35 21.35c-12.8 0-21.35-8.55-21.35-21.35l-21.299-76.8c-8.55-29.85 34.15-42.65 42.65-12.8l8.55 25.6 115.2-196.25c12.8-21.35 55.45 4.25 38.4 29.85v0zM324.25 614.4c-8.499 0-17.050-4.25-21.299-12.8l-115.2-196.25-8.55 25.6c-4.25 8.55-12.8 17.050-21.35 17.050-12.8 0-25.6-12.8-21.35-29.85 8.55-25.6 12.8-51.2 21.35-76.8 4.25-8.55 17.050-17.050 29.85-17.050 25.6 8.55 76.8 21.35 76.8 21.35 29.85 8.55 17.050 51.2-12.8 42.65l-25.6-8.55 115.2 196.25c8.55 17.050 0.051 38.4-17.050 38.4v0z" />
<glyph unicode="&#xe92c;" glyph-name="warehouseledger" d="M451.686 720.794h-245.76c-17.050 0-30.771-13.722-30.771-30.72v-245.76c0-17.050 13.722-30.771 30.771-30.771h245.76c16.998 0 30.72 13.722 30.72 30.771v245.76c0 17.050-13.722 30.72-30.72 30.72zM431.206 485.325c0-11.418-9.114-20.48-20.48-20.48h-163.84c-11.315 0-20.48 9.114-20.48 20.48v163.789c0 11.418 9.216 20.48 20.48 20.48h163.789c11.418 0 20.48-9.114 20.48-20.48v-163.789zM818.125 720.794h-245.76c-17.050 0-30.771-13.722-30.771-30.72v-245.76c0-17.050 13.722-30.771 30.771-30.771h245.76c16.998 0 30.72 13.722 30.72 30.771v245.76c-0.051 17.050-13.773 30.72-30.72 30.72zM797.594 485.325c0-11.418-9.114-20.48-20.48-20.48h-163.789c-11.315 0-20.48 9.114-20.48 20.48v163.789c0 11.418 9.216 20.48 20.48 20.48h163.789c11.418 0 20.48-9.114 20.48-20.48v-163.789zM451.686 354.406h-245.76c-17.050 0-30.771-13.722-30.771-30.72v-245.76c0-17.050 13.722-30.771 30.771-30.771h245.76c16.998 0 30.72 13.722 30.72 30.771v245.76c0 16.998-13.722 30.72-30.72 30.72zM431.206 118.886c0-11.418-9.114-20.48-20.48-20.48h-163.84c-11.315 0-20.48 9.114-20.48 20.48v163.789c0 11.418 9.216 20.48 20.48 20.48h163.789c11.418 0 20.48-9.114 20.48-20.48v-163.789zM818.125 354.406h-245.76c-17.050 0-30.771-13.722-30.771-30.72v-245.76c0-17.050 13.722-30.771 30.771-30.771h245.76c16.998 0 30.72 13.722 30.72 30.771v245.76c-0.051 16.998-13.773 30.72-30.72 30.72zM797.594 118.886c0-11.418-9.114-20.48-20.48-20.48h-163.789c-11.315 0-20.48 9.114-20.48 20.48v163.789c0 11.418 9.216 20.48 20.48 20.48h163.789c11.418 0 20.48-9.114 20.48-20.48v-163.789zM972.8 819.2h-238.387v115.2c0 21.197-17.203 38.4-38.4 38.4s-38.4-17.203-38.4-38.4v-115.2h-291.226v115.2c0 21.197-17.203 38.4-38.4 38.4s-38.4-17.203-38.4-38.4v-115.2h-238.387c-28.314 0-51.2-22.938-51.2-51.2v-768c0-28.262 22.886-51.2 51.2-51.2h921.6c28.314 0 51.2 22.938 51.2 51.2v768c0 28.262-22.886 51.2-51.2 51.2zM972.8 45.21c0-24.934-20.582-45.21-46.080-45.21h-829.44c-25.498 0-46.080 20.275-46.080 45.21v677.581c0 24.934 20.582 45.21 46.080 45.21h829.44c25.498 0 46.080-20.275 46.080-45.21v-677.581z" />
<glyph unicode="&#xe92d;" glyph-name="wish" d="M987.136 598.835l-70.195-1.741c-87.296-11.981-77.158-124.979-77.158-124.979-6.81-101.171-53.043-123.392-53.043-123.392-135.424-42.803-113.152 73.677-113.152 73.677 51.456 107.93-61.542 111.309-61.542 111.309-118.221 5.12-101.12-111.309-101.12-111.309-25.702-83.968-58.266-77.158-58.266-77.158-118.221-22.272-95.949 58.266-95.949 58.266l22.272 166.144c18.893 83.968-34.253 92.621-34.253 92.621l-286.106 95.949c-75.418-20.634-56.525-118.221-56.525-118.221 30.822-37.683 205.619-78.899 205.619-78.899 1.741-29.030-22.272-167.885-22.272-167.885-5.171-142.131 114.739-171.264 114.739-171.264 116.48-66.867 265.626 35.994 265.626 35.994 27.29-46.234 137.011-58.368 137.011-58.368 186.675 1.741 270.643 139.725 270.643 139.725 35.942 52.224 46.336 192.768 46.336 192.768 20.48 63.283-32.666 66.765-32.666 66.765z" />
<glyph unicode="&#xe92e;" glyph-name="wishonsale" d="M621.722 614.912l-110.541-169.933-108.083 169.933h-66.202l138.803-222.413h-138.803v-45.978h146.125v-60.518h-146.125v-46.797h146.125v-136.294h56.371v136.294h147.712v46.797h-147.712v60.518h147.712v45.978h-140.39l140.39 222.413zM988.314 541.338l-358.298 367.616c-32.205 41.421-74.086 62.31-116.275 63.437v0.41c-0.666 0-1.126-0.205-1.741-0.205s-1.075 0.205-1.69 0.205v-0.41c-42.189-1.126-84.122-22.016-116.326-63.437l-358.298-367.616c-66.202-85.197-32-154.266 75.418-154.266h42.496v-386.048c0-28.314 22.886-51.2 51.2-51.2h614.4c28.314 0 51.2 22.886 51.2 51.2v386.048h42.496c107.418 0.051 141.619 69.069 75.418 154.266zM920.986 428.442h-101.786v-394.803c0-22.63-19.712-40.96-43.878-40.96h-526.643c-24.32 0-43.878 18.278-43.878 40.96l-0.614 394.803h-101.171c-59.494 8.806-76.339 56.013 6.093 130.406l306.278 308.634c26.624 34.816 61.491 52.326 96.614 52.941 35.123-0.614 69.888-18.125 96.614-52.89l306.278-308.634c82.432-74.445 65.587-121.651 6.093-130.458z" />
<glyph unicode="&#xe92f;" glyph-name="financialsys" d="M512 921.6c254.106 0 460.8-206.694 460.8-460.8s-206.694-460.8-460.8-460.8c-254.106 0-460.8 206.694-460.8 460.8s206.694 460.8 460.8 460.8zM512 972.8c-282.778 0-512-229.222-512-512s229.222-512 512-512c282.778 0 512 229.222 512 512s-229.222 512-512 512v0zM703.59 715.622c-11.622 7.936-27.648 4.915-35.584-6.707l-136.755-200.192h-26.317l-149.658 197.581c-8.55 11.213-24.678 13.414-35.891 4.915s-13.466-24.627-4.966-35.84l126.259-166.656h-54.118c-14.080 0-25.6-11.52-25.6-25.6s11.52-25.6 25.6-25.6h102.4v-99.123h-102.4c-14.080 0-25.6-11.52-25.6-25.6s11.52-25.6 25.6-25.6h102.4v-102.4c0-14.080 11.52-25.6 25.6-25.6s25.6 11.52 25.6 25.6v102.4h102.4c14.080 0 25.6 11.52 25.6 25.6s-11.52 25.6-25.6 25.6h-102.4v99.123h102.4c14.080 0 25.6 11.52 25.6 25.6s-11.52 25.6-25.6 25.6h-49.306l117.043 171.315c7.936 11.622 4.915 27.648-6.707 35.584z" />
<glyph unicode="&#xe930;" glyph-name="basicinfo" d="M62.515 833.331c0 29.184 16.794 54.733 42.189 69.786 10.189 5.99 21.76 10.342 34.15 12.595 6.195 1.126 12.595 1.69 19.149 1.69h834.714c17.306 0 31.283 12.134 31.283 27.699 0 15.053-13.978 27.699-31.283 27.699h-834.714c-87.091 0-158.003-62.669-158.003-139.469v-745.062c0-76.8 70.912-139.469 158.003-139.469h865.997v799.949h-865.997c-53.043 0.512-95.488 38.4-95.488 84.582zM961.485 4.198h-803.482c-6.554 0-12.954 0.614-19.149 1.741-12.39 2.253-23.962 6.656-34.099 12.698-25.395 15.155-42.189 40.806-42.189 69.632v634.266c26.778-18.022 59.699-28.211 95.437-28.211h803.43v-690.125zM432.742 431.872h-60.16c-15.667 0-28.467-12.8-28.467-28.467s12.8-28.467 28.467-28.467h113.818v-110.131h-113.818c-15.667 0-28.467-12.8-28.467-28.467s12.8-28.467 28.467-28.467h113.818v-113.766c0-15.667 12.8-28.467 28.416-28.467 15.667 0 28.467 12.8 28.467 28.467v113.766h113.766c15.667 0 28.467 12.8 28.467 28.467s-12.8 28.467-28.467 28.467h-113.766v110.131h113.766c15.667 0 28.467 12.8 28.467 28.467s-12.8 28.467-28.467 28.467h-54.784l130.048 190.362c8.806 12.902 5.478 30.72-7.424 39.526s-30.72 5.478-39.526-7.424l-151.962-222.464h-29.286l-166.298 219.494c-9.421 12.493-27.341 14.95-39.834 5.53-12.442-9.472-14.95-27.392-5.478-39.885l140.237-185.139z" />
<glyph unicode="&#xe931;" glyph-name="financialtreatment" d="M552.448 811.008c-9.267 6.349-22.016 3.942-28.314-5.325l-108.902-159.386h-20.941l-119.142 157.286c-6.758 8.96-19.61 10.701-28.518 3.942s-10.752-19.61-3.942-28.57l100.506-132.659h-43.11c-11.213 0-20.378-9.165-20.378-20.378s9.165-20.378 20.378-20.378h81.51v-78.899h-81.51c-11.213 0-20.378-9.165-20.378-20.378s9.165-20.378 20.378-20.378h81.51v-81.51c0-11.213 9.165-20.378 20.378-20.378s20.378 9.165 20.378 20.378v81.51h81.51c11.213 0 20.378 9.165 20.378 20.378s-9.165 20.378-20.378 20.378h-81.51v78.95h81.51c11.213 0 20.378 9.165 20.378 20.378s-9.165 20.378-20.378 20.378h-39.27l93.184 136.397c6.349 9.216 3.942 21.965-5.325 28.262zM85.709 918.886h592.845v-44.339c0-35.021 28.416-63.437 63.437-63.437h98.253v-377.242h53.914v381.44l-202.547 157.491h-605.901c-29.645 0-53.914-24.269-53.914-53.914v-862.31c0-29.645 24.269-53.914 53.914-53.914h377.242v53.914h-377.242v862.31zM988.877 128.614l-43.776 73.779c0 2.304-2.304 2.304-2.304 4.608l-2.304 2.304c-2.304 0-2.304 2.304-4.608 2.304s-2.304 2.304-4.608 2.304-2.304 0-4.608 0c-2.304 0-2.304 0-4.608 0s-2.304 0-4.608-2.304c-2.304 0-2.304 0-4.608-2.304l-73.779-46.080c-11.52-6.912-13.824-20.736-6.912-32.256 4.608-6.912 11.52-11.52 20.736-11.52 4.608 0 9.216 0 11.52 2.304l25.344 16.128c-13.824-82.995-82.995-145.203-170.598-145.203-64.563 0-124.467 36.864-154.419 94.515-6.912 11.52-20.736 16.128-29.952 9.216-11.52-2.304-16.128-16.128-9.216-27.648 36.864-73.882 112.896-119.962 193.587-119.962 108.339 0 198.246 78.387 214.374 182.118l16.128-27.648c4.608-6.912 11.52-11.52 20.736-11.52 4.608 0 6.912 0 11.52 2.304 9.267 9.165 13.875 23.040 6.963 34.56zM530.125 158.566l2.304-2.304c2.304-2.304 6.912-2.304 9.216-2.304s4.608 0 9.216 2.304c0 0 2.304 0 2.304 2.304 2.304 0 4.608 2.304 4.608 2.304l62.259 59.955c9.216 9.216 9.216 23.040 0 32.256s-23.040 9.216-32.256 0l-27.648-25.344c9.216 87.603 85.299 154.419 172.902 154.419 64.563 0 124.467-36.864 152.115-96.819 4.608-11.52 18.432-16.128 29.952-11.52s16.128 18.432 11.52 29.952c-36.864 73.779-110.643 119.859-193.638 122.163h-2.304c-110.643 0-200.55-82.995-216.678-189.030l-11.52 20.736c-9.216 9.216-23.040 9.216-32.256 2.304-9.216-9.216-9.216-23.040-2.304-32.256l57.651-64.563c2.253-2.253 2.253-2.253 4.557-4.557z" />
<glyph unicode="&#xe932;" glyph-name="fixedassets" d="M870.605 438.221c-4.762 0-9.472-2.253-12.339-6.502l-79.77-116.787h-15.36l-87.296 115.251c-2.918 3.891-7.424 5.888-11.93 5.888-3.123 0-6.298-0.973-9.011-3.021-6.554-4.966-7.834-14.387-2.867-20.941l73.626-97.229h-31.59c-8.243 0-14.95-6.707-14.95-14.95s6.707-14.95 14.95-14.95h59.75v-57.856h-59.75c-8.243 0-14.95-6.707-14.95-14.95s6.707-14.95 14.95-14.95h59.75v-59.75c0-8.192 6.707-14.95 14.95-14.95 8.192 0 14.95 6.707 14.95 14.95v59.75h59.75c8.243 0 14.95 6.707 14.95 14.95s-6.707 14.95-14.95 14.95h-59.75v57.856h59.75c8.243 0 14.95 6.707 14.95 14.95s-6.707 14.95-14.95 14.95h-28.877l68.301 99.942c4.608 6.81 2.867 16.128-3.891 20.736-2.56 1.792-5.53 2.662-8.397 2.662zM770.048 534.374c-140.032 0-253.952-113.92-253.952-253.952s113.92-253.952 253.952-253.952c140.032 0 253.952 113.92 253.952 253.952s-113.92 253.952-253.952 253.952zM770.048 72.653c-114.739 0-207.77 93.030-207.77 207.77s93.030 207.77 207.77 207.77c114.739 0 207.77-93.030 207.77-207.77s-93.030-207.77-207.77-207.77zM345.958 817.92h-113.408v-170.138l113.408 113.408zM232.55 506.266l329.011 311.398 255.13-264.448 40.858 39.373-294.246 304.998-12.493-12.032-550.81-521.318h82.483l93.389 88.371v-428.595h396.954v56.678h-340.275z" />
<glyph unicode="&#xe933;" glyph-name="reimburse" d="M1020.365 444.467c-7.526 18.739-25.446 30.771-45.619 30.771h-115.2v390.502c0 51.814-42.189 93.952-94.003 93.952h-507.136c-51.814 0-94.003-42.138-94.003-93.952v-390.502h-115.2c-20.122 0-38.042-12.032-45.619-30.771-7.526-18.688-3.072-39.834 11.469-53.811l406.016-391.782c25.498-24.627 58.214-36.966 90.931-36.966s65.434 12.339 90.931 36.966l406.016 391.782c14.541 13.978 18.995 35.123 11.418 53.811zM569.088 33.946c-32-30.874-82.125-30.874-114.125 0l-405.709 392.55h163.942v439.245c0 24.934 20.275 45.21 45.261 45.21h507.136c24.934 0 45.261-20.275 45.261-45.21v-439.245h163.942l0.307-0.768-406.016-391.782zM647.987 721.203l-119.245-174.541h-22.938l-130.458 172.237c-7.424 9.779-21.504 11.725-31.283 4.301s-11.725-21.504-4.301-31.283l110.080-145.254h-47.206c-12.288 0-22.323-10.035-22.323-22.323s10.035-22.323 22.323-22.323h89.293v-86.426h-89.293c-12.288 0-22.323-10.035-22.323-22.323s10.035-22.323 22.323-22.323h89.293v-89.293c0-12.288 10.035-22.323 22.323-22.323s22.323 10.035 22.323 22.323v89.293h89.293c12.288 0 22.323 10.035 22.323 22.323s-10.035 22.323-22.323 22.323h-89.293v86.426h89.293c12.288 0 22.323 10.035 22.323 22.323s-10.035 22.323-22.323 22.323h-42.957l102.042 149.35c6.912 10.138 4.301 24.115-5.837 31.027-10.24 6.912-24.166 4.301-31.13-5.837z" />
<glyph unicode="&#xe934;" glyph-name="docsys" d="M972.8 870.4h-921.6c-28.262 0-51.2-22.938-51.2-51.2v-716.851c0-28.314 22.938-51.149 51.2-51.149h921.6c28.314 0 51.2 22.835 51.2 51.149v716.851c0 28.262-22.886 51.2-51.2 51.2zM972.8 102.349h-921.6v716.851h921.6v-716.851zM175.155 665.6h212.838c11.981 0 21.606 11.469 21.606 25.6s-9.626 25.6-21.555 25.6h-212.89c-11.93 0-21.555-11.469-21.555-25.6s9.626-25.6 21.555-25.6zM175.155 512h212.838c11.981 0 21.606 11.469 21.606 25.6s-9.626 25.6-21.555 25.6h-212.89c-11.93 0-21.555-11.469-21.555-25.6s9.626-25.6 21.555-25.6zM175.155 358.4h212.838c11.981 0 21.606 11.469 21.606 25.6s-9.626 25.6-21.555 25.6h-212.89c-11.93 0-21.555-11.469-21.555-25.6s9.626-25.6 21.555-25.6zM175.155 204.8h212.838c11.981 0 21.606 11.469 21.606 25.6s-9.626 25.6-21.555 25.6h-212.89c-11.93 0-21.555-11.469-21.555-25.6s9.626-25.6 21.555-25.6zM542.208 204.8h297.984c16.589 0 30.208 11.52 30.208 25.6 0 14.182-13.619 25.6-30.208 25.6h-297.984c-16.64 0-30.208-11.418-30.208-25.6 0-14.080 13.568-25.6 30.208-25.6zM565.811 553.421c-0.717-5.632-1.178-11.571-1.178-17.408s0.512-11.725 1.178-17.408l-37.478-29.286c-3.277-2.662-4.198-7.475-2.099-11.366l35.482-61.44c2.15-3.891 6.963-5.325 10.854-3.891l44.186 17.818c9.216-7.117 19.098-13.005 30.003-17.408l6.707-47.104c0.512-4.301 4.301-7.526 8.704-7.526h71.117c4.403 0 8.090 3.226 8.704 7.526l6.707 47.104c10.803 4.403 20.787 10.496 30.003 17.408l44.186-17.818c4.096-1.587 8.704 0 10.803 3.891l35.584 61.44c2.099 3.891 1.178 8.704-2.202 11.366l-37.376 29.286c0.717 5.683 1.178 11.418 1.178 17.408 0 6.042-0.512 11.725-1.178 17.408l37.376 29.286c3.43 2.662 4.301 7.475 2.202 11.418l-35.584 61.389c-2.099 3.891-6.912 5.325-10.803 3.891l-44.186-17.766c-9.216 7.117-19.2 13.005-30.003 17.408l-6.707 47.053c-0.614 4.301-4.301 7.475-8.704 7.475h-71.117c-4.403 0-8.192-3.174-8.704-7.475l-6.707-47.053c-10.906-4.403-20.787-10.445-30.003-17.408l-44.186 17.766c-4.096 1.587-8.704 0-10.854-3.891l-35.482-61.389c-2.304-3.942-1.178-8.755 2.099-11.418l37.478-29.286zM697.702 598.17c34.304 0 62.208-27.853 62.208-62.157 0-34.253-27.904-62.157-62.208-62.157-34.202 0-62.106 27.904-62.106 62.157 0 34.304 27.904 62.157 62.106 62.157z" />
<glyph unicode="&#xe935;" glyph-name="shipdocorder" d="M915.968 869.888l-147.968 0.512v53.658c0 26.88-21.76 48.742-48.691 48.742h-414.618c-26.88 0-48.691-21.862-48.691-48.742l2.048-54.17h-156.16c-26.829 0-50.688-14.541-50.688-44.902v-836.096c0-19.712 16.589-40.090 43.418-40.090h819.302c26.829 0 58.88 14.643 58.88 34.355v836.045c0 30.413-30.003 50.688-56.832 50.688zM307.2 819.2v102.4h409.6v-153.6h-409.6v51.2zM921.6 0h-819.2v819.2h153.6v-53.658c0-26.829 21.811-48.742 48.64-48.742h414.669c26.931 0 48.691 21.914 48.691 48.742v53.658h153.6v-819.2zM205.466 516.25h-0.666v-299.418l283.75-142.131 330.65 130.099v307.2l-314.010 153.6-299.725-149.35zM460.8 153.6l-204.8 102.4v204.8l204.8-102.4v-204.8zM279.603 515.891l99.379 48.691 229.786-110.49-103.322-49.664-225.843 111.462zM768 256l-256-102.4v204.8l256 101.274v-203.674zM645.069 473.395l-226.816 112.435 86.938 43.469 225.894-112.742-86.016-43.162z" />
<glyph unicode="&#xe936;" glyph-name="joomorder" d="M972.8 870.4h-921.6c-28.262 0-51.2-22.938-51.2-51.2v-716.851c0-28.314 22.938-51.149 51.2-51.149h921.6c28.314 0 51.2 22.835 51.2 51.149v716.851c0 28.262-22.886 51.2-51.2 51.2zM972.8 102.349h-921.6v716.851h921.6v-716.851zM222.72 577.126v115.558h-22.272v-113.766c0-33.843-11.776-42.803-31.795-42.803-7.424 0-14.080 1.536-18.688 3.277l-3.328-18.074c5.632-2.355 15.616-4.096 23.808-4.096 29.747 0 52.275 14.029 52.275 59.904zM327.219 517.222c44.083 0 80.179 31.488 80.179 90.931 0 51.251-30.515 87.398-77.67 87.398-46.131 0-80.179-35.891-80.179-90.675 0-52.326 32.051-87.654 77.67-87.654zM328.704 677.325c37.171 0 55.091-35.891 55.091-70.246 0-39.219-19.968-71.782-55.347-71.782-35.123 0-55.091 33.075-55.091 69.99 0 37.939 18.483 72.038 55.347 72.038zM503.552 517.222c44.083 0 80.23 31.488 80.23 90.931 0 51.251-30.515 87.398-77.67 87.398-46.131 0-80.179-35.891-80.179-90.675 0-52.326 32-87.654 77.619-87.654zM505.088 677.325c37.171 0 55.091-35.891 55.091-70.246 0-39.219-20.019-71.782-55.347-71.782-35.123 0-55.091 33.075-55.091 69.99 0 37.939 18.483 72.038 55.347 72.038zM633.856 594.074c1.485 25.907 2.816 54.835 3.277 76.39h0.512c4.915-20.48 11.776-42.803 20.019-67.174l27.955-82.227h16.896l30.515 83.763c8.704 23.808 15.923 45.363 21.76 65.587h0.819c-0.256-21.504 1.28-50.483 2.56-74.598l4.352-75.827h21.811l-10.752 172.698h-28.467l-30.771-83.507c-7.68-21.76-13.824-40.755-18.176-58.163h-0.768c-4.403 17.971-10.24 36.915-17.459 58.163l-29.44 83.507h-28.467l-12.032-172.698h21.248l4.608 74.086zM844.8 256h-665.6c-14.131 0-25.6-11.469-25.6-25.6s11.469-25.6 25.6-25.6h665.6c14.131 0 25.6 11.469 25.6 25.6s-11.469 25.6-25.6 25.6zM153.6 332.8c0-14.131 11.469-25.6 25.6-25.6h665.6c14.131 0 25.6 11.469 25.6 25.6s-11.469 25.6-25.6 25.6h-665.6c-14.131 0-25.6-11.469-25.6-25.6z" />
<glyph unicode="&#xe937;" glyph-name="amazon" d="M555.264 646.605c-59.75-8.090-120.32-13.466-178.586-27.955-101.581-25.242-193.638-96.461-179.046-249.242 11.366-119.245 99.891-168.909 198.912-166.298 72.294 1.946 134.656 28.518 183.706 83.149 10.496 11.725 18.022 8.806 27.136-2.56 17.050-21.197 34.509-42.24 53.658-61.44 17.203-17.254 25.242-16.384 44.39-0.051 25.856 22.067 51.251 44.544 76.8 66.918 22.221 19.405 23.398 24.576 4.71 47.36-29.235 35.635-42.547 75.674-40.909 121.805 1.434 41.267 0.307 82.586 0.307 123.904-1.126 0-2.355 0-3.533 0 0 57.856 2.355 115.866-0.614 173.568-3.226 62.822-36.198 109.363-92.467 137.114-96.973 47.77-196.352 47.36-295.68 8.346-72.038-28.314-116.736-81.613-134.042-157.389-4.506-19.712 0.051-27.034 20.224-29.798 32.87-4.506 66.15-6.861 98.662-13.107 19.354-3.686 30.362 2.406 34.97 19.558 13.773 51.507 50.125 75.776 99.84 80.486 38.093 3.635 87.245-11.366 95.898-64.256 3.84-23.398 2.56-47.616 4.301-71.424 1.024-14.234-5.581-16.896-18.637-18.688zM573.85 537.498c-0.666-12.646-0.154-25.293-0.154-42.65 2.355-40.858-4.762-84.122-31.078-122.675-24.166-35.482-57.242-52.736-100.403-48.691-35.123 3.328-60.467 32.41-67.226 76.134-11.418 73.728 33.69 135.834 107.366 146.637 24.883 3.686 50.074 5.376 75.162 7.731 11.878 1.126 16.896-4.506 16.333-16.486zM864.41 165.683c-5.683-1.69-11.162-4.301-16.691-6.605-95.642-39.629-194.15-66.816-297.779-76.902-96.87-9.421-190.566 2.099-279.296 39.373-74.65 31.386-146.022 70.707-218.726 106.803-11.418 5.632-22.579 10.957-31.488-2.611-8.55-13.056-1.229-22.784 8.858-30.874 39.526-31.488 77.926-64.717 119.142-93.85 99.789-70.605 208.384-117.504 333.619-114.381 16.64 0 33.485-1.638 49.92 0.256 103.424 12.083 201.523 41.728 292.352 93.338 22.528 12.8 44.442 27.085 64.512 43.418 6.707 5.427 11.264 20.429 8.755 28.723-4.403 14.49-18.637 17.562-33.178 13.312zM985.651 267.827c-27.187 3.686-56.013 6.861-82.483 1.843-27.904-5.222-54.426-19.558-80.486-31.949-5.222-2.458-9.779-15.77-7.629-21.402 1.997-5.376 13.261-10.445 20.275-10.24 21.862 0.666 43.622 3.84 65.382 6.042 0.051-0.461 0.102-0.922 0.154-1.331 7.322 0 14.643 0.051 21.965 0 27.238-0.358 30.771-4.096 23.757-30.771-6.912-26.317-15.053-52.275-23.808-78.029-3.789-11.059-6.4-20.838 4.608-28.365 11.981-8.090 19.814 0.87 27.494 8.294 41.523 40.192 57.958 91.443 62.31 147.149 1.69 22.682-7.834 35.482-31.539 38.758z" />
<glyph unicode="&#xe938;" glyph-name="unsoldgoods" d="M898.765 940.186c-13.619 20.378-36.506 32.614-60.928 32.614h-653.466c-24.474 0-47.36-12.237-60.928-32.614l-123.699-186.726v-731.904c0-40.243 32.973-73.216 73.165-73.216h878.131c40.192 0 73.216 32.973 73.216 73.216v731.904l-125.491 186.726zM951.040 21.555h-878.131v658.739h878.131v-658.739zM72.909 753.459l107.059 145.664 666.112 0.563 104.96-146.227h-878.131zM442.726 347.546c1.126-9.011 1.69-30.464 1.69-49.562v-120.013c0-22.528-1.126-50.688-3.379-81.715h47.923v82.278h170.086v-16.896c0-22.579-3.942-25.395-56.32-22.579 11.264-21.914 15.77-35.379 18.022-51.814 78.848 11.315 81.715 19.2 81.715 64.205v146.534c0 19.098 0.563 40.55 1.075 49.562-19.149-1.69-68.71-2.867-129.536-2.867-63.642 0-110.387 1.178-131.277 2.867zM659.046 210.688h-170.086v33.792h170.086v-33.792zM659.046 276.019h-170.086v36.096h170.086v-36.096zM371.2 393.728c-26.47 15.77-63.078 38.861-86.733 56.32l-25.907-39.987c25.344-11.827 64.205-39.987 85.606-59.187l27.034 42.854zM344.166 194.355c18.022 53.504 25.344 73.267 32.102 87.859-16.333 6.195-32.102 16.896-45.056 31.539-7.322-30.464-18.022-64.768-29.286-93.491-16.333-41.165-27.034-61.952-43.93-85.658 19.712-9.472 37.734-21.914 55.194-37.12 9.574 32.102 20.275 65.331 30.976 96.87zM550.912 478.208c-42.803 0.614-93.491 3.43-115.507 6.195v-43.366c20.838 2.816 71.526 5.632 115.456 6.195v-38.861c-56.883 1.075-134.042 3.942-157.133 6.758v-45.056c29.85 3.891 124.467 5.581 180.787 5.581 56.371 0 149.862-1.69 180.275-5.581v45.056c-24.73-3.379-104.192-6.195-160.512-6.758v38.861c47.309-0.563 103.066-3.379 126.157-6.195v43.366c-23.091-2.816-78.848-5.069-126.157-6.195v41.165c52.326-0.563 121.088-3.379 144.742-6.195v45.619c-23.654-2.816-92.416-6.195-144.742-6.758v18.022c0 6.758 1.638 16.896 5.069 20.275 6.195 5.632 5.069 9.574-1.69 9.011-17.459-1.69-36.045-0.563-48.435 1.69 1.126-9.574 1.69-23.091 1.69-48.998-49.562 1.126-112.077 3.942-133.53 6.758v-45.619c20.838 2.816 83.968 5.069 133.478 6.195v-41.165zM368.384 475.955l32.666 39.987c-23.654 20.838-57.446 47.309-84.48 67.584l-29.286-35.43c27.597-15.821 56.32-41.677 81.101-72.141z" />
<glyph unicode="&#xe939;" glyph-name="newchic" d="M535.962 168.96h-90.829l-298.496 461.824c-8.448 13.005-15.206 25.907-20.326 38.707h-2.304c2.048-13.312 3.072-41.011 3.072-83.149v-417.382h-75.878v593.613h96.205l290.509-453.786c13.824-21.453 21.965-35.123 24.525-41.011h1.536c-2.56 16.896-3.84 45.722-3.84 86.63v408.166h75.878v-593.613zM972.39 188.109c-32.461-19.405-71.526-29.133-117.197-29.133-61.338 0-110.694 19.712-147.968 59.034-37.274 39.27-55.962 90.266-55.962 152.883 0 69.478 20.173 125.491 60.416 168.038 40.192 42.547 94.054 63.795 161.485 63.795 38.861 0 72.038-6.912 99.635-20.685v-74.342c-29.85 21.965-63.13 32.973-99.635 32.973-42.906 0-77.875-14.899-104.806-44.646s-40.397-69.427-40.397-118.989c0-48.794 12.698-86.989 38.144-114.586 25.395-27.597 59.699-41.421 102.861-41.421 36.557 0 71.014 12.032 103.475 35.994v-68.915z" />
<glyph unicode="&#xe93a;" glyph-name="financialstatement" d="M998.4 5.683h-941.517v941.517c0 14.080-11.52 25.6-25.6 25.6h-5.683c-14.080 0-25.6-11.52-25.6-25.6v-972.8c0-14.080 11.52-25.6 25.6-25.6h972.8c14.080 0 25.6 11.52 25.6 25.6v5.683c0 14.080-11.52 25.6-25.6 25.6zM445.030 505.498l81.818-108.493 325.53 245.504 47.258-62.618 45.517 165.376-171.52 1.69 51.507-68.25-289.382-218.266-81.869 108.493-289.331-218.214 27.29-36.198z" />
<glyph unicode="&#xe93b;" glyph-name="legalsys" d="M212.992 303.565c-13.107 12.8-31.13 20.838-50.944 20.838-19.354 0-37.325-8.090-50.381-20.838v-0.563c-13.107-12.544-21.094-30.515-21.094-50.893 0-18.483 7.475-36.147 20.019-49.101l1.075-1.024c13.056-12.851 31.027-20.582 50.381-20.582s37.171 7.219 49.869 20.122l1.075 0.512v0.154c13.056 12.8 20.787 30.362 20.787 49.971-0.051 20.326-7.782 38.298-20.787 51.405zM182.886 231.731c-5.12-5.222-12.544-8.243-20.838-8.243-7.834 0-15.206 3.021-20.326 8.243l-1.434 0.768c-4.557 5.53-7.322 12.032-7.322 19.61 0 8.806 3.174 15.821 8.755 21.248 5.12 5.12 12.544 8.346 20.326 8.346 8.346 0 15.718-3.021 20.838-8.346 5.478-5.478 8.499-12.442 8.499-21.299-0.051-7.68-3.072-14.746-8.499-20.326zM162.15 714.24c-14.080 0-25.6-11.52-25.6-25.6v-256c0-14.080 11.52-25.6 25.6-25.6s25.6 11.52 25.6 25.6v256c0 14.080-11.52 25.6-25.6 25.6v0zM468.992 303.565c-13.107 12.8-31.13 20.838-50.944 20.838-19.354 0-37.325-8.090-50.381-20.838v-0.563c-13.107-12.544-21.094-30.515-21.094-50.893 0-18.483 7.475-36.147 20.019-49.101l1.075-1.024c13.056-12.851 31.027-20.582 50.381-20.582s37.171 7.219 49.869 20.122l1.075 0.512v0.154c13.056 12.8 20.787 30.362 20.787 49.971-0.051 20.326-7.782 38.298-20.787 51.405zM438.886 231.731c-5.12-5.222-12.544-8.243-20.838-8.243-7.834 0-15.206 3.021-20.326 8.243l-1.434 0.768c-4.557 5.53-7.322 12.032-7.322 19.61 0 8.806 3.174 15.821 8.755 21.248 5.12 5.12 12.544 8.346 20.326 8.346 8.346 0 15.718-3.021 20.838-8.346 5.478-5.478 8.499-12.442 8.499-21.299-0.051-7.68-3.072-14.746-8.499-20.326zM418.15 714.24c-14.080 0-25.6-11.52-25.6-25.6v-256c0-14.080 11.52-25.6 25.6-25.6s25.6 11.52 25.6 25.6v256c0 14.080-11.52 25.6-25.6 25.6v0zM1011.814 156.774l-170.752 683.52c-6.81 25.088-29.747 41.728-54.63 41.728-4.864 0-9.83-0.614-14.746-1.946l-201.165-54.63c-6.4 24.166-27.546 42.496-53.658 42.496h-450.099c-31.078 0-56.525-25.446-56.525-56.525v-706.15c0-31.078 25.446-56.525 56.525-56.525h450.15c31.078 0 56.525 25.446 56.525 56.525v535.142l136.038-542.464c9.523-35.174 41.421-58.317 76.186-58.317 6.861 0 13.824 0.922 20.736 2.765l165.683 45.005c30.003 8.141 47.872 39.373 39.731 69.376zM266.189 99.84h-199.424c-2.816 0-5.325 2.509-5.325 5.325v706.15c0 2.867 2.509 5.325 5.325 5.325h199.475v-716.8zM522.24 105.216c0-2.816-2.509-5.325-5.325-5.325h-199.526v716.8h199.475c2.867 0 5.325-2.509 5.325-5.325v-706.15zM958.669 136.806l-165.683-45.005c-2.406-0.666-4.864-0.973-7.322-0.973-12.493 0-23.501 8.448-26.522 19.558l-167.475 667.699 193.434 52.531c0.461 0.102 0.87 0.205 1.331 0.205 1.997 0 4.557-1.382 4.966-2.918l171.008-684.493c0.666-2.509-1.331-5.939-3.738-6.605zM873.37 322.867c-16.026 8.909-35.482 11.981-54.63 6.758-18.688-5.069-33.894-17.562-43.162-33.331l0.154-0.563c-9.37-15.514-12.39-34.97-7.014-54.63 4.864-17.869 16.691-32.922 32.205-42.138l1.331-0.666c15.923-9.011 35.328-11.776 54.016-6.707s33.997 16.742 42.854 32.461l0.922 0.768-0.051 0.154c9.216 15.77 12.083 34.765 6.963 53.658-5.427 19.661-17.613 35.021-33.587 44.237zM863.13 245.709c-3.584-6.349-9.933-11.213-17.971-13.414-7.526-2.048-15.462-1.075-21.811 2.611l-1.587 0.358c-5.837 4.147-10.189 9.677-12.186 16.998-2.304 8.499-1.075 16.077 2.867 22.835 3.584 6.298 9.933 11.315 17.459 13.363 8.038 2.202 15.974 1.178 22.323-2.56 6.707-3.84 11.469-9.779 13.773-18.33 1.997-7.475 0.922-15.104-2.867-21.862zM723.302 706.765c-2.202 0-4.454-0.307-6.656-0.87-13.568-3.686-21.709-17.818-17.971-31.437l67.072-247.040c3.072-11.366 13.466-18.893 24.73-18.893 2.202 0 4.454 0.307 6.656 0.87 13.568 3.686 21.709 17.818 17.971 31.437l-67.072 247.040c-3.072 11.366-13.466 18.893-24.73 18.893v0z" />
<glyph unicode="&#xe93c;" glyph-name="anyapplication" d="M179.661 767.744v-767.13h51.098v818.33l51.098 51.2v50.842l-255.539-204.544 153.344 51.302zM997.683 767.59v51.046h-51.149v102.349h-51.046v-102.349h-460.288v102.349h-51.046v-102.349h-51.149v-51.046h51.149v-153.395h-51.149v-51.046h664.678v51.046h-51.149v153.395h51.149zM895.488 614.195h-460.288v153.395h460.288v-153.395zM909.978 477.798h-499.2c-45.773 0-83.2-37.427-83.2-83.2v-294.4c0-45.773 37.427-83.2 83.2-83.2h499.2c45.773 0 83.2 37.427 83.2 83.2v294.4c0 45.773-37.478 83.2-83.2 83.2zM410.778 426.598h499.2c17.357 0 32-14.643 32-32v-121.6h-563.2v121.6c0 17.357 14.643 32 32 32zM909.978 68.198h-499.2c-17.357 0-32 14.643-32 32v121.6h563.2v-121.6c0-17.306-14.694-32-32-32z" />
</font>
</defs>
</svg>
