<!-- Generated by IcoMoon.io -->
<svg version="1.1" xmlns="http://www.w3.org/2000/svg" width="1024" height="1024" viewBox="0 0 1024 1024">
<title></title>
<g id="icomoon-ignore">
</g>
<path d="M924.518 190.567h-35.891c18.176-30.874 26.214-60.314 23.654-87.603-2.15-22.835-12.954-55.501-52.685-81.562-32.973-21.658-75.366-26.982-122.317-15.258-76.186 19.098-166.4 84.838-225.741 164.25-59.29-79.462-149.402-145.152-225.587-164.25-47.053-11.776-89.446-6.451-122.368 15.206-39.68 26.061-50.534 58.726-52.634 81.562-2.56 27.341 5.325 56.73 23.654 87.603h-35.942c-54.374 0.051-98.662 44.237-98.662 98.662v147.814c0 43.008 28.416 80.998 69.478 93.798-3.891 10.803-5.939 21.965-5.939 33.28v360.499c0 54.323 44.339 98.611 98.714 98.611h698.726c54.426 0 98.662-44.288 98.662-98.611v-360.499c0-11.366-1.946-22.579-5.837-33.28 41.062-12.851 69.325-50.842 69.325-93.798v-147.814c0-54.374-44.237-98.611-98.611-98.611v0zM192 51.099c20.429-13.261 89.088-15.309 135.936 14.848 41.779 26.931 78.797 55.347 141.107 125.952h-285.747c-17.818-27.904-34.253-52.736-34.099-76.851 0-31.539 21.094-49.971 42.803-63.949v0zM490.291 980.481h-341.094c-16.64 0-42.65-25.856-42.65-42.598v-375.194c0-16.742 13.466-30.413 30.054-30.413h353.638v448.205h0.051zM490.445 490.087l-405.146-0.41c-17.306 0-42.65-22.63-42.65-42.65v-169.933c0-20.070 25.344-42.65 42.65-42.65l405.146-0.358v256zM695.245 64.769c46.848-30.413 115.456-28.314 135.885-14.95 21.76 14.131 42.803 32.717 42.803 64.512 0.205 24.32-16.179 49.408-34.048 77.568h-285.798c62.31-71.322 99.328-99.994 141.158-127.13v0zM916.582 937.883c0 16.742-26.010 42.598-42.65 42.598h-341.043v-448.205h353.638c16.589 0 30.054 13.67 30.054 30.413v375.194zM980.531 446.619c0 19.917-25.344 42.394-42.65 42.394l-405.197 0.41v-254.669l405.197 0.307c17.306 0 42.65 22.477 42.65 42.394v169.165z"></path>
</svg>
