<!-- Generated by IcoMoon.io -->
<svg version="1.1" xmlns="http://www.w3.org/2000/svg" width="1024" height="1024" viewBox="0 0 1024 1024">
<title></title>
<g id="icomoon-ignore">
</g>
<path d="M989.082 500.276l-357.786-363.315c-80.794-79.616-139.11-137.165-239.206-136.96h-162.714c-197.274 0-230.554 73.114-230.554 236.851v173.619c0 91.597 17.766 118.579 87.245 186.214l403.354 394.445c45.158 43.93 130.662 43.725 175.565 0.205l324.506-316.058c22.682-21.914 35.686-53.606 35.686-87.091 0-33.741-13.158-65.638-36.096-87.91zM936.806 656.999l-285.594 277.35c-40.397 39.219-118.323 36.352-158.976-3.226l-350.925-353.28c-62.566-60.826-90.112-84.787-90.112-167.27l-1.075-146.227c0-147.354 29.952-213.146 207.462-213.146h146.432c90.112-0.154 125.389 61.389 198.093 133.069l334.694 335.974c20.582 20.070 28.979 27.29 28.979 57.651 0 30.106-8.602 59.392-28.979 79.104zM227.891 172.801c0 28.277-22.923 51.2-51.2 51.2s-51.2-22.923-51.2-51.2c0-28.277 22.923-51.2 51.2-51.2s51.2 22.923 51.2 51.2zM491.213 253.646l-377.293 171.366 39.219 38.912 101.12-49.101 114.483 113.51-46.438 103.066 39.219 38.912 167.731-378.931-38.042-37.734zM460.339 330.753l-71.834 155.546-92.314-91.494 154.573-73.472c6.042-2.97 13.926-7.834 23.347-14.848l0.922 0.87c-7.526 10.598-12.442 18.432-14.694 23.398zM401.254 709.684l147.968 146.586 31.181-31.488-112.486-111.309 91.699-92.57 98.406 97.485 31.078-31.437-98.406-97.434 87.296-88.115 106.189 105.267 31.334-31.693-141.722-140.39z"></path>
</svg>
