<!-- Generated by IcoMoon.io -->
<svg version="1.1" xmlns="http://www.w3.org/2000/svg" width="1024" height="1024" viewBox="0 0 1024 1024">
<title></title>
<g id="icomoon-ignore">
</g>
<path d="M998.4 844.801h-102.4v-102.4c0-14.182-11.469-25.6-25.6-25.6s-25.6 11.418-25.6 25.6v102.4h-102.4c-14.131 0-25.6 11.418-25.6 25.6 0 14.080 11.469 25.6 25.6 25.6h102.4v102.4c0 14.080 11.469 25.6 25.6 25.6s25.6-11.52 25.6-25.6v-102.4h102.4c14.131 0 25.6-11.52 25.6-25.6 0-14.182-11.469-25.6-25.6-25.6zM1024 102.401c0-56.576-45.875-102.4-102.4-102.4h-819.2c-56.525 0-102.4 45.824-102.4 102.4v819.2c0 56.525 45.875 102.4 102.4 102.4l512-0.205c13.773-0.41 24.781-11.622 24.781-25.395 0-13.875-11.059-24.986-24.781-25.498v-0.102h-471.040c-50.893 0-92.16-41.318-92.16-92.211v-737.331c0-50.893 41.267-92.109 92.16-92.109h737.28c50.893 0 92.16 41.216 92.16 92.109v471.142h0.051c0 0.102-0.051 0.102-0.051 0.205 0 14.182 11.469 25.6 25.6 25.6s25.6-11.418 25.6-25.6c0-0.102-0.051-0.102-0.051-0.205h0.051v-512zM231.373 725.3c0 14.080 11.469 25.6 25.6 25.6s25.6-11.52 25.6-25.6h1.024c9.882-118.118 107.776-211.2 228.454-211.2 120.627 0 218.573 93.082 228.454 211.2h0.973c0 14.080 11.469 25.6 25.6 25.6s25.6-11.52 25.6-25.6c-8.755-128.819-104.038-233.779-228.198-257.28 58.88-21.555 101.12-77.517 101.12-143.821 0-84.787-68.813-153.6-153.6-153.6s-153.6 68.813-153.6 153.6c0 66.304 42.24 122.266 101.12 143.821-124.211 23.45-219.494 128.461-228.147 257.28zM409.6 324.199c0-56.474 45.875-102.4 102.4-102.4 56.627 0 102.4 45.926 102.4 102.4 0 56.627-45.773 102.4-102.4 102.4-56.525 0.051-102.4-45.773-102.4-102.4z"></path>
</svg>
