<!-- Generated by IcoMoon.io -->
<svg version="1.1" xmlns="http://www.w3.org/2000/svg" width="1024" height="1024" viewBox="0 0 1024 1024">
<title></title>
<g id="icomoon-ignore">
</g>
<path d="M989.696 361.831c-58.778-208.64-250.112-361.83-477.594-361.83s-418.867 153.088-477.645 361.779c-19.968 7.066-34.458 25.498-34.458 47.821v204.8c0 26.112 19.866 46.797 45.056 50.022 54.067 150.426 178.278 266.906 333.466 310.221 0.973 27.341 23.194 49.357 50.842 49.357h165.325c28.314 0 51.2-22.886 51.2-51.2 0-28.211-22.886-51.2-51.2-51.2h-165.325c-9.011 0-16.998 3.021-24.371 7.014-146.176-36.096-263.68-144.179-312.986-284.826 6.093-8.397 10.394-18.176 10.394-29.389v-204.8c0-15.309-7.066-28.672-17.664-37.99 54.118-185.037 224.819-320.41 427.366-320.41 202.496 0 373.146 135.322 427.264 320.358-10.65 9.37-17.766 22.733-17.766 38.042v204.8c0 28.314 22.938 51.2 51.2 51.2s51.2-22.886 51.2-51.2v-204.8c0-22.272-14.438-40.704-34.304-47.77zM717.414 362.804c-28.262 0-51.2 22.938-51.2 51.2 0 3.891 1.382 7.373 2.253 11.059l-90.010 90.010c-4.915-1.536-9.882-3.072-15.258-3.072-4.25 0-8.090 1.434-12.032 2.458l-65.587-65.587c0.102-1.178 0.666-2.202 0.666-3.379 0-28.262-22.938-51.2-51.2-51.2-1.178 0-2.202 0.614-3.379 0.666l-1.485-1.485-2.304 2.253c-24.678 3.635-44.032 24.013-44.032 49.766 0 4.71 1.485 8.909 2.662 13.21l-91.341 91.341c-4.454-1.28-8.858-2.765-13.722-2.765-28.262 0-51.2 22.886-51.2 51.2s22.938 51.2 51.2 51.2 51.2-22.886 51.2-51.2c0-2.355-1.024-4.301-1.331-6.554l96.666-96.666c2.406 0.358 4.557 1.434 7.066 1.434 5.99 0 11.571-1.536 16.896-3.43l61.696 61.696c-0.461 2.816-1.638 5.325-1.638 8.243 0 25.6 19.098 45.824 43.571 49.664l1.536 1.536 1.024-1.024c1.741 0.205 3.277 1.024 5.069 1.024 28.262 0 51.2-22.886 51.2-51.2 0-1.792-0.819-3.328-1.024-5.069l94.771-94.771c3.123 0.614 5.99 1.843 9.267 1.843 28.262 0 51.2-22.886 51.2-51.2 0-28.211-22.989-51.2-51.2-51.2z"></path>
</svg>
