<!-- Generated by IcoMoon.io -->
<svg version="1.1" xmlns="http://www.w3.org/2000/svg" width="1024" height="1024" viewBox="0 0 1024 1024">
<title></title>
<g id="icomoon-ignore">
</g>
<path d="M555.264 326.196c-59.75 8.090-120.32 13.466-178.586 27.955-101.581 25.242-193.638 96.461-179.046 249.242 11.366 119.245 99.891 168.909 198.912 166.298 72.294-1.946 134.656-28.518 183.706-83.149 10.496-11.725 18.022-8.806 27.136 2.56 17.050 21.197 34.509 42.24 53.658 61.44 17.203 17.254 25.242 16.384 44.39 0.051 25.856-22.067 51.251-44.544 76.8-66.918 22.221-19.405 23.398-24.576 4.71-47.36-29.235-35.635-42.547-75.674-40.909-121.805 1.434-41.267 0.307-82.586 0.307-123.904-1.126 0-2.355 0-3.533 0 0-57.856 2.355-115.866-0.614-173.568-3.226-62.822-36.198-109.363-92.467-137.114-96.973-47.77-196.352-47.36-295.68-8.346-72.038 28.314-116.736 81.613-134.042 157.389-4.506 19.712 0.051 27.034 20.224 29.798 32.87 4.506 66.15 6.861 98.662 13.107 19.354 3.686 30.362-2.406 34.97-19.558 13.773-51.507 50.125-75.776 99.84-80.486 38.093-3.635 87.245 11.366 95.898 64.256 3.84 23.398 2.56 47.616 4.301 71.424 1.024 14.234-5.581 16.896-18.637 18.688zM573.85 435.303c-0.666 12.646-0.154 25.293-0.154 42.65 2.355 40.858-4.762 84.122-31.078 122.675-24.166 35.482-57.242 52.736-100.403 48.691-35.123-3.328-60.467-32.41-67.226-76.134-11.418-73.728 33.69-135.834 107.366-146.637 24.883-3.686 50.074-5.376 75.162-7.731 11.878-1.126 16.896 4.506 16.333 16.486zM864.41 807.118c-5.683 1.69-11.162 4.301-16.691 6.605-95.642 39.629-194.15 66.816-297.779 76.902-96.87 9.421-190.566-2.099-279.296-39.373-74.65-31.386-146.022-70.707-218.726-106.803-11.418-5.632-22.579-10.957-31.488 2.611-8.55 13.056-1.229 22.784 8.858 30.874 39.526 31.488 77.926 64.717 119.142 93.85 99.789 70.605 208.384 117.504 333.619 114.381 16.64 0 33.485 1.638 49.92-0.256 103.424-12.083 201.523-41.728 292.352-93.338 22.528-12.8 44.442-27.085 64.512-43.418 6.707-5.427 11.264-20.429 8.755-28.723-4.403-14.49-18.637-17.562-33.178-13.312zM985.651 704.974c-27.187-3.686-56.013-6.861-82.483-1.843-27.904 5.222-54.426 19.558-80.486 31.949-5.222 2.458-9.779 15.77-7.629 21.402 1.997 5.376 13.261 10.445 20.275 10.24 21.862-0.666 43.622-3.84 65.382-6.042 0.051 0.461 0.102 0.922 0.154 1.331 7.322 0 14.643-0.051 21.965 0 27.238 0.358 30.771 4.096 23.757 30.771-6.912 26.317-15.053 52.275-23.808 78.029-3.789 11.059-6.4 20.838 4.608 28.365 11.981 8.090 19.814-0.87 27.494-8.294 41.523-40.192 57.958-91.443 62.31-147.149 1.69-22.682-7.834-35.482-31.539-38.758z"></path>
</svg>
