<!-- Generated by IcoMoon.io -->
<svg version="1.1" xmlns="http://www.w3.org/2000/svg" width="1024" height="1024" viewBox="0 0 1024 1024">
<title></title>
<g id="icomoon-ignore">
</g>
<path d="M179.661 205.057v767.13h51.098v-818.33l51.098-51.2v-50.842l-255.539 204.544 153.344-51.302zM997.683 205.211v-51.046h-51.149v-102.349h-51.046v102.349h-460.288v-102.349h-51.046v102.349h-51.149v51.046h51.149v153.395h-51.149v51.046h664.678v-51.046h-51.149v-153.395h51.149zM895.488 358.606h-460.288v-153.395h460.288v153.395zM909.978 495.003h-499.2c-45.773 0-83.2 37.427-83.2 83.2v294.4c0 45.773 37.427 83.2 83.2 83.2h499.2c45.773 0 83.2-37.427 83.2-83.2v-294.4c0-45.773-37.478-83.2-83.2-83.2zM410.778 546.203h499.2c17.357 0 32 14.643 32 32v121.6h-563.2v-121.6c0-17.357 14.643-32 32-32zM909.978 904.603h-499.2c-17.357 0-32-14.643-32-32v-121.6h563.2v121.6c0 17.306-14.694 32-32 32z"></path>
</svg>
