<!-- Generated by IcoMoon.io -->
<svg version="1.1" xmlns="http://www.w3.org/2000/svg" width="1024" height="1024" viewBox="0 0 1024 1024">
<title></title>
<g id="icomoon-ignore">
</g>
<path d="M417.894 243.201c13.875 0 25.6 11.725 25.6 25.6v204.8c0 28.262 22.938 51.2 51.2 51.2s51.2-22.938 51.2-51.2c0-13.875 11.725-25.6 25.6-25.6 11.315 0 21.35 7.885 24.422 19.098 3.84 14.131 13.568 25.907 26.675 32.41 7.168 3.533 14.95 5.325 22.733 5.325 6.502 0 13.056-1.229 19.2-3.738 3.174-1.28 6.298-1.946 9.37-1.946 11.315 0 21.35 7.885 24.422 19.098 3.84 14.131 13.568 25.907 26.675 32.41 7.168 3.533 14.95 5.325 22.733 5.325 6.502 0 13.056-1.229 19.2-3.738 3.174-1.28 6.298-1.946 9.37-1.946 13.875 0 25.6 11.725 25.6 25.6v74.701c-1.946 3.482-3.482 7.168-4.608 11.008l-85.197 298.291h-289.843l-141.414-250.778c-0.973-1.741-2.048-3.379-3.226-5.018-1.741-2.355-2.867-4.198-3.379-5.53l-50.483-131.021c-4.966-12.954 1.741-28.109 14.694-33.075 2.918-1.126 5.939-1.69 9.011-1.69 8.858 0 19.712 5.069 24.115 16.384l21.811 56.576c7.731 20.019 26.931 32.819 47.77 32.819 3.123 0 6.246-0.307 9.37-0.87 24.269-4.506 41.83-25.651 41.83-50.33v-318.566c-0.051-13.875 11.674-25.6 25.549-25.6zM417.894 192.001c-42.24 0-76.8 34.56-76.8 76.8v318.515l-21.811-56.576c-11.725-30.413-41.011-49.152-71.885-49.152-9.114 0-18.381 1.638-27.392 5.12-39.424 15.206-59.238 59.853-44.083 99.277l50.483 131.123c2.458 6.349 5.888 12.032 9.728 17.306l156.109 276.838h358.4l95.846-335.411c3.891-6.707 6.554-13.978 6.554-22.989v-76.8c0-42.24-34.56-76.8-76.8-76.8-10.086 0-19.712 2.099-28.57 5.683-8.858-32.614-38.502-56.883-73.83-56.883-10.086 0-19.712 2.099-28.57 5.683-8.858-32.614-38.502-56.883-73.83-56.883-42.24 0-76.8 34.56-76.8 76.8v-204.8c0.051-42.291-34.509-76.851-76.749-76.851v0zM269.875 331.623c-29.44-34.918-45.722-79.309-45.722-125.082 0-106.803 86.938-193.741 193.741-193.741s193.741 86.938 193.741 193.741c0 44.902-15.718 88.678-44.237 123.29l-39.526-32.614c20.992-25.446 32.563-57.651 32.563-90.675 0-78.592-63.949-142.541-142.541-142.541s-142.541 63.949-142.541 142.541c0 33.69 11.93 66.355 33.638 92.006l-39.117 33.075z"></path>
</svg>
