<!-- Generated by IcoMoon.io -->
<svg version="1.1" xmlns="http://www.w3.org/2000/svg" width="1024" height="1024" viewBox="0 0 1024 1024">
<title></title>
<g id="icomoon-ignore">
</g>
<path d="M550.656 220.724c-1.331-24.422-26.266-20.275-50.637-20.275 18.022 4.813 35.021 11.469 50.637 20.275zM290.253 159.54c-94.566 0-138.086 119.706-62.515 179.917 25.754-68.813 77.056-118.221 144.333-137.728-18.381-25.446-48.077-42.189-81.818-42.189zM94.925 320.667c3.84 12.39 8.858 24.218 14.797 35.482l-31.078 31.078c-8.346 8.346-8.346 21.862 0 30.259l54.733 54.784c3.994 3.942 9.472 6.195 15.155 6.195 5.632 0 11.059-2.253 15.104-6.246l31.027-31.078c4.659 2.458 9.83 3.994 14.643 6.093 0-0.358-0.051-0.717-0.051-1.075 0-25.395 2.918-49.357 8.090-71.834-37.427-24.115-62.413-65.946-62.413-113.715 0-74.65 60.723-135.373 135.322-135.373 50.534 0 94.157 28.109 117.453 69.222 24.883-3.072 48.23-3.072 76.339 2.253-3.635-11.008-7.885-21.709-13.21-31.744l31.078-31.078c4.045-3.994 6.298-9.472 6.298-15.104 0-5.683-2.253-11.11-6.298-15.104l-54.733-54.733c-4.198-4.198-9.626-6.298-15.104-6.298s-10.906 2.099-15.104 6.246l-31.13 31.13c-11.264-5.939-23.091-10.957-35.482-14.746v-43.93c0-11.776-9.523-21.35-21.35-21.35h-77.466c-11.776 0-21.402 9.574-21.402 21.35v43.93c-12.339 3.789-24.166 8.755-35.43 14.746l-31.078-31.078c-4.198-4.198-9.626-6.246-15.104-6.246s-10.957 2.099-15.104 6.246l-54.784 54.733c-3.994 3.994-6.246 9.421-6.246 15.104s2.253 11.11 6.246 15.104l31.078 31.078c-5.939 11.264-10.906 23.091-14.694 35.482h-43.93c-11.827 0-21.402 9.574-21.402 21.402v77.466c0 11.776 9.574 21.402 21.402 21.402h43.827zM765.747 735.028c34.253-18.79 57.754-54.733 57.754-96.461 0-60.877-49.562-110.387-110.438-110.387-21.402 0-41.267 6.4-58.214 16.998-10.138 40.397-26.112 79.053-47.053 112.64 59.29 11.162 113.664 38.144 157.952 77.21zM994.253 596.788c0-12.749-10.342-23.091-23.040-23.091h-47.36c-4.096-13.363-9.523-26.163-15.974-38.298l33.536-33.536c4.352-4.301 6.758-10.189 6.758-16.282s-2.406-11.981-6.758-16.333l-59.034-59.085c-4.506-4.454-10.445-6.707-16.333-6.707s-11.776 2.253-16.282 6.758l-33.587 33.536c-12.134-6.451-24.883-11.827-38.298-15.923v-47.309c0-12.749-10.291-23.040-23.040-23.040h-83.558c-5.581 0-10.547 2.253-14.541 5.581 7.014 25.651 10.906 53.504 10.906 83.2 0 18.842-1.485 37.99-4.198 57.037 15.565-5.734 32.102-9.318 49.613-9.318 79.821 0 144.742 64.922 144.742 144.742 0 50.995-26.624 95.693-66.611 121.498 29.082 31.898 52.224 69.734 67.277 112.128 2.458 0.87 5.069 1.485 7.629 1.485 5.888 0 11.776-2.253 16.333-6.758l59.085-59.085c4.301-4.301 6.707-10.189 6.707-16.282s-2.355-11.981-6.707-16.333l-33.587-33.536c6.451-12.134 11.878-24.934 15.974-38.298h47.36c6.093 0 12.032-2.406 16.333-6.758 4.301-4.301 6.758-10.189 6.758-16.282l-0.102-83.712zM811.418 893.134c-35.84-105.421-130.458-177.92-239.77-187.75-36.608 38.758-81.92 63.334-133.222 63.334-51.251 0-96.614-24.576-133.171-63.334-109.363 9.882-203.981 82.381-239.821 187.802l-19.814 58.266c-5.683 16.794-2.97 35.277 7.373 49.664 10.342 14.336 26.982 22.886 44.646 22.886h681.523c17.715 0 34.355-8.55 44.646-22.938s13.056-32.87 7.322-49.664l-19.712-58.266zM260.762 446.209c0 130.714 79.565 271.002 177.715 271.002s177.715-140.288 177.715-271.002c0-271.002-355.43-271.565-355.43 0z"></path>
</svg>
