<!-- Generated by IcoMoon.io -->
<svg version="1.1" xmlns="http://www.w3.org/2000/svg" width="1024" height="1024" viewBox="0 0 1024 1024">
<title></title>
<g id="icomoon-ignore">
</g>
<path d="M62.515 139.47c0-29.184 16.794-54.733 42.189-69.786 10.189-5.99 21.76-10.342 34.15-12.595 6.195-1.126 12.595-1.69 19.149-1.69h834.714c17.306 0 31.283-12.134 31.283-27.699 0-15.053-13.978-27.699-31.283-27.699h-834.714c-87.091 0-158.003 62.669-158.003 139.469v745.062c0 76.8 70.912 139.469 158.003 139.469h865.997v-799.949h-865.997c-53.043-0.512-95.488-38.4-95.488-84.582zM961.485 968.603h-803.482c-6.554 0-12.954-0.614-19.149-1.741-12.39-2.253-23.962-6.656-34.099-12.698-25.395-15.155-42.189-40.806-42.189-69.632v-634.266c26.778 18.022 59.699 28.211 95.437 28.211h803.43v690.125zM432.742 540.929h-60.16c-15.667 0-28.467 12.8-28.467 28.467s12.8 28.467 28.467 28.467h113.818v110.131h-113.818c-15.667 0-28.467 12.8-28.467 28.467s12.8 28.467 28.467 28.467h113.818v113.766c0 15.667 12.8 28.467 28.416 28.467 15.667 0 28.467-12.8 28.467-28.467v-113.766h113.766c15.667 0 28.467-12.8 28.467-28.467s-12.8-28.467-28.467-28.467h-113.766v-110.131h113.766c15.667 0 28.467-12.8 28.467-28.467s-12.8-28.467-28.467-28.467h-54.784l130.048-190.362c8.806-12.902 5.478-30.72-7.424-39.526s-30.72-5.478-39.526 7.424l-151.962 222.464h-29.286l-166.298-219.494c-9.421-12.493-27.341-14.95-39.834-5.53-12.442 9.472-14.95 27.392-5.478 39.885l140.237 185.139z"></path>
</svg>
