<!-- Generated by IcoMoon.io -->
<svg version="1.1" xmlns="http://www.w3.org/2000/svg" width="1024" height="1024" viewBox="0 0 1024 1024">
<title></title>
<g id="icomoon-ignore">
</g>
<path d="M945.050 0.001h-866.099c-57.498 0-104.55 47.053-104.55 104.55v610.15c0 57.446 47.053 104.499 104.55 104.499h407.45v153.6h-409.6v51.2h870.4v-51.2h-409.6v-153.6h407.45c57.498 0 104.55-47.053 104.55-104.55v-610.099c0-57.498-47.053-104.55-104.55-104.55zM998.4 765.851c0 0.922-1.178 2.15-2.15 2.15h-968.499c-0.973 0-2.15-1.178-2.15-2.15v-712.499c0-0.973 1.178-2.15 2.15-2.15h968.55c0.922 0 2.099 1.178 2.099 2.15v712.499zM747.315 216.014l-64.563 64.819-62.976-11.418-11.315-62.976 64.563-64.819c-14.49-14.49-35.174-21.146-50.534-20.326-15.411 0.819-48.333 9.472-73.83 36.557-24.678 26.061-50.637 74.598-27.648 128.563 2.765 6.502 5.837 15.104-3.328 24.218-9.267 9.165-245.709 231.731-245.709 231.731-22.17 19.098-20.582 54.374-0.102 74.957 20.787 20.48 55.859 21.709 74.957-0.358 0 0 220.774-235.162 231.629-245.811 9.728-9.472 18.381-6.298 24.218-3.328 40.704 21.043 98.611 2.765 128.666-27.29s35.533-59.085 36.454-73.933c1.024-14.694-4.147-34.253-20.48-50.586v0zM323.84 591.156c-7.219 7.066-18.842 7.066-25.958 0-7.066-7.219-7.066-18.842 0-25.958 7.219-7.066 18.842-7.066 25.958 0 7.066 7.219 7.066 18.893 0 25.958v0z"></path>
</svg>
