<!-- Generated by IcoMoon.io -->
<svg version="1.1" xmlns="http://www.w3.org/2000/svg" width="1024" height="1024" viewBox="0 0 1024 1024">
<title></title>
<g id="icomoon-ignore">
</g>
<path d="M0 193.588c36.864-7.782 95.13-13.619 154.368-13.619 84.48 0 138.854 14.592 179.61 47.565 33.997 25.242 54.374 64.102 54.374 115.507 0 63.078-41.728 118.477-110.694 143.718v1.946c62.157 15.565 134.963 66.97 134.963 164.096 0 56.371-22.323 99.021-55.347 131.072-45.619 41.779-119.398 61.184-226.202 61.184-58.266 0-102.912-3.891-131.072-7.782v-643.686zM84.48 461.518h76.698c89.293 0 141.773-46.592 141.773-109.722 0-76.698-58.266-106.803-143.667-106.803-38.861 0-61.184 2.918-74.752 5.837v210.688zM84.48 775.118c16.486 2.918 40.755 3.84 70.861 3.84 87.347 0 167.936-32 167.936-127.181 0-89.344-76.698-126.259-168.909-126.259h-69.888v249.6zM1024 810.087c-37.837 13.568-112.64 35.942-201.011 35.942-99.021 0-180.582-25.242-244.634-86.426-56.269-54.374-91.238-141.773-91.238-243.712 0.973-195.123 134.963-337.869 354.355-337.869 75.776 0 135.014 16.538 163.123 30.106l-20.429 68.915c-34.97-15.514-78.592-28.16-144.64-28.16-159.232 0-263.117 99.021-263.117 263.117 0 166.042 99.994 264.090 252.416 264.090 55.296 0 93.184-7.782 112.64-17.459v-195.123h-133.018v-67.994h215.552v314.573z"></path>
</svg>
