<!-- Generated by IcoMoon.io -->
<svg version="1.1" xmlns="http://www.w3.org/2000/svg" width="1024" height="1024" viewBox="0 0 1024 1024">
<title></title>
<g id="icomoon-ignore">
</g>
<path d="M739.994 969.729h-459.315c-14.080 0-25.498 11.469-25.498 25.498 0 14.131 11.418 25.549 25.498 25.549h459.315c14.182 0 25.6-11.418 25.6-25.549 0-14.029-11.366-25.498-25.6-25.498zM459.264 420.199c27.29-6.758 40.858-27.187 54.426-40.755 13.67-13.67 20.429-33.997 20.429-61.184 0-27.341-6.81-54.528-33.997-74.854-20.378-20.531-47.667-27.29-88.422-27.29h-129.28v435.456h129.28c40.755 0 74.854-13.568 101.99-33.997 27.238-20.378 40.909-54.426 40.909-88.474s-6.758-54.374-27.238-74.803c-13.67-20.429-40.806-34.099-68.096-34.099zM336.845 270.542h54.477c54.426 0 81.613 20.326 81.613 61.184 0 20.429-6.861 40.858-20.48 54.426-13.568 13.722-33.946 20.48-61.133 20.48h-54.477v-136.090zM472.934 583.527c-13.67 13.619-40.858 20.429-68.096 20.429h-67.994v-149.658h61.235c68.045 0 102.093 20.429 102.093 74.803 0 20.378-13.619 40.858-27.238 54.426zM602.214 263.681h40.909v340.326h-40.909v47.565h136.141v-47.565h-40.858v-340.326h40.858v-47.565h-136.141zM969.728 0.001h-918.733c-28.16 0-50.995 22.886-50.995 51.046v765.594c0 28.16 22.835 50.995 50.995 50.995h918.733c28.262 0 51.046-22.835 51.046-50.995v-765.594c0.051-28.16-22.784-51.046-51.046-51.046zM969.728 771.585c0 24.832-20.531 45.056-45.978 45.056h-826.778c-25.446 0-45.978-20.224-45.978-45.056v-675.482c0-24.883 20.531-45.056 45.978-45.056h826.778c25.446 0 45.978 20.173 45.978 45.056v675.482z"></path>
</svg>
