<!-- Generated by IcoMoon.io -->
<svg version="1.1" xmlns="http://www.w3.org/2000/svg" width="1024" height="1024" viewBox="0 0 1024 1024">
<title></title>
<g id="icomoon-ignore">
</g>
<path d="M204.8 328.859c0 15.565 21.35 29.542 60.006 29.542h512c30.413 0 42.394-10.035 42.394-25.6 0-15.667-11.981-25.6-42.394-25.6h-512c-31.181 0-60.006 5.99-60.006 21.658v0zM768 409.601h-512c-29.85 0-51.2 9.984-51.2 25.6 0 15.565 21.35 25.6 51.2 25.6h512c35.994 0 51.2-13.517 51.2-29.082 0-15.616-19.2-22.118-51.2-22.118v0zM774.4 665.601h-188.006c-15.616 0-23.194 9.216-23.194 24.781s5.939 26.419 21.606 26.419h204.8c15.565 0 29.594-10.803 29.594-26.419s-14.848-24.781-30.413-24.781h-14.387zM774.4 768.001h-188.006c-15.616 0-23.194 9.216-23.194 24.781s5.939 26.419 21.606 26.419h204.8c15.565 0 29.594-10.803 29.594-26.419s-14.848-24.781-30.413-24.781h-14.387zM410.317 563.201l-77.517 102.4-76.288-102.4h-51.712l102.4 153.6h-102.4v51.2h102.4v51.2h-102.4v51.2h102.4v51.2h51.2v-51.2h102.4v-51.2h-102.4v-51.2h102.4v-51.2h-102.4l102.4-153.6h-50.483zM915.968 102.913l-147.968-0.512v-53.658c0-26.88-21.76-48.742-48.691-48.742h-414.618c-26.88 0-48.691 21.862-48.691 48.742l2.048 54.17h-156.16c-26.829 0-50.688 14.541-50.688 44.902v836.096c0 19.712 16.589 40.090 43.418 40.090h819.302c26.829 0 58.88-14.643 58.88-34.355v-836.045c0-30.413-30.003-50.688-56.832-50.688v0zM307.2 153.601v-102.4h409.6v153.6h-409.6v-51.2zM921.6 972.801h-819.2v-819.2h153.6v53.658c0 26.829 21.811 48.742 48.64 48.742h414.669c26.931 0 48.691-21.914 48.691-48.742v-53.658h153.6v819.2z"></path>
</svg>
