<!-- Generated by IcoMoon.io -->
<svg version="1.1" xmlns="http://www.w3.org/2000/svg" width="1024" height="1024" viewBox="0 0 1024 1024">
<title></title>
<g id="icomoon-ignore">
</g>
<path d="M779.315 292.609l-45.107 11.11c-0.102 0-0.205 0.051-0.307 0.051l-155.085 38.042c-15.821 3.789-25.6 19.814-21.709 35.584 3.891 15.821 19.917 25.498 35.686 21.709l86.016-21.043-120.678 199.168-214.118-129.843-145.101 239.206c-8.397 13.875-3.891 32.102 9.984 40.499s32 3.994 40.499-9.882l114.483-188.723 214.016 129.69 163.994-270.438 29.184 119.45c3.891 15.821 19.917 25.498 35.686 21.606 15.923-3.891 25.498-19.814 21.606-35.584l-49.050-200.602zM512 0.001c-282.778 0-512 229.222-512 512s229.222 512 512 512c282.778 0 512-229.222 512-512s-229.222-512-512-512zM512 972.801c-254.515 0-460.8-206.285-460.8-460.8s206.285-460.8 460.8-460.8 460.8 206.285 460.8 460.8-206.285 460.8-460.8 460.8z"></path>
</svg>
