<!-- Generated by IcoMoon.io -->
<svg version="1.1" xmlns="http://www.w3.org/2000/svg" width="1024" height="1024" viewBox="0 0 1024 1024">
<title></title>
<g id="icomoon-ignore">
</g>
<path d="M434.995 778.343c-42.752 22.426-96.358 33.69-160.819 33.69-83.251 0-149.658-26.47-199.475-79.258-49.766-52.89-74.598-122.778-74.598-209.766 0-93.44 28.006-168.704 83.968-225.638 55.962-56.986 127.078-85.453 213.299-85.453 55.45 0 101.325 7.885 137.574 23.603v78.336c-41.472-22.989-87.040-34.458-136.806-34.458-64.717 0-117.402 21.555-158.157 64.614-40.755 43.162-61.133 101.325-61.133 174.592 0 69.325 19.046 124.57 56.986 165.427 37.939 40.806 87.706 61.235 149.197 61.235 57.498 0 107.469-13.005 149.965-38.963v72.038zM551.168 802.305v-580.608h165.734c87.91 0 161.075 25.651 219.341 76.851 58.47 51.251 87.603 119.962 87.603 206.131 0 89.958-29.133 162.099-87.603 216.269-58.266 54.272-133.427 81.357-225.382 81.357h-159.693zM626.125 288.359v447.59h84.326c73.728 0 131.277-20.173 172.646-60.365s62.054-96.614 62.054-169.011c0-72.448-21.248-126.976-63.693-163.43-42.496-36.506-98.355-54.733-167.578-54.733h-87.757z"></path>
</svg>
