<!-- Generated by IcoMoon.io -->
<svg version="1.1" xmlns="http://www.w3.org/2000/svg" width="1024" height="1024" viewBox="0 0 1024 1024">
<title></title>
<g id="icomoon-ignore">
</g>
<path d="M608.461 179.15v-65.946c0-48.384-39.219-87.603-87.603-87.603h-183.194c-48.384 0-87.603 39.219-87.603 87.603v65.946h-250.061v51.251h250.061v65.997c0 48.384 39.219 87.603 87.603 87.603h183.194c48.384 0 87.603-39.219 87.603-87.603v-65.997h415.539v-51.251h-415.539zM557.261 296.398c0 20.070-16.333 36.403-36.403 36.403h-183.194c-20.070 0-36.403-16.333-36.403-36.403v-183.194c0-20.070 16.333-36.403 36.403-36.403h183.194c20.070 0 36.403 16.333 36.403 36.403v183.194zM813.261 727.604c0-48.384-39.219-87.603-87.603-87.603h-183.194c-48.384 0-87.603 39.219-87.603 87.603v65.946h-454.861v51.251h454.861v65.997c0 48.384 39.219 87.603 87.603 87.603h183.194c48.384 0 87.603-39.219 87.603-87.603v-65.997h210.739v-51.251h-210.739v-65.946zM762.061 910.798c0 20.070-16.333 36.403-36.403 36.403h-183.194c-20.070 0-36.403-16.333-36.403-36.403v-183.194c0-20.070 16.333-36.403 36.403-36.403h183.194c20.070 0 36.403 16.333 36.403 36.403v183.194z"></path>
</svg>
