<!-- Generated by IcoMoon.io -->
<svg version="1.1" xmlns="http://www.w3.org/2000/svg" width="1024" height="1024" viewBox="0 0 1024 1024">
<title></title>
<g id="icomoon-ignore">
</g>
<path d="M667.494 659.867h-424.192c-7.731 0-13.978 5.99-13.978 13.722 0 7.68 6.246 13.67 13.978 13.67h424.192c7.68 0 13.926-5.99 13.926-13.67 0-7.731-6.246-13.722-13.926-13.722v0zM667.494 515.995h-424.192c-7.731 0-13.978 5.99-13.978 13.722 0 7.68 6.246 13.67 13.978 13.67h424.192c7.68 0 13.926-5.99 13.926-13.67 0-7.731-6.246-13.722-13.926-13.722v0zM667.494 372.174h-424.192c-7.731 0-13.978 6.554-13.978 14.285 0 7.68 6.246 14.285 13.978 14.285h424.192c7.68 0 13.926-6.554 13.926-14.285s-6.246-14.285-13.926-14.285v0zM968.96 129.076c0-71.168-59.494-129.075-132.608-129.075h-649.83c-0.307 0-0.614 0.051-0.922 0.051s-0.87-0.051-1.178-0.051c-71.168 0-129.331 57.907-129.331 129.075v754.432c0 9.523 4.096 18.586 10.957 25.139l105.574 101.683c13.517 13.005 34.97 13.005 48.486 0l107.622-103.731 111.616 107.622c13.517 13.056 34.97 13.056 48.486 0l111.616-107.622 111.616 107.622c6.502 6.246 15.155 9.779 24.218 9.779s17.715-3.533 24.218-9.779l101.069-97.434c6.81-6.605 10.701-15.667 10.701-25.139v-638.157c55.962-15.002 97.69-65.075 97.69-124.416v0zM735.437 953.243l-111.718-107.674c-13.517-13.056-34.918-13.056-48.486 0l-111.616 107.674-111.667-107.674c-13.517-13.056-34.918-13.056-48.435 0l-107.366 103.731-82.893-80.589v-739.635c0-32.717 26.368-68.454 59.085-68.454 0.307 0 13.005-0.154 13.261-0.154 0.358 0 0.563 0 0.87 0h0.102c34.56 0 62.669 21.709 62.669 68.506 0 32.717-28.16 59.341-62.771 59.341-19.302 0-34.867 15.514-34.867 34.816 0 19.251 15.616 34.867 34.867 34.867h627.712v618.803l-78.746 76.442zM835.891 200.91h-556.8c9.472-18.278 27.392-50.586 27.392-71.936s-5.376-53.658-14.848-71.936h544.717c34.611 0 75.11 39.219 75.11 71.936s-40.141 71.936-75.571 71.936v0z"></path>
</svg>
