<!-- Generated by IcoMoon.io -->
<svg version="1.1" xmlns="http://www.w3.org/2000/svg" width="1024" height="1024" viewBox="0 0 1024 1024">
<title></title>
<g id="icomoon-ignore">
</g>
<path d="M234.854 155.649c-14.080 0-25.549 11.469-25.549 25.6v481.331c-0.051 14.182 11.366 25.549 25.549 25.549s25.498-11.366 25.498-25.549l0.102-481.331c-0.102-14.131-11.52-25.6-25.6-25.6zM418.918 341.966c-14.131 0-25.549 11.469-25.549 25.549v295.117c-0.051 14.182 11.366 25.549 25.498 25.549s25.549-11.366 25.549-25.549v-295.168c0-14.080-11.418-25.498-25.498-25.498zM602.88 155.649c-14.131 0-25.549 11.469-25.549 25.6v481.331c0 14.182 11.418 25.549 25.498 25.549 14.182 0 25.549-11.366 25.549-25.549l0.051-481.382c-0.051-14.080-11.418-25.549-25.549-25.549zM786.893 341.966c-14.080 0-25.498 11.469-25.498 25.549v295.117c-0.102 14.182 11.315 25.549 25.498 25.549 14.131 0 25.498-11.366 25.498-25.549l0.051-295.168c-0.051-14.080-11.469-25.498-25.549-25.498zM970.752 0.001h-919.706c-28.211 0-51.046 22.733-51.046 50.688v760.627c0 28.006 22.835 50.637 51.046 50.637h152.269l115.763 145.050c19.968 19.814 52.275 19.814 72.243 0l180.48-145.050h398.95c28.262 0 51.098-22.63 51.098-50.637v-760.627c0-27.955-22.835-50.688-51.098-50.688zM970.752 766.567c0 24.627-20.582 44.749-46.029 44.749h-374.067l-63.078 53.811-100.608 82.227c-15.974 15.872-41.779 15.872-57.754 0l-97.075-135.68-75.776-0.358h-59.29c-25.446 0-46.029-20.122-46.029-44.749v-671.078c0-24.73 20.582-44.8 46.029-44.8h827.597c25.446 0 46.029 20.070 46.029 44.8v671.078z"></path>
</svg>
