<!-- Generated by IcoMoon.io -->
<svg version="1.1" xmlns="http://www.w3.org/2000/svg" width="1024" height="1024" viewBox="0 0 1024 1024">
<title></title>
<g id="icomoon-ignore">
</g>
<path d="M989.696 361.78c-58.829-208.691-250.112-361.779-477.594-361.779s-418.867 153.088-477.645 361.779c-19.968 7.014-34.458 25.446-34.458 47.821v204.8c0 26.112 19.866 46.797 45.056 49.971 61.85 172.083 215.654 299.93 402.381 324.25 13.722 21.248 37.427 35.379 64.563 35.379 42.445 0 76.8-34.355 76.8-76.8s-34.355-76.8-76.8-76.8c-38.349 0-69.786 28.109-75.622 64.819-160.666-27.597-291.635-140.902-344.422-291.379 6.144-8.499 10.445-18.227 10.445-29.44v-204.8c0-15.309-7.066-28.672-17.664-37.99 54.118-185.088 224.819-320.41 427.366-320.41 202.496 0 373.146 135.322 427.264 320.307-10.701 9.37-17.766 22.733-17.766 38.093v204.8c0 28.314 22.938 51.2 51.2 51.2s51.2-22.886 51.2-51.2v-204.8c0-22.323-14.438-40.755-34.304-47.821z"></path>
</svg>
