<!-- Generated by IcoMoon.io -->
<svg version="1.1" xmlns="http://www.w3.org/2000/svg" width="1024" height="1024" viewBox="0 0 1024 1024">
<title></title>
<g id="icomoon-ignore">
</g>
<path d="M857.907 190.926c0 105.445-192.049 190.925-428.954 190.925s-428.954-85.48-428.954-190.925c0-105.445 192.049-190.925 428.954-190.925s428.954 85.48 428.954 190.925zM528.282 892.161c-30.054-7.68-52.531-32.154-58.214-62.106-13.568 0.614-27.29 0.922-41.114 0.922-236.954-0.051-428.954-85.453-428.954-190.976 0 44.032 0 73.472 0 145.971 0 105.472 192 190.925 428.954 190.925 34.099 0 67.072-1.946 98.918-5.325-13.824-24.474-14.438-54.682 0.41-79.411zM428.954 778.548c13.414 0 26.573-0.358 39.68-0.87v-21.914c0-36.659 25.037-68.198 60.058-76.902-9.216-15.565-12.595-33.331-10.394-50.432-28.826 2.714-58.675 4.147-89.344 4.147-236.954 0.051-428.954-85.35-428.954-190.874 0 44.032 0 73.472 0 145.971 0.051 105.421 192 190.874 428.954 190.874zM428.954 580.199c42.342 0 83.251-2.816 121.907-7.936l32.051-32.051c15.36-15.411 35.686-23.245 56.115-23.245 13.773 0 27.546 3.584 39.987 10.854 9.062-34.56 40.397-59.187 76.698-59.187h59.494c1.075 0 2.15 0.256 3.174 0.256 25.088-24.218 39.424-51.149 39.424-79.616 0-38.758 0-79.155 0-145.971 0 105.472-192 190.925-428.954 190.925s-428.8-85.453-428.8-190.925c0 44.032 0 73.472 0 145.971 0 105.472 191.949 190.925 428.902 190.925zM1024 815.259v-59.494l-70.81-11.571c-4.147-16.742-10.752-32.512-19.456-47.002l41.267-58.778-42.086-42.086-58.061 41.779c-14.49-8.755-30.362-15.462-47.206-19.661l-12.39-70.451h-59.494l-11.469 70.246c-16.896 4.147-32.87 10.701-47.36 19.405l-57.907-41.318-42.086 42.086 40.755 58.214c-8.858 14.592-15.565 30.515-19.763 47.514l-69.939 11.622v59.494l69.888 12.39c4.147 16.998 10.854 32.973 19.763 47.565l-41.318 57.702 42.086 42.138 58.317-40.806c14.592 8.755 30.515 15.36 47.36 19.507l11.674 70.246h59.494l12.493-70.451c16.794-4.198 32.666-10.957 47.104-19.712l58.726 41.216 42.035-42.138-41.933-58.214c8.704-14.49 15.258-30.259 19.405-47.104l70.912-12.339zM785.971 868.967c-45.773 0-82.995-37.12-82.995-82.995 0-45.773 37.222-82.995 82.995-82.995 45.875 0 82.995 37.222 82.995 82.995 0 45.875-37.12 82.995-82.995 82.995z"></path>
</svg>
