<!-- Generated by IcoMoon.io -->
<svg version="1.1" xmlns="http://www.w3.org/2000/svg" width="1024" height="1024" viewBox="0 0 1024 1024">
<title></title>
<g id="icomoon-ignore">
</g>
<path d="M1019.699 273.665l-94.618-222.157c-8.858-29.389-37.376-51.507-66.304-51.507h-720.64c-28.877 0-57.344 22.118-66.253 51.507l-67.533 222.157c-4.096 13.414-4.352 40.243-4.352 40.499v641.28c0 37.786 30.771 68.557 68.506 68.557h885.094c37.786 0 70.4-19.2 70.4-65.587v-644.25c0-0.256-0.205-27.085-4.301-40.499v0zM119.808 66.049c2.662-8.806 12.186-15.923 18.33-15.923h720.64c6.144 0 15.667 7.117 18.33 15.923l95.693 242.227-923.75-1.075 70.758-241.152zM972.8 959.182c0 10.189-9.062 14.694-19.2 14.694h-885.094c-10.138 0-18.381-8.243-18.381-18.432l1.075-597.043h921.6v600.781zM663.501 735.899c5.171 5.12 12.134 7.731 19.456 7.168 0.614 0.102 1.229 0.102 1.843 0.102 6.707 0 12.954-2.611 17.613-7.27l191.693-191.693c4.762-4.762 7.322-11.008 7.322-17.715 0-6.656-2.611-12.902-7.322-17.664-9.472-9.472-25.958-9.472-35.379 0l-175.77 175.718-77.005-77.005c-9.472-9.421-25.958-9.421-35.43 0-4.71 4.659-7.322 10.957-7.322 17.613 0 6.707 2.611 13.005 7.322 17.766l92.979 92.979zM460.8 537.601c0 14.131-11.469 25.6-25.6 25.6h-307.2c-14.131 0-25.6-11.469-25.6-25.6v0c0-14.131 11.469-25.6 25.6-25.6h307.2c14.131 0 25.6 11.469 25.6 25.6v0zM460.8 844.801c0 14.131-11.469 25.6-25.6 25.6h-307.2c-14.131 0-25.6-11.469-25.6-25.6v0c0-14.131 11.469-25.6 25.6-25.6h307.2c14.131 0 25.6 11.469 25.6 25.6v0zM409.6 691.201c0 14.131-11.469 25.6-25.6 25.6h-256c-14.131 0-25.6-11.469-25.6-25.6v0c0-14.131 11.469-25.6 25.6-25.6h256c14.131 0 25.6 11.469 25.6 25.6v0z"></path>
</svg>
