<!-- Generated by IcoMoon.io -->
<svg version="1.1" xmlns="http://www.w3.org/2000/svg" width="1024" height="1024" viewBox="0 0 1024 1024">
<title></title>
<g id="icomoon-ignore">
</g>
<path d="M502.63 506.83c0 17.92-14.541 32.666-32.41 32.666h-251.341c-17.869 0-32.41-14.746-32.41-32.666s14.541-32.666 32.41-32.666h251.341c17.869 0 32.41 14.797 32.41 32.666v0zM470.221 670.158h-251.341c-17.869 0-32.41 14.131-32.41 32 0 17.92 14.541 32 32.41 32h251.341c17.869 0 32.41-14.131 32.41-32s-14.541-32-32.41-32v0zM218.88 339.713h251.341c17.869 0 32.41-14.746 32.41-32.666s-14.541-32.666-32.41-32.666h-251.341c-17.869 0-32.41 14.746-32.41 32.666 0 17.869 14.541 32.666 32.41 32.666v0zM627.2 998.401h-494.387c-52.070 0-94.413-42.342-94.413-94.413v-783.974c0-52.070 42.342-94.413 94.413-94.413h579.226c52.070 0 94.413 42.342 94.413 94.413v289.587h51.2v-289.587c0-80.282-65.331-145.613-145.613-145.613h-579.226c-80.282 0-145.613 65.28-145.613 145.613v784.026c0 80.282 65.331 145.613 145.613 145.613h494.387v-51.251zM1036.8 768.001v-51.2h-104.96c-3.328-16.333-9.83-31.488-18.688-44.902l74.291-74.291-36.198-36.198-74.291 74.291c-13.414-8.909-28.57-15.411-44.902-18.688v-105.011h-51.2v104.96c-16.333 3.328-31.488 9.83-44.902 18.688l-74.291-74.291-36.198 36.198 74.291 74.291c-8.96 13.466-15.462 28.621-18.79 44.954h-104.96v51.2h104.96c3.328 16.333 9.83 31.488 18.688 44.902l-74.291 74.291 36.198 36.198 74.291-74.291c13.414 8.909 28.57 15.411 44.902 18.688v105.011h51.2v-104.96c16.333-3.328 31.488-9.83 44.902-18.688l74.291 74.291 36.198-36.198-74.291-74.291c8.909-13.414 15.411-28.57 18.688-44.902h105.062zM806.4 819.201c-42.394 0-76.8-34.406-76.8-76.8s34.406-76.8 76.8-76.8 76.8 34.406 76.8 76.8-34.406 76.8-76.8 76.8z"></path>
</svg>
