<!-- Generated by IcoMoon.io -->
<svg version="1.1" xmlns="http://www.w3.org/2000/svg" width="1024" height="1024" viewBox="0 0 1024 1024">
<title></title>
<g id="icomoon-ignore">
</g>
<path d="M409.6-0.050h-358.4c-28.314 0-51.2 22.886-51.2 51.2v460.8c0 28.314 22.886 51.2 51.2 51.2h358.4c28.314 0 51.2-22.886 51.2-51.2v-460.8c0-28.262-22.886-51.2-51.2-51.2zM409.6 470.068c0 23.142-17.818 41.933-39.885 41.933h-278.733c-21.965 0-39.782-18.79-39.782-41.933v-376.986c0-23.142 17.818-41.882 39.782-41.882h278.682c22.118-0.051 39.936 18.739 39.936 41.882v376.986zM972.8 460.801h-358.4c-28.314 0-51.2 22.886-51.2 51.2v460.8c0 28.314 22.886 51.2 51.2 51.2h358.4c28.314 0 51.2-22.886 51.2-51.2v-460.8c0-28.314-22.886-51.2-51.2-51.2zM972.8 930.919c0 23.091-17.818 41.882-39.885 41.882h-278.682c-22.016 0-39.834-18.79-39.834-41.882v-376.986c0-23.245 17.818-41.933 39.782-41.933h278.682c22.118 0 39.936 18.688 39.936 41.882v377.037zM409.6 665.601h-358.4c-28.314 0-51.2 22.886-51.2 51.2v256c0 28.211 22.886 51.2 51.2 51.2h358.4c28.314 0 51.2-22.989 51.2-51.2v-256c0-28.314-22.886-51.2-51.2-51.2zM409.6 936.193c0 20.224-17.818 36.608-39.782 36.608h-278.835c-21.965 0-39.782-16.384-39.782-36.608v-182.886c0-20.122 17.818-36.506 39.782-36.506h278.784c22.016 0 39.834 16.384 39.834 36.506v182.886zM972.8 2.1h-358.4c-28.314 0-51.2 22.938-51.2 51.2v256c0 28.262 22.886 51.2 51.2 51.2h358.4c28.314 0 51.2-22.938 51.2-51.2v-256c0-28.211-22.886-51.2-51.2-51.2zM972.8 272.743c0 20.173-17.818 36.608-39.782 36.608h-278.784c-22.016 0-39.782-16.384-39.782-36.608v-182.886c0-20.173 17.818-36.557 39.782-36.557h278.784c22.016 0 39.782 16.384 39.782 36.557v182.886z"></path>
</svg>
