<!-- Generated by IcoMoon.io -->
<svg version="1.1" xmlns="http://www.w3.org/2000/svg" width="1024" height="1024" viewBox="0 0 1024 1024">
<title></title>
<g id="icomoon-ignore">
</g>
<path d="M810.445 102.401c-29.645 0-57.702 11.571-78.643 32.563-43.366 43.366-43.366 113.971 0 157.338 21.043 21.043 48.998 32.563 78.643 32.563s57.549-11.52 78.643-32.563c43.315-43.366 43.315-113.971 0-157.338-21.094-20.992-48.998-32.563-78.643-32.563zM850.739 253.543c-21.402 21.402-58.726 21.402-80.179 0-22.118-22.118-22.118-58.112 0-80.23 10.752-10.701 24.832-16.589 40.141-16.589 15.155 0 29.286 5.888 40.038 16.589 22.221 22.067 22.221 58.112 0 80.23zM945.562 0.001h-345.139c-21.709 0-54.426 0-75.93 21.402l-505.6 505.651c-12.186 12.134-18.893 28.314-18.893 45.517 0 17.101 6.707 33.28 18.842 45.466l386.509 386.406c12.134 12.186 28.314 18.893 45.466 18.893s33.331-6.707 45.466-18.79l505.702-505.651c21.555-21.658 21.453-52.787 21.299-82.893v-338.176c0-42.906-34.765-77.824-77.722-77.824zM978.842 408.833v7.373c0.154 21.914 0.154 42.598-8.294 51.2l-505.702 505.6c-7.475 7.475-20.531 7.475-28.006 0l-386.509-386.458c-3.738-3.738-5.837-8.755-5.837-14.029 0-5.325 2.099-10.291 5.837-14.029l505.6-505.6c7.731-7.782 26.214-8.397 44.442-8.397l14.080 0.051 331.059-0.051c18.278 0 33.28 14.95 33.28 33.331v331.008z"></path>
</svg>
