<!-- Generated by IcoMoon.io -->
<svg version="1.1" xmlns="http://www.w3.org/2000/svg" width="1024" height="1024" viewBox="0 0 1024 1024">
<title></title>
<g id="icomoon-ignore">
</g>
<path d="M814.387 46.542c59.136 0 107.213 43.725 107.213 97.485v736c0 53.76-48.077 97.434-107.213 97.434h-604.774c-59.136 0-107.213-43.725-107.213-97.434v-736c0-53.76 48.077-97.434 107.213-97.434h604.774zM814.387 0.001h-604.774c-87.142 0-158.413 64.819-158.413 144.026v736c0 79.155 71.27 143.974 158.413 143.974h604.826c87.091 0 158.362-64.819 158.362-143.974v-736c0-79.206-71.27-144.026-158.413-144.026v0zM714.291 731.905c0.563 3.533 0.461 7.68-0.461 12.646-0.819 4.966-2.304 9.984-4.352 15.053-2.048 5.12-4.506 9.677-7.373 13.773-2.918 4.096-6.144 7.014-9.574 8.755-3.533 1.792-6.554 2.662-9.165 2.662s-5.478-0.563-8.704-1.741c-2.918-0.87-6.554-1.69-10.906-2.406-4.403-0.717-8.806-0.819-13.312-0.41s-9.011 1.382-13.517 2.816c-4.454 1.434-8.397 3.942-11.52 7.424-7.014 7.27-11.11 15.565-12.237 24.934-1.126 9.318 0.154 18.176 3.942 26.624 2.918 5.837 2.458 11.622-1.28 17.459-1.741 2.355-4.557 4.71-8.294 7.168-3.789 2.509-7.936 4.762-12.442 6.81-4.454 2.048-9.216 3.635-14.234 4.813-4.966 1.178-9.318 1.741-13.107 1.741-2.611 0-5.018-1.024-7.373-3.072-2.304-2.048-3.891-4.25-4.813-6.554h-0.461c-3.226-9.062-8.653-16.794-16.333-23.347s-16.64-9.83-26.829-9.83c-9.882 0-18.842 3.277-26.829 9.83s-13.619 14.182-16.794 22.938c-1.434 3.533-3.635 6.042-6.554 7.629-2.867 1.587-6.042 2.406-9.574 2.406-4.045 0-8.653-0.717-13.722-2.202-5.069-1.434-10.189-3.277-15.258-5.478s-9.677-4.71-13.773-7.629c-4.045-2.918-7.117-5.837-9.165-8.704-1.434-2.048-2.253-4.454-2.406-7.168-0.154-2.765 0.922-6.656 3.277-11.571 3.226-6.707 4.403-14.336 3.686-22.938s-4.403-16.538-11.11-23.808c-4.045-4.352-9.011-7.168-14.797-8.499-5.837-1.331-11.315-1.843-16.589-1.536-6.144 0.256-12.339 1.434-18.739 3.533-4.045 1.126-8.141 0.819-12.237-0.87-3.226-1.126-6.195-3.84-8.96-8.038s-5.222-8.909-7.424-13.978c-2.202-5.12-3.84-10.342-5.018-15.718-1.126-5.376-1.434-9.83-0.87-13.312 0.87-6.4 3.738-10.496 8.704-12.237 8.704-3.533 16.538-9.267 23.552-17.306 7.014-7.987 10.496-16.947 10.496-26.88 0-10.189-3.482-19.046-10.496-26.624s-14.848-13.107-23.552-16.64c-2.56-0.819-4.71-2.918-6.451-6.298s-2.662-6.81-2.662-10.24c0-3.789 0.563-8.038 1.741-12.698s2.714-9.165 4.557-13.568c1.894-4.352 4.096-8.346 6.554-12.032 2.509-3.635 5.171-6.349 8.038-8.090 2.355-1.434 4.608-2.048 6.81-1.741 2.202 0.256 4.557 0.87 7.168 1.741 8.704 3.533 17.818 4.557 27.29 3.277 9.421-1.28 17.818-5.478 25.088-12.442 3.482-3.533 6.042-7.782 7.629-12.902s2.662-10.138 3.072-15.104c0.461-4.966 0.461-9.472 0-13.517-0.41-4.096-0.819-7.014-1.075-8.704-0.563-1.741-1.075-3.789-1.536-6.144s-0.205-4.403 0.614-6.144c1.741-4.045 4.864-7.629 9.37-10.701s9.37-5.632 14.592-7.629c5.222-2.048 10.342-3.584 15.258-4.608s8.858-1.536 11.776-1.536c3.738 0 6.758 1.229 8.96 3.686 2.202 2.509 3.686 5.069 4.557 7.68 3.226 7.834 8.448 14.746 15.718 20.736s15.872 8.96 25.754 8.96c10.189 0 19.2-2.867 27.034-8.55s13.363-12.902 16.589-21.606c1.126-2.355 3.021-4.762 5.427-7.219 2.458-2.509 4.966-3.686 7.629-3.686 4.045 0 8.499 0.563 13.312 1.741 4.813 1.126 9.523 2.765 14.182 4.813 4.71 2.048 9.011 4.659 12.902 7.834 3.942 3.226 7.066 6.707 9.37 10.496 1.434 2.355 1.894 4.864 1.28 7.629-0.563 2.765-1.126 4.71-1.741 5.888-3.789 8.448-4.915 17.306-3.533 26.624 1.434 9.318 5.683 17.51 12.646 24.474 7.014 7.014 15.565 10.803 25.754 11.571 10.189 0.717 19.661-0.922 28.365-5.018 2.304-1.434 5.12-2.048 8.499-1.741s6.144 1.638 8.499 3.891c4.352 4.045 8.192 10.291 11.52 18.586 3.379 8.294 5.581 16.691 6.758 25.088 0.563 4.966-0.205 8.806-2.355 11.571-2.202 2.765-4.454 4.557-6.81 5.478-9.011 3.226-16.691 8.806-23.091 16.794s-9.574 17.101-9.574 27.29c0 9.933 2.714 18.586 8.038 26.010 5.376 7.373 12.442 12.749 21.146 15.923 2.048 1.126 3.789 2.355 5.222 3.482 3.277 2.714 5.478 6.093 6.605 10.138v0 0 0zM511.437 785.153c15.002 0 29.184-2.867 42.496-8.499 13.363-5.683 24.934-13.517 34.816-23.501 9.83-10.035 17.613-21.606 23.245-34.816s8.499-27.29 8.499-42.291c0-15.053-2.816-29.133-8.499-42.291-5.632-13.21-13.414-24.73-23.245-34.56s-21.402-17.613-34.816-23.296c-13.312-5.683-27.494-8.55-42.496-8.55s-29.133 2.867-42.291 8.499c-13.107 5.683-24.627 13.466-34.458 23.296s-17.613 21.402-23.245 34.56c-5.632 13.158-8.499 27.29-8.499 42.291s2.867 29.133 8.499 42.291c5.632 13.158 13.414 24.781 23.245 34.816s21.35 17.818 34.509 23.501c13.21 5.683 27.29 8.55 42.24 8.55v0 0 0zM307.2 153.601h409.6v51.2h-409.6v-51.2zM358.4 256.001h307.2v51.2h-307.2v-51.2z"></path>
</svg>
