<!-- Generated by IcoMoon.io -->
<svg version="1.1" xmlns="http://www.w3.org/2000/svg" width="1024" height="1024" viewBox="0 0 1024 1024">
<title></title>
<g id="icomoon-ignore">
</g>
<path d="M972.8 102.401h-921.6c-28.262 0-51.2 22.938-51.2 51.2v716.851c0 28.314 22.938 51.149 51.2 51.149h921.6c28.314 0 51.2-22.835 51.2-51.149v-716.851c0-28.262-22.886-51.2-51.2-51.2zM972.8 870.452h-921.6v-716.851h921.6v716.851zM175.155 307.201h212.838c11.981 0 21.606-11.469 21.606-25.6s-9.626-25.6-21.555-25.6h-212.89c-11.93 0-21.555 11.469-21.555 25.6s9.626 25.6 21.555 25.6zM175.155 460.801h212.838c11.981 0 21.606-11.469 21.606-25.6s-9.626-25.6-21.555-25.6h-212.89c-11.93 0-21.555 11.469-21.555 25.6s9.626 25.6 21.555 25.6zM175.155 614.401h212.838c11.981 0 21.606-11.469 21.606-25.6s-9.626-25.6-21.555-25.6h-212.89c-11.93 0-21.555 11.469-21.555 25.6s9.626 25.6 21.555 25.6zM175.155 768.001h212.838c11.981 0 21.606-11.469 21.606-25.6s-9.626-25.6-21.555-25.6h-212.89c-11.93 0-21.555 11.469-21.555 25.6s9.626 25.6 21.555 25.6zM542.208 768.001h297.984c16.589 0 30.208-11.52 30.208-25.6 0-14.182-13.619-25.6-30.208-25.6h-297.984c-16.64 0-30.208 11.418-30.208 25.6 0 14.080 13.568 25.6 30.208 25.6zM565.811 419.38c-0.717 5.632-1.178 11.571-1.178 17.408s0.512 11.725 1.178 17.408l-37.478 29.286c-3.277 2.662-4.198 7.475-2.099 11.366l35.482 61.44c2.15 3.891 6.963 5.325 10.854 3.891l44.186-17.818c9.216 7.117 19.098 13.005 30.003 17.408l6.707 47.104c0.512 4.301 4.301 7.526 8.704 7.526h71.117c4.403 0 8.090-3.226 8.704-7.526l6.707-47.104c10.803-4.403 20.787-10.496 30.003-17.408l44.186 17.818c4.096 1.587 8.704 0 10.803-3.891l35.584-61.44c2.099-3.891 1.178-8.704-2.202-11.366l-37.376-29.286c0.717-5.683 1.178-11.418 1.178-17.408 0-6.042-0.512-11.725-1.178-17.408l37.376-29.286c3.43-2.662 4.301-7.475 2.202-11.418l-35.584-61.389c-2.099-3.891-6.912-5.325-10.803-3.891l-44.186 17.766c-9.216-7.117-19.2-13.005-30.003-17.408l-6.707-47.053c-0.614-4.301-4.301-7.475-8.704-7.475h-71.117c-4.403 0-8.192 3.174-8.704 7.475l-6.707 47.053c-10.906 4.403-20.787 10.445-30.003 17.408l-44.186-17.766c-4.096-1.587-8.704 0-10.854 3.891l-35.482 61.389c-2.304 3.942-1.178 8.755 2.099 11.418l37.478 29.286zM697.702 374.631c34.304 0 62.208 27.853 62.208 62.157 0 34.253-27.904 62.157-62.208 62.157-34.202 0-62.106-27.904-62.106-62.157 0-34.304 27.904-62.157 62.106-62.157z"></path>
</svg>
