<!-- Generated by IcoMoon.io -->
<svg version="1.1" xmlns="http://www.w3.org/2000/svg" width="1024" height="1024" viewBox="0 0 1024 1024">
<title></title>
<g id="icomoon-ignore">
</g>
<path d="M53.811 478.158c0 0 3.686-144.384 77.312-144.435 73.37-0.051 73.37 144.435 73.37 144.435h-150.682zM132.403 258.356c-128.051-0.102-133.018 220.467-132.352 277.709 0 0-6.246 257.843 129.229 257.843 116.429 0 122.163-161.792 122.163-161.792l-53.555 0.256c0 0-10.445 89.139-68.352 86.733-74.496-3.072-77.363-162.765-77.363-162.765h206.336c-0.051 0.051 15.616-297.933-126.106-297.984v0 0zM389.939 716.955c-81.306 2.253-79.974-190.822-79.974-190.822s-2.97-185.856 79.872-190.618c82.79-4.762 80.128 194.56 80.128 194.56s1.28 184.576-80.026 186.88v0 0zM401.766 258.356c-64.358-0.819-92.058 84.326-92.058 84.326v-284.928h-51.61l0.87 602.163c0 0-0.307 70.144-2.253 116.48h50.125l2.15-67.635c0 0 23.398 85.146 91.699 85.146 68.352 0 122.266-93.133 123.75-265.83 1.434-172.646-58.266-268.954-122.675-269.722v0 0zM628.019 721.102c0 0-51.712 0.154-54.784-91.29-3.226-97.587 79.565-91.75 79.565-91.75l58.522-0.154c0 0 9.472 185.907-83.302 183.194v0 0zM762.88 657.563c0.154-77.875 1.178-147.456 0-196.506-1.331-56.883 1.075-194.15-110.029-204.339 0 0-106.547-21.504-117.606 154.010h54.477c0 0 4.25-80.384 59.546-78.080 52.326 2.202 61.85 58.982 61.594 128.819 0 0-44.851 0.256-59.802 0.461-26.982 0.307-121.395 6.912-130.202 134.144-10.496 151.296 50.534 198.451 98.304 197.888 47.77-0.614 75.008-32.205 95.232-88.934l2.15 70.4 47.462-0.614c-0.051 0-1.28-39.373-1.126-117.248v0 0zM734.669 277.403h59.853l87.603 386.406 87.757-386.406h54.118l-158.464 688.845h-57.856l45.824-191.437-118.835-497.408z"></path>
</svg>
