<!-- Generated by IcoMoon.io -->
<svg version="1.1" xmlns="http://www.w3.org/2000/svg" width="1024" height="1024" viewBox="0 0 1024 1024">
<title></title>
<g id="icomoon-ignore">
</g>
<path d="M972.8 102.401h-921.6c-21.504 0-51.2 23.040-51.2 51.2v716.8c0 24.422 27.648 51.2 51.2 51.2h921.6c30.925 0 51.2-23.45 51.2-51.2v-728.73c0-24.371-26.829-39.27-51.2-39.27zM972.8 870.401h-921.6v-665.6c0-51.2 24.166-46.541 24.474-46.746l438.118 438.17 438.17-438.17c0.563 0.512 20.838-4.454 20.838 46.746v665.6zM878.234 148.942l-364.493 364.493-364.493-364.493h728.986z"></path>
</svg>
