<!-- Generated by IcoMoon.io -->
<svg version="1.1" xmlns="http://www.w3.org/2000/svg" width="1024" height="1024" viewBox="0 0 1024 1024">
<title></title>
<g id="icomoon-ignore">
</g>
<path d="M857.907 977.409h-691.814c-59.955 0-113.664-31.027-143.616-82.893-29.952-51.917-29.952-113.92 0-165.837l345.907-599.142c30.003-51.917 83.661-82.944 143.616-82.944s113.613 31.027 143.616 82.893l345.907 599.142c29.952 51.917 29.952 113.92 0 165.837s-83.661 82.944-143.616 82.944zM408.013 152.372l-345.907 599.142c-21.709 37.632-21.709 82.534 0 120.064 21.709 37.632 60.57 60.058 103.987 60.058h691.814c43.418 0 82.278-22.426 103.987-60.058 21.709-37.581 21.709-82.483 0-120.064l-345.907-599.142c-21.709-37.53-60.57-60.006-103.987-60.006s-82.278 22.477-103.987 60.006v0zM486.4 239.156h51.149v457.472h-51.149v-457.472zM557.722 788.123c0 25.251-20.47 45.722-45.722 45.722s-45.722-20.47-45.722-45.722c0-25.251 20.47-45.722 45.722-45.722s45.722 20.47 45.722 45.722z"></path>
</svg>
