<!-- Generated by IcoMoon.io -->
<svg version="1.1" xmlns="http://www.w3.org/2000/svg" width="1024" height="1024" viewBox="0 0 1024 1024">
<title></title>
<g id="icomoon-ignore">
</g>
<path d="M0 259.739h241.152v54.579h-183.347v167.424h169.421v53.862h-169.421v227.994h-57.805v-503.859zM323.328 266.446c25.242-5.99 65.126-10.445 105.626-10.445 57.805 0 95.027 11.213 122.931 36.608 23.245 19.456 37.171 49.357 37.171 88.986 0 48.589-28.57 91.187-75.725 110.643v1.485c42.496 11.93 92.365 51.558 92.365 126.31 0 43.315-15.309 76.237-37.888 100.915-31.232 32.102-81.715 47.053-154.778 47.053-39.834 0-70.4-2.918-89.651-5.939v-495.616zM381.133 472.782h52.48c61.133 0 97.024-35.84 97.024-84.48 0-59.085-39.885-82.227-98.355-82.227-26.573 0-41.83 2.253-51.149 4.506v162.202zM381.133 714.241c11.264 2.202 27.904 3.021 48.486 3.021 59.75 0 114.944-24.678 114.944-97.997 0-68.71-52.48-97.126-115.61-97.126h-47.821v192.102zM755.61 605.083l-46.438 158.464h-59.802l152.166-503.859h69.734l152.73 503.859h-61.798l-47.77-158.464h-158.822zM902.4 554.241l-43.776-144.998c-9.984-32.87-16.64-62.771-23.245-91.955h-1.331c-6.656 29.901-13.978 60.518-22.63 91.238l-43.878 145.766h134.861z"></path>
</svg>
