<!-- Generated by IcoMoon.io -->
<svg version="1.1" xmlns="http://www.w3.org/2000/svg" width="1024" height="1024" viewBox="0 0 1024 1024">
<title></title>
<g id="icomoon-ignore">
</g>
<path d="M998.4 967.118h-941.517v-941.517c0-14.080-11.52-25.6-25.6-25.6h-5.683c-14.080 0-25.6 11.52-25.6 25.6v972.8c0 14.080 11.52 25.6 25.6 25.6h972.8c14.080 0 25.6-11.52 25.6-25.6v-5.683c0-14.080-11.52-25.6-25.6-25.6zM445.030 467.303l81.818 108.493 325.53-245.504 47.258 62.618 45.517-165.376-171.52-1.69 51.507 68.25-289.382 218.266-81.869-108.493-289.331 218.214 27.29 36.198z"></path>
</svg>
