<!-- Generated by IcoMoon.io -->
<svg version="1.1" xmlns="http://www.w3.org/2000/svg" width="1024" height="1024" viewBox="0 0 1024 1024">
<title></title>
<g id="icomoon-ignore">
</g>
<path d="M512 51.201c254.106 0 460.8 206.694 460.8 460.8s-206.694 460.8-460.8 460.8c-254.106 0-460.8-206.694-460.8-460.8s206.694-460.8 460.8-460.8zM512 0.001c-282.778 0-512 229.222-512 512s229.222 512 512 512c282.778 0 512-229.222 512-512s-229.222-512-512-512v0zM703.59 257.179c-11.622-7.936-27.648-4.915-35.584 6.707l-136.755 200.192h-26.317l-149.658-197.581c-8.55-11.213-24.678-13.414-35.891-4.915s-13.466 24.627-4.966 35.84l126.259 166.656h-54.118c-14.080 0-25.6 11.52-25.6 25.6s11.52 25.6 25.6 25.6h102.4v99.123h-102.4c-14.080 0-25.6 11.52-25.6 25.6s11.52 25.6 25.6 25.6h102.4v102.4c0 14.080 11.52 25.6 25.6 25.6s25.6-11.52 25.6-25.6v-102.4h102.4c14.080 0 25.6-11.52 25.6-25.6s-11.52-25.6-25.6-25.6h-102.4v-99.123h102.4c14.080 0 25.6-11.52 25.6-25.6s-11.52-25.6-25.6-25.6h-49.306l117.043-171.315c7.936-11.622 4.915-27.648-6.707-35.584z"></path>
</svg>
