<!-- Generated by IcoMoon.io -->
<svg version="1.1" xmlns="http://www.w3.org/2000/svg" width="1024" height="1024" viewBox="0 0 1024 1024">
<title></title>
<g id="icomoon-ignore">
</g>
<path d="M552.448 161.793c-9.267-6.349-22.016-3.942-28.314 5.325l-108.902 159.386h-20.941l-119.142-157.286c-6.758-8.96-19.61-10.701-28.518-3.942s-10.752 19.61-3.942 28.57l100.506 132.659h-43.11c-11.213 0-20.378 9.165-20.378 20.378s9.165 20.378 20.378 20.378h81.51v78.899h-81.51c-11.213 0-20.378 9.165-20.378 20.378s9.165 20.378 20.378 20.378h81.51v81.51c0 11.213 9.165 20.378 20.378 20.378s20.378-9.165 20.378-20.378v-81.51h81.51c11.213 0 20.378-9.165 20.378-20.378s-9.165-20.378-20.378-20.378h-81.51v-78.95h81.51c11.213 0 20.378-9.165 20.378-20.378s-9.165-20.378-20.378-20.378h-39.27l93.184-136.397c6.349-9.216 3.942-21.965-5.325-28.262zM85.709 53.915h592.845v44.339c0 35.021 28.416 63.437 63.437 63.437h98.253v377.242h53.914v-381.44l-202.547-157.491h-605.901c-29.645 0-53.914 24.269-53.914 53.914v862.31c0 29.645 24.269 53.914 53.914 53.914h377.242v-53.914h-377.242v-862.31zM988.877 844.187l-43.776-73.779c0-2.304-2.304-2.304-2.304-4.608l-2.304-2.304c-2.304 0-2.304-2.304-4.608-2.304s-2.304-2.304-4.608-2.304-2.304 0-4.608 0c-2.304 0-2.304 0-4.608 0s-2.304 0-4.608 2.304c-2.304 0-2.304 0-4.608 2.304l-73.779 46.080c-11.52 6.912-13.824 20.736-6.912 32.256 4.608 6.912 11.52 11.52 20.736 11.52 4.608 0 9.216 0 11.52-2.304l25.344-16.128c-13.824 82.995-82.995 145.203-170.598 145.203-64.563 0-124.467-36.864-154.419-94.515-6.912-11.52-20.736-16.128-29.952-9.216-11.52 2.304-16.128 16.128-9.216 27.648 36.864 73.882 112.896 119.962 193.587 119.962 108.339 0 198.246-78.387 214.374-182.118l16.128 27.648c4.608 6.912 11.52 11.52 20.736 11.52 4.608 0 6.912 0 11.52-2.304 9.267-9.165 13.875-23.040 6.963-34.56zM530.125 814.235l2.304 2.304c2.304 2.304 6.912 2.304 9.216 2.304s4.608 0 9.216-2.304c0 0 2.304 0 2.304-2.304 2.304 0 4.608-2.304 4.608-2.304l62.259-59.955c9.216-9.216 9.216-23.040 0-32.256s-23.040-9.216-32.256 0l-27.648 25.344c9.216-87.603 85.299-154.419 172.902-154.419 64.563 0 124.467 36.864 152.115 96.819 4.608 11.52 18.432 16.128 29.952 11.52s16.128-18.432 11.52-29.952c-36.864-73.779-110.643-119.859-193.638-122.163h-2.304c-110.643 0-200.55 82.995-216.678 189.030l-11.52-20.736c-9.216-9.216-23.040-9.216-32.256-2.304-9.216 9.216-9.216 23.040-2.304 32.256l57.651 64.563c2.253 2.253 2.253 2.253 4.557 4.557z"></path>
</svg>
