<!-- Generated by IcoMoon.io -->
<svg version="1.1" xmlns="http://www.w3.org/2000/svg" width="1024" height="1024" viewBox="0 0 1024 1024">
<title></title>
<g id="icomoon-ignore">
</g>
<path d="M426.65 0.001h-369.766c-31.283 0-56.883 25.6-56.883 56.883v369.766c0 31.283 25.6 56.883 56.883 56.883h369.766c31.283 0 56.883-25.6 56.883-56.883v-369.766c0-31.283-25.6-56.883-56.883-56.883zM426.65 426.651h-369.766v-369.766h369.766v369.766zM426.65 540.468h-369.766c-31.283 0-56.883 25.6-56.883 56.883v369.766c0 31.283 25.6 56.883 56.883 56.883h369.766c31.283 0 56.883-25.6 56.883-56.883v-369.766c0-31.283-25.6-56.883-56.883-56.883zM426.65 967.118h-369.766v-369.766h369.766v369.766zM967.117 0.001h-369.766c-31.283 0-56.883 25.6-56.883 56.883v369.766c0 31.283 25.6 56.883 56.883 56.883h369.766c31.283 0 56.883-25.6 56.883-56.883v-369.766c0-31.283-25.6-56.883-56.883-56.883zM967.117 426.651h-369.766v-369.766h369.766v369.766zM967.117 540.468h-369.766c-31.283 0-56.883 25.6-56.883 56.883v369.766c0 31.283 25.6 56.883 56.883 56.883h369.766c31.283 0 56.883-25.6 56.883-56.883v-369.766c0-31.283-25.6-56.883-56.883-56.883zM967.117 967.118h-369.766v-369.766h369.766v369.766z"></path>
</svg>
