<!-- Generated by IcoMoon.io -->
<svg version="1.1" xmlns="http://www.w3.org/2000/svg" width="1024" height="1024" viewBox="0 0 1024 1024">
<title></title>
<g id="icomoon-ignore">
</g>
<path d="M127.693 476.571c-1.126 11.725-1.792 23.501-1.792 35.43s0.666 23.706 1.792 35.379l-89.856 71.014c-19.456 15.974-24.474 43.315-11.981 65.024l95.795 167.629c12.186 21.248 38.195 31.539 62.822 22.067l105.267-42.803c19.302 13.926 39.475 25.754 60.416 35.43l15.872 113.818c3.84 24.627 25.446 43.162 50.227 43.162h191.693c25.139 0 46.234-18.022 50.278-43.52l15.974-113.459c20.736-9.728 41.114-21.606 60.365-35.43l105.574 42.957c22.682 8.806 50.176-0.973 62.413-22.221l95.744-167.629c12.493-21.76 7.475-49.152-12.288-65.28l-89.446-70.707c1.229-11.622 1.792-23.45 1.792-35.379 0-11.981-0.614-23.757-1.792-35.43l89.958-71.014c19.302-16.026 24.32-43.315 11.776-64.973l-95.846-167.731c-12.186-21.248-38.758-31.488-62.72-21.965l-105.318 42.803c-19.302-13.875-39.578-25.754-60.314-35.43l-15.974-113.92c-3.942-24.986-25.037-43.11-50.176-43.11h-191.693c-24.883 0-46.387 18.534-50.33 43.571l-15.872 113.408c-20.838 9.779-41.011 21.658-60.365 35.482l-105.523-43.008c-5.888-2.304-12.032-3.43-18.483-3.43-18.022 0-34.918 9.779-44.083 25.6l-95.59 167.578c-12.442 21.606-7.629 49.050 12.288 65.536l89.395 70.554zM164.198 200.705l119.347 48.486c8.909 3.686 19.098 2.253 26.624-3.635 23.501-18.278 48.64-33.075 74.854-43.981 8.755-3.584 14.899-11.622 16.23-21.043l17.613-125.594 186.061-2.714 17.971 128.256c1.331 9.421 7.629 17.408 16.282 21.094 25.958 10.752 51.2 25.6 74.854 43.981 4.813 3.635 10.547 5.581 16.435 5.581 3.328 0 6.861-0.666 10.086-2.048l115.098-49.613 96.87 164.198-101.171 79.872c-7.424 5.888-11.162 15.206-9.984 24.525 1.894 14.49 3.123 29.082 3.123 43.93 0 14.797-1.229 29.389-3.226 43.725-1.126 9.37 2.611 18.688 10.086 24.525l100.147 76.442-91.699 166.554-119.142-48.435c-8.96-3.686-19.046-2.253-26.573 3.584-23.603 18.227-48.896 33.126-75.008 44.032-8.858 3.635-14.899 11.622-16.333 21.094l-14.899 125.338-188.672 2.765-17.92-128.205c-1.331-9.472-7.578-17.408-16.333-21.094-26.010-10.854-51.251-25.651-74.906-43.93-7.578-5.837-17.766-7.322-26.675-3.635l-115.046 49.562-96.87-163.994 101.325-80.026c7.373-5.837 11.162-15.206 10.086-24.525-1.894-14.438-3.277-28.979-3.277-43.827 0-14.797 1.331-29.389 3.277-43.776 1.075-9.421-2.714-18.688-10.086-24.525l-100.147-76.39 91.597-166.554zM512 714.651c110.746 0 201.011-90.88 201.011-202.65 0-111.718-90.266-202.701-201.011-202.701-110.848 0-201.011 90.931-201.011 202.701s90.163 202.65 201.011 202.65v0zM512 363.060c81.203 0 147.2 66.816 147.2 148.941 0 82.074-65.997 148.941-147.2 148.941s-147.2-66.867-147.2-148.941c0-82.074 66.048-148.941 147.2-148.941v0z"></path>
</svg>
