<!-- Generated by IcoMoon.io -->
<svg version="1.1" xmlns="http://www.w3.org/2000/svg" width="1024" height="1024" viewBox="0 0 1024 1024">
<title></title>
<g id="icomoon-ignore">
</g>
<path d="M972.8 102.401h-921.6c-28.262 0-51.2 22.938-51.2 51.2v716.851c0 28.314 22.938 51.149 51.2 51.149h921.6c28.314 0 51.2-22.835 51.2-51.149v-716.851c0-28.262-22.886-51.2-51.2-51.2zM972.8 870.452h-921.6v-716.851h921.6v716.851zM222.72 395.675v-115.558h-22.272v113.766c0 33.843-11.776 42.803-31.795 42.803-7.424 0-14.080-1.536-18.688-3.277l-3.328 18.074c5.632 2.355 15.616 4.096 23.808 4.096 29.747 0 52.275-14.029 52.275-59.904zM327.219 455.579c44.083 0 80.179-31.488 80.179-90.931 0-51.251-30.515-87.398-77.67-87.398-46.131 0-80.179 35.891-80.179 90.675 0 52.326 32.051 87.654 77.67 87.654zM328.704 295.476c37.171 0 55.091 35.891 55.091 70.246 0 39.219-19.968 71.782-55.347 71.782-35.123 0-55.091-33.075-55.091-69.99 0-37.939 18.483-72.038 55.347-72.038zM503.552 455.579c44.083 0 80.23-31.488 80.23-90.931 0-51.251-30.515-87.398-77.67-87.398-46.131 0-80.179 35.891-80.179 90.675 0 52.326 32 87.654 77.619 87.654zM505.088 295.476c37.171 0 55.091 35.891 55.091 70.246 0 39.219-20.019 71.782-55.347 71.782-35.123 0-55.091-33.075-55.091-69.99 0-37.939 18.483-72.038 55.347-72.038zM633.856 378.727c1.485-25.907 2.816-54.835 3.277-76.39h0.512c4.915 20.48 11.776 42.803 20.019 67.174l27.955 82.227h16.896l30.515-83.763c8.704-23.808 15.923-45.363 21.76-65.587h0.819c-0.256 21.504 1.28 50.483 2.56 74.598l4.352 75.827h21.811l-10.752-172.698h-28.467l-30.771 83.507c-7.68 21.76-13.824 40.755-18.176 58.163h-0.768c-4.403-17.971-10.24-36.915-17.459-58.163l-29.44-83.507h-28.467l-12.032 172.698h21.248l4.608-74.086zM844.8 716.801h-665.6c-14.131 0-25.6 11.469-25.6 25.6s11.469 25.6 25.6 25.6h665.6c14.131 0 25.6-11.469 25.6-25.6s-11.469-25.6-25.6-25.6zM153.6 640.001c0 14.131 11.469 25.6 25.6 25.6h665.6c14.131 0 25.6-11.469 25.6-25.6s-11.469-25.6-25.6-25.6h-665.6c-14.131 0-25.6 11.469-25.6 25.6z"></path>
</svg>
