<!-- Generated by IcoMoon.io -->
<svg version="1.1" xmlns="http://www.w3.org/2000/svg" width="1024" height="1024" viewBox="0 0 1024 1024">
<title></title>
<g id="icomoon-ignore">
</g>
<path d="M86.426 264.091h35.789v331.725c0 131.686-36.198 172.186-83.968 172.186-13.158 0-29.184-5.171-38.246-11.776l5.325-52.275c7.424 5.171 18.125 9.523 30.054 9.523 32.102 0 51.046-25.754 51.046-122.829v-326.554zM418.765 506.83c0 170.65-58.010 261.171-128.768 261.171-73.267 0-124.723-101.581-124.723-251.648 0-157.389 54.733-260.352 128.819-260.352 75.674 0 124.672 103.68 124.672 250.829zM203.52 514.919c0 105.933 32.102 200.806 88.474 200.806 56.781 0 88.883-93.44 88.883-205.978 0-98.56-28.826-201.574-88.474-201.574-59.238 0.051-88.883 97.894-88.883 206.746zM702.054 506.83c0 170.65-58.010 261.171-128.768 261.171-73.267 0-124.723-101.581-124.723-251.648 0-157.389 54.733-260.352 128.819-260.352 75.674 0 124.672 103.68 124.672 250.829zM486.81 514.919c0 105.933 32.102 200.806 88.474 200.806 56.781 0 88.883-93.44 88.883-205.978 0-98.56-28.826-201.574-88.474-201.574-59.238 0.051-88.883 97.894-88.883 206.746zM982.067 542.158c-2.048-69.171-4.557-152.32-4.147-214.118h-1.178c-9.472 58.163-20.992 119.91-35.021 188.314l-48.947 240.589h-27.187l-44.851-236.134c-13.158-69.888-24.269-133.939-32.051-192.768h-0.87c-0.87 61.798-2.918 144.947-5.325 219.29l-7.424 212.582h-34.202l19.354-495.821h45.67l47.36 239.821c11.52 61.082 20.992 115.456 28.006 167.014h1.178c7.014-50.022 16.896-104.499 29.235-167.014l49.357-239.821h45.67l17.306 495.77h-34.97l-6.963-217.702z"></path>
</svg>
