<!-- Generated by IcoMoon.io -->
<svg version="1.1" xmlns="http://www.w3.org/2000/svg" width="1024" height="1024" viewBox="0 0 1024 1024">
<title></title>
<g id="icomoon-ignore">
</g>
<path d="M407.296 744.347h-82.176l-174.592-211.2c-5.99-7.424-10.086-13.21-12.288-17.408h-1.536v228.608h-60.006v-464.691h60.006v218.675h1.485c3.379-5.376 7.475-11.11 12.288-17.101l168.602-201.626h74.138l-195.021 222.925 209.101 241.818zM526.694 570.676v173.722h-60.006v-464.742h131.994c50.176 0 89.139 12.083 116.838 36.301s41.574 58.778 41.574 103.782c0 45.619-16.179 82.534-48.589 110.848s-72.909 41.626-121.498 40.038h-60.314zM526.694 332.443v185.395h55.501c36.608 0 64.41-8.243 83.405-24.73s28.518-40.141 28.518-70.963c0-59.802-35.379-89.702-106.189-89.702h-61.235zM947.302 330.343h-44.698v363.315h44.698v50.688h-149.402v-50.688h44.698v-363.315h-44.698v-50.688h149.402v50.688z"></path>
</svg>
