<!-- Generated by IcoMoon.io -->
<svg version="1.1" xmlns="http://www.w3.org/2000/svg" width="1024" height="1024" viewBox="0 0 1024 1024">
<title></title>
<g id="icomoon-ignore">
</g>
<path d="M218.624 656.385v-327.168h-42.445v365.568h173.619c-7.987-16.794 9.626-38.4 9.626-38.4h-140.8zM603.802 328.807l16.026 38.4h178.432l-115.2 183.194c-5.581-5.581-25.651-11.213-25.651-11.213l-88.781-210.381h-38.4l-165.581 365.568 37.581 0.819 45.517-102.707c112.896-67.686 219.341-15.718 219.341-15.718l-63.232 98.406 7.987 19.2h206.438c-6.4-11.981 11.213-38.4 11.213-38.4h-167.987l186.419-297.574v-29.594h-244.122zM465.408 544.82l84.019-177.562 67.994 160.768c0 0-96-15.206-152.013 16.794zM512 0.052c-282.675 0-512 229.222-512 512s229.325 512 512 512c282.829 0 512.051-229.222 512.051-512s-229.222-512-512.051-512zM512 985.601c-261.478 0-473.6-212.019-473.6-473.6 0-261.53 212.122-473.6 473.6-473.6 261.632 0 473.651 212.070 473.651 473.6 0 261.581-212.019 473.6-473.651 473.6z"></path>
</svg>
