<!-- Generated by IcoMoon.io -->
<svg version="1.1" xmlns="http://www.w3.org/2000/svg" width="1024" height="1024" viewBox="0 0 1024 1024">
<title></title>
<g id="icomoon-ignore">
</g>
<path d="M212.992 669.236c-13.107-12.8-31.13-20.838-50.944-20.838-19.354 0-37.325 8.090-50.381 20.838v0.563c-13.107 12.544-21.094 30.515-21.094 50.893 0 18.483 7.475 36.147 20.019 49.101l1.075 1.024c13.056 12.851 31.027 20.582 50.381 20.582s37.171-7.219 49.869-20.122l1.075-0.512v-0.154c13.056-12.8 20.787-30.362 20.787-49.971-0.051-20.326-7.782-38.298-20.787-51.405zM182.886 741.070c-5.12 5.222-12.544 8.243-20.838 8.243-7.834 0-15.206-3.021-20.326-8.243l-1.434-0.768c-4.557-5.53-7.322-12.032-7.322-19.61 0-8.806 3.174-15.821 8.755-21.248 5.12-5.12 12.544-8.346 20.326-8.346 8.346 0 15.718 3.021 20.838 8.346 5.478 5.478 8.499 12.442 8.499 21.299-0.051 7.68-3.072 14.746-8.499 20.326zM162.15 258.561c-14.080 0-25.6 11.52-25.6 25.6v256c0 14.080 11.52 25.6 25.6 25.6s25.6-11.52 25.6-25.6v-256c0-14.080-11.52-25.6-25.6-25.6v0zM468.992 669.236c-13.107-12.8-31.13-20.838-50.944-20.838-19.354 0-37.325 8.090-50.381 20.838v0.563c-13.107 12.544-21.094 30.515-21.094 50.893 0 18.483 7.475 36.147 20.019 49.101l1.075 1.024c13.056 12.851 31.027 20.582 50.381 20.582s37.171-7.219 49.869-20.122l1.075-0.512v-0.154c13.056-12.8 20.787-30.362 20.787-49.971-0.051-20.326-7.782-38.298-20.787-51.405zM438.886 741.070c-5.12 5.222-12.544 8.243-20.838 8.243-7.834 0-15.206-3.021-20.326-8.243l-1.434-0.768c-4.557-5.53-7.322-12.032-7.322-19.61 0-8.806 3.174-15.821 8.755-21.248 5.12-5.12 12.544-8.346 20.326-8.346 8.346 0 15.718 3.021 20.838 8.346 5.478 5.478 8.499 12.442 8.499 21.299-0.051 7.68-3.072 14.746-8.499 20.326zM418.15 258.561c-14.080 0-25.6 11.52-25.6 25.6v256c0 14.080 11.52 25.6 25.6 25.6s25.6-11.52 25.6-25.6v-256c0-14.080-11.52-25.6-25.6-25.6v0zM1011.814 816.027l-170.752-683.52c-6.81-25.088-29.747-41.728-54.63-41.728-4.864 0-9.83 0.614-14.746 1.946l-201.165 54.63c-6.4-24.166-27.546-42.496-53.658-42.496h-450.099c-31.078 0-56.525 25.446-56.525 56.525v706.15c0 31.078 25.446 56.525 56.525 56.525h450.15c31.078 0 56.525-25.446 56.525-56.525v-535.142l136.038 542.464c9.523 35.174 41.421 58.317 76.186 58.317 6.861 0 13.824-0.922 20.736-2.765l165.683-45.005c30.003-8.141 47.872-39.373 39.731-69.376zM266.189 872.961h-199.424c-2.816 0-5.325-2.509-5.325-5.325v-706.15c0-2.867 2.509-5.325 5.325-5.325h199.475v716.8zM522.24 867.585c0 2.816-2.509 5.325-5.325 5.325h-199.526v-716.8h199.475c2.867 0 5.325 2.509 5.325 5.325v706.15zM958.669 835.995l-165.683 45.005c-2.406 0.666-4.864 0.973-7.322 0.973-12.493 0-23.501-8.448-26.522-19.558l-167.475-667.699 193.434-52.531c0.461-0.102 0.87-0.205 1.331-0.205 1.997 0 4.557 1.382 4.966 2.918l171.008 684.493c0.666 2.509-1.331 5.939-3.738 6.605zM873.37 649.934c-16.026-8.909-35.482-11.981-54.63-6.758-18.688 5.069-33.894 17.562-43.162 33.331l0.154 0.563c-9.37 15.514-12.39 34.97-7.014 54.63 4.864 17.869 16.691 32.922 32.205 42.138l1.331 0.666c15.923 9.011 35.328 11.776 54.016 6.707s33.997-16.742 42.854-32.461l0.922-0.768-0.051-0.154c9.216-15.77 12.083-34.765 6.963-53.658-5.427-19.661-17.613-35.021-33.587-44.237zM863.13 727.092c-3.584 6.349-9.933 11.213-17.971 13.414-7.526 2.048-15.462 1.075-21.811-2.611l-1.587-0.358c-5.837-4.147-10.189-9.677-12.186-16.998-2.304-8.499-1.075-16.077 2.867-22.835 3.584-6.298 9.933-11.315 17.459-13.363 8.038-2.202 15.974-1.178 22.323 2.56 6.707 3.84 11.469 9.779 13.773 18.33 1.997 7.475 0.922 15.104-2.867 21.862zM723.302 266.036c-2.202 0-4.454 0.307-6.656 0.87-13.568 3.686-21.709 17.818-17.971 31.437l67.072 247.040c3.072 11.366 13.466 18.893 24.73 18.893 2.202 0 4.454-0.307 6.656-0.87 13.568-3.686 21.709-17.818 17.971-31.437l-67.072-247.040c-3.072-11.366-13.466-18.893-24.73-18.893v0z"></path>
</svg>
