<!-- Generated by IcoMoon.io -->
<svg version="1.1" xmlns="http://www.w3.org/2000/svg" width="1024" height="1024" viewBox="0 0 1024 1024">
<title></title>
<g id="icomoon-ignore">
</g>
<path d="M542.259 784.334h-60.57c-23.603 0-28.621 4.966-28.621 28.57v62.208c0 23.501 5.018 28.518 28.621 28.518h60.57c23.501 0 28.57-5.018 28.57-28.518v-62.208c-1.741-23.603-6.656-28.57-28.57-28.57zM340.326 377.294h-60.416c-23.552 0-28.672 5.069-28.672 28.672v62.157c0 23.552 5.12 28.621 28.672 28.621h60.416c23.654 0 28.57-5.069 28.57-28.621v-62.157c-1.536-25.293-6.554-28.672-28.57-28.672zM340.326 580.711h-60.416c-23.552 0-28.672 5.171-28.672 28.723v60.518c0 23.552 5.12 28.621 28.672 28.621h60.416c23.654 0 28.57-5.069 28.57-28.621v-62.208c-1.536-21.914-6.554-27.034-28.57-27.034zM340.326 784.334h-60.416c-23.552 0-28.672 4.966-28.672 28.57v62.208c0 23.501 5.12 28.518 28.672 28.518h60.416c23.654 0 28.57-5.018 28.57-28.518v-62.208c-1.536-23.603-6.554-28.57-28.57-28.57zM683.571 903.579h60.467c23.552 0 28.57-5.018 28.57-28.518v-62.208c-1.536-23.603-6.656-28.57-28.57-28.57h-60.467c-23.654 0-28.672 4.966-28.672 28.57v62.208c0 23.552 5.018 28.518 28.672 28.518zM453.069 609.383v60.518c0 23.552 5.018 28.621 28.621 28.621h60.57c23.501 0 28.57-5.069 28.57-28.621v-62.208c-1.69-21.862-6.656-26.982-28.57-26.982h-60.57c-23.603 0-28.621 5.12-28.621 28.672zM1013.914 377.806l-482.304-372.634c-5.786-4.454-12.902-5.888-19.558-4.864-6.707-1.024-13.824 0.41-19.61 4.864l-482.406 372.634c-11.213 8.653-13.312 24.678-4.71 35.942 8.602 11.213 24.576 13.312 35.942 4.762l29.286-22.682 0.051 602.266c0 0.256-0.154 0.512-0.154 0.768 0 14.131 11.52 25.6 25.6 25.6h831.795c14.182 0 25.651-11.418 25.651-25.6v-603.034l29.338 22.682c11.213 8.55 27.187 6.451 35.84-4.71 8.653-11.315 6.502-27.341-4.762-35.994zM902.195 973.211h-780.442v-617.011l390.298-301.414 390.144 301.414v617.011z"></path>
</svg>
