<!-- Generated by IcoMoon.io -->
<svg version="1.1" xmlns="http://www.w3.org/2000/svg" width="1024" height="1024" viewBox="0 0 1024 1024">
<title></title>
<g id="icomoon-ignore">
</g>
<path d="M908.032 366.286h-24.576v-118.682c0-0.717-0.102-1.485-0.205-2.253-0.051-4.71-1.536-9.318-4.762-13.005l-197.427-225.536c-0.051-0.051-0.102-0.102-0.154-0.154-1.178-1.331-2.56-2.406-3.994-3.328-0.41-0.307-0.87-0.512-1.331-0.768-1.28-0.666-2.611-1.229-3.942-1.69-0.358-0.102-0.717-0.256-1.075-0.358-1.536-0.307-3.072-0.512-4.659-0.512h-485.222c-22.118 0-40.141 18.022-40.141 40.141v326.093h-24.576c-31.693 0-57.395 25.702-57.395 57.395v298.445c0 31.693 25.702 57.395 57.395 57.395h24.576v204.339c0 22.17 18.022 40.192 40.141 40.192h662.579c22.118 0 40.141-18.022 40.141-40.141v-204.339h24.576c31.693 0 57.395-25.702 57.395-57.395v-298.445c0.051-31.744-25.651-57.395-57.344-57.395zM180.685 40.142h465.152v205.466c0 11.11 9.011 20.070 20.070 20.070h177.357v100.608h-662.579v-326.144zM593.562 566.683c0 89.242-54.118 143.309-133.632 143.309-80.742 0-128-60.979-128-138.496 0-81.562 52.070-142.541 132.403-142.541 83.61 0.051 129.229 62.618 129.229 137.728zM153.446 705.588v-272.128h61.747v220.467h108.237v51.661h-169.984zM843.315 972.955h-662.63v-193.434h662.579l0.051 193.434zM861.286 693.044c-18.995 6.451-54.886 15.309-90.829 15.309-49.664 0-85.606-12.493-110.643-36.71-25.037-23.398-38.758-58.982-38.349-98.918 0.41-90.47 66.202-142.131 155.443-142.131 35.123 0 62.157 6.912 75.52 13.312l-12.902 49.254c-14.95-6.451-33.485-11.725-63.386-11.725-51.251 0-90.061 29.082-90.061 88.013 0 56.115 35.123 89.242 85.606 89.242 14.131 0 25.446-1.587 30.259-3.994v-56.934h-41.984v-48.026h101.325v143.309zM396.954 570.318c0 53.299 25.037 90.829 66.202 90.829 41.574 0 65.382-39.578 65.382-92.467 0-48.845-23.398-90.88-65.792-90.88-41.574 0.051-65.792 39.629-65.792 92.518z"></path>
</svg>
