<!-- Generated by IcoMoon.io -->
<svg version="1.1" xmlns="http://www.w3.org/2000/svg" width="1024" height="1024" viewBox="0 0 1024 1024">
<title></title>
<g id="icomoon-ignore">
</g>
<path d="M839.424 382.977c2.611 0 5.274-0.614 7.834-1.894 9.523-4.762 13.722-17.101 9.421-27.597l-26.931-65.178c-4.301-10.496-15.565-15.104-25.088-10.342s-13.722 17.101-9.421 27.597l26.931 65.178c3.226 7.731 10.086 12.237 17.254 12.237v0zM1049.498 576.871c-3.482-37.018-21.402-61.747-26.010-67.584l-105.523-159.795-39.27-94.31c-0.102-0.256-0.205-0.512-0.358-0.768-24.781-53.504-52.582-56.832-60.723-56.525h-44.288c-10.445 0-18.944 9.318-18.944 20.838s8.448 20.838 18.944 20.838h44.698c0.051 0 0.051 0 0.102 0 1.69 0.461 12.851 4.454 26.317 33.382l39.885 95.795c0.512 1.28 1.178 2.458 1.894 3.584l107.213 162.304c0.512 0.717 1.024 1.434 1.587 2.099 0.154 0.154 13.926 16.794 16.691 43.366v197.581h-126.822c-5.171 0-10.138 2.304-13.67 6.451-3.584 4.096-5.478 9.677-5.222 15.36 0.051 1.28 0.154 2.355 0.256 3.123-0.41 26.624-20.173 48.179-44.493 48.179-24.269 0-44.083-21.504-44.493-48.128 0.102-0.717 0.205-1.792 0.256-3.021 0.256-5.683-1.638-11.264-5.222-15.36-3.584-4.147-8.499-6.451-13.67-6.451h-33.792v-620.954c0-0.87-0.051-1.741-0.154-2.56l-0.512-4.454c-1.178-10.445-9.216-18.227-18.79-18.227h-701.082c-16.486-0.051-29.901 14.694-29.901 32.819v622.029c0 18.125 13.414 32.87 29.901 32.87h196.096c7.475 41.574 40.858 73.011 80.742 73.011 39.936 0 73.318-31.437 80.742-73.011h201.165c0.358 0 0.614 0 0.973 0 0.41-0.051 40.806-1.843 65.229 21.811 7.834 7.578 19.814 6.758 26.726-1.894s6.144-21.811-1.69-29.389c-34.509-33.434-85.146-32.41-91.597-32.154h-218.47c-5.171 0-10.086 2.304-13.67 6.451-3.584 4.096-5.478 9.626-5.222 15.309 0.051 1.28 0.154 2.355 0.256 3.123-0.41 26.624-20.173 48.179-44.493 48.179-24.269 0-44.083-21.504-44.493-48.128 0.102-0.717 0.205-1.792 0.256-3.021 0.256-5.683-1.638-11.264-5.222-15.36-3.584-4.147-8.55-6.451-13.722-6.451h-205.67v-604.621h674.867v625.664c0 5.683 2.15 11.162 5.888 15.104s8.858 5.99 13.978 5.683l4.966-0.256h29.082c7.475 41.574 40.858 73.011 80.794 73.011s73.318-31.437 80.794-73.011h117.094c16.486 0 29.901-14.746 29.901-32.87v-207.462c0-0.768-0.051-1.485-0.102-2.202v0zM246.426 611.534c0 26.317-11.11 36.403-68.25 42.957-1.536-15.667-6.093-28.826-19.2-47.514 34.355 9.114 47.002 3.533 47.002-15.667v-178.944c-30.874 0.512-53.094 1.536-68.762 3.021v-40.909c17.203 2.56 43.52 3.533 82.944 3.533-13.67-20.224-33.894-42.445-54.118-58.624l27.802-23.757c10.138 9.626 20.736 20.224 30.874 31.334l35.328-57.651c-67.226 0-97.536 1.024-111.718 3.072v-41.984c14.131 2.509 47.514 4.045 87.962 4.045 39.424 0 71.782-1.536 85.402-4.045-21.76 33.382-40.96 64.205-74.803 119.808 5.12 5.069 9.626 10.138 14.182 15.155l-15.155 12.646c42.445-0.512 70.758-2.509 83.917-4.557l-22.784 97.587-38.912-7.578 17.152-51.046h-38.912v199.117zM464.794 436.635c-1.536 31.334-3.072 53.555-8.602 90.982-9.114 60.672-57.139 98.56-138.496 132.966-8.090-11.674-19.712-23.757-36.403-36.915 92.518-23.757 132.966-60.672 139.008-116.275 4.557-42.957 5.581-73.779 3.072-112.179 16.691 3.533 37.888 5.069 48.538 4.045 5.069-0.512 6.042 1.536 1.485 6.093-2.56 2.458-8.090 20.685-8.602 31.283zM339.405 271.361v-43.981c28.314 3.021 62.208 4.557 115.251 4.557 53.094 0 89.498-1.536 117.76-4.557v43.981c-25.754-2.509-58.112-4.045-103.117-4.045-6.042 19.712-12.083 43.981-17.152 65.741 48.538 0 78.848-1.024 102.605-4.045-2.048 11.622-3.072 28.314-3.072 62.669v90.47c0 23.757 1.024 42.496 4.045 63.181h-44.442v-179.456h-129.894v181.453h-42.957c3.021-22.272 4.557-42.496 4.557-63.181v-92.467c0-29.798-1.024-48.026-3.021-62.669 19.2 2.509 40.909 3.533 73.779 4.045 7.066-22.272 10.598-43.008 10.086-65.741-36.403 0.512-62.157 1.536-84.429 4.045zM548.71 660.583c-25.754-27.802-62.157-62.72-92.979-83.917l26.266-33.331c30.822 24.269 65.69 52.582 96.563 79.36l-29.85 37.888z"></path>
</svg>
