<!-- Generated by IcoMoon.io -->
<svg version="1.1" xmlns="http://www.w3.org/2000/svg" width="1024" height="1024" viewBox="0 0 1024 1024">
<title></title>
<g id="icomoon-ignore">
</g>
<path d="M29.85 81.563c-19.2 0 0-19.251 0 0v614.4c0 19.2 0 0 0 51.2l139.315-0.87c10.547 0 20.378-4.762 27.034-12.851l194.048-240.589 88.576 73.114c14.131 11.725 34.97 10.24 47.514-3.174l172.237-185.805c16.742 10.24 36.403 16.026 57.498 16.026 61.133 0 110.95-49.715 110.95-110.95s-49.715-110.95-110.95-110.95c-61.133 0-110.95 49.715-110.95 110.95 0 14.746 2.867 28.877 8.243 41.779l-155.597 167.68-90.317-74.547c-7.066-5.939-16.333-8.653-25.6-7.782-9.216 0.819-17.613 5.478-23.552 12.698l-226.048 274.074h-51.2v-563.2h870.4v563.2h-460.8c-19.2 0 0 0-51.2 0v204.8h-204.8c-19.2 0-42.547-3.635-42.547 15.565s15.462 34.714 34.662 34.714h466.33c19.2 0 34.662-15.462 34.662-34.714 0-19.2-13.107-15.565-32.307-15.565h-204.8v-153.6h512v-665.6h-972.8zM756.070 240.231c22.989 0 41.626 18.637 41.626 41.626s-18.637 41.626-41.626 41.626c-22.989 0-41.626-18.637-41.626-41.626 0.051-22.989 18.688-41.626 41.626-41.626v0 0zM756.070 240.231v0z"></path>
</svg>
