<!-- Generated by IcoMoon.io -->
<svg version="1.1" xmlns="http://www.w3.org/2000/svg" width="1024" height="1024" viewBox="0 0 1024 1024">
<title></title>
<g id="icomoon-ignore">
</g>
<path d="M1049.498 576.871c-3.482-37.018-21.402-61.747-26.010-67.584l-105.523-159.795-39.27-94.31c-0.102-0.256-0.205-0.512-0.358-0.768-24.781-53.504-52.582-56.832-60.723-56.525h-44.288c-10.445 0-18.944 9.318-18.944 20.838s8.448 20.838 18.944 20.838h44.698c0.051 0 0.051 0 0.102 0 1.69 0.461 12.851 4.454 26.317 33.382l39.885 95.795c0.512 1.28 1.178 2.458 1.894 3.584l107.213 162.304c0.512 0.717 1.024 1.434 1.587 2.099 0.154 0.154 13.926 16.794 16.691 43.366v197.581h-126.822c-5.171 0-10.138 2.304-13.67 6.451-3.584 4.096-5.478 9.677-5.222 15.36 0.051 1.28 0.154 2.355 0.256 3.123-0.41 26.624-20.173 48.179-44.493 48.179-24.269 0-44.083-21.504-44.493-48.128 0.102-0.717 0.205-1.792 0.256-3.021 0.256-5.683-1.638-11.264-5.222-15.36-3.584-4.147-8.499-6.451-13.67-6.451h-33.792v-620.954c0-0.87-0.051-1.741-0.154-2.56l-0.512-4.454c-1.178-10.445-9.216-18.227-18.79-18.227h-701.082c-16.486-0.051-29.901 14.694-29.901 32.819v622.029c0 18.125 13.414 32.87 29.901 32.87h196.096c7.475 41.574 40.858 73.011 80.742 73.011 39.936 0 73.318-31.437 80.742-73.011h201.165c0.358 0 0.614 0 0.973 0 0.41-0.051 40.806-1.843 65.229 21.811 7.834 7.578 19.814 6.758 26.726-1.894s6.144-21.811-1.69-29.389c-34.509-33.434-85.146-32.41-91.597-32.154h-218.47c-5.171 0-10.086 2.304-13.67 6.451-3.584 4.096-5.478 9.626-5.222 15.309 0.051 1.28 0.154 2.355 0.256 3.123-0.41 26.624-20.173 48.179-44.493 48.179-24.269 0-44.083-21.504-44.493-48.128 0.102-0.717 0.205-1.792 0.256-3.021 0.256-5.683-1.638-11.264-5.222-15.36-3.584-4.147-8.55-6.451-13.722-6.451h-205.67v-604.621h674.867v625.664c0 5.683 2.15 11.162 5.888 15.104s8.858 5.99 13.978 5.683l4.966-0.256h29.082c7.475 41.574 40.858 73.011 80.794 73.011s73.318-31.437 80.794-73.011h117.094c16.486 0 29.901-14.746 29.901-32.87v-207.462c0-0.768-0.051-1.485-0.102-2.202v0zM839.424 382.977c2.611 0 5.274-0.614 7.834-1.894 9.523-4.762 13.722-17.101 9.421-27.597l-26.931-65.178c-4.301-10.496-15.565-15.104-25.088-10.342s-13.722 17.101-9.421 27.597l26.931 65.178c3.226 7.731 10.086 12.237 17.254 12.237v0zM202.598 336.59c-13.824 22.989-28.672 43.52-44.493 59.853-2.56-7.168-11.776-22.989-17.92-30.208 30.208-30.208 56.32-75.213 71.629-122.778l29.696 8.192c-6.144 17.408-13.312 35.789-21.504 52.685h107.981v32.256h-125.389zM258.406 495.156h72.653v30.72h-72.653v113.101l58.829-31.693c1.024 9.216 4.608 22.477 7.168 29.133-83.917 47.616-97.229 55.808-104.909 63.949-3.072-8.141-10.752-21.504-16.384-28.672 8.704-5.12 23.501-18.381 23.501-40.397v-105.472h-74.65v-30.72h74.701v-72.602h-52.685v-31.181h145.306v31.181h-60.877v72.653zM393.472 366.695c-8.192-24.525-29.184-64.461-50.125-94.669l26.624-11.776c20.992 28.672 43.469 67.021 51.661 92.109l-28.16 14.336zM588.442 386.715v276.275c0 18.944-4.096 28.672-17.408 34.304-13.824 5.581-36.301 5.581-75.776 5.581-1.024-8.704-5.632-22.016-10.701-30.72 29.696 0.563 55.757 0.563 62.413 0 8.192 0 10.752-2.048 10.752-9.216v-68.557h-176.538v113.613h-30.72v-320.768h105.421v-145.869h31.232v145.869l70.605-0.512h30.72zM381.184 419.483v57.805h176.538v-57.805h-176.538zM557.773 564.788v-57.805h-176.589v57.805h176.589zM603.29 270.030c-17.92 33.229-40.448 71.629-58.829 95.693l-25.6-12.288c17.92-25.037 41.933-67.021 54.733-96.717l29.696 13.312z"></path>
</svg>
