<!-- Generated by IcoMoon.io -->
<svg version="1.1" xmlns="http://www.w3.org/2000/svg" width="1024" height="1024" viewBox="0 0 1024 1024">
<title></title>
<g id="icomoon-ignore">
</g>
<path d="M972.8 174.798h-921.6c-28.314 0-51.2 22.938-51.2 51.2v614.4c0 28.211 22.886 51.2 51.2 51.2h921.6c28.314 0 51.2-22.989 51.2-51.2v-614.4c0-28.262-22.886-51.2-51.2-51.2zM972.8 269.825v526.694c0 8.909-3.43 16.691-8.192 23.603l-286.976-286.925 286.925-286.976c4.813 6.912 8.243 14.694 8.243 23.603zM912.384 225.998l-369.459 369.408c-18.022 18.125-46.49 18.688-63.59 1.587l-371.098-370.995h804.147zM58.061 818.126c-3.942-6.4-6.861-13.619-6.861-21.606v-526.694c0-8.038 2.918-15.206 6.912-21.658l284.877 285.030-284.928 284.928zM108.134 840.398l271.104-271.104 94.925 94.925c19.968 20.019 52.378 20.122 72.397 0l94.925-94.925 271.053 271.104h-804.403z"></path>
</svg>
