<!-- Generated by IcoMoon.io -->
<svg version="1.1" xmlns="http://www.w3.org/2000/svg" width="1024" height="1024" viewBox="0 0 1024 1024">
<title></title>
<g id="icomoon-ignore">
</g>
<path d="M204.8 407.911c-56.525 0-102.4 45.824-102.4 102.4s45.875 102.4 102.4 102.4c56.576 0 102.4-45.824 102.4-102.4 0-56.525-45.824-102.4-102.4-102.4zM204.8 561.563c-28.262 0-51.2-22.989-51.2-51.2s22.938-51.2 51.2-51.2 51.2 22.989 51.2 51.2c0 28.211-22.938 51.2-51.2 51.2zM512 407.911c-56.525 0-102.4 45.824-102.4 102.4s45.875 102.4 102.4 102.4c56.576 0 102.4-45.824 102.4-102.4 0-56.525-45.824-102.4-102.4-102.4zM512 561.563c-28.262 0-51.2-22.989-51.2-51.2s22.938-51.2 51.2-51.2 51.2 22.989 51.2 51.2c0 28.211-22.938 51.2-51.2 51.2zM819.2 407.911c-56.525 0-102.4 45.824-102.4 102.4s45.875 102.4 102.4 102.4c56.576 0 102.4-45.824 102.4-102.4 0-56.525-45.824-102.4-102.4-102.4zM819.2 561.563c-28.262 0-51.2-22.989-51.2-51.2s22.938-51.2 51.2-51.2 51.2 22.989 51.2 51.2c0 28.211-22.938 51.2-51.2 51.2zM204.8 716.801c-56.525 0-102.4 45.824-102.4 102.4s45.875 102.4 102.4 102.4c56.576 0 102.4-45.824 102.4-102.4s-45.824-102.4-102.4-102.4zM204.8 870.401c-28.262 0-51.2-22.989-51.2-51.2s22.938-51.2 51.2-51.2 51.2 22.989 51.2 51.2c0 28.262-22.938 51.2-51.2 51.2zM512 716.801c-56.525 0-102.4 45.824-102.4 102.4s45.875 102.4 102.4 102.4c56.576 0 102.4-45.824 102.4-102.4s-45.824-102.4-102.4-102.4zM512 870.401c-28.262 0-51.2-22.989-51.2-51.2s22.938-51.2 51.2-51.2 51.2 22.989 51.2 51.2c0 28.262-22.938 51.2-51.2 51.2zM819.2 716.801c-56.525 0-102.4 45.824-102.4 102.4s45.875 102.4 102.4 102.4c56.576 0 102.4-45.824 102.4-102.4s-45.824-102.4-102.4-102.4zM819.2 870.401c-28.262 0-51.2-22.989-51.2-51.2s22.938-51.2 51.2-51.2 51.2 22.989 51.2 51.2c0 28.262-22.938 51.2-51.2 51.2zM204.8 102.401c-56.525 0-102.4 45.824-102.4 102.4s45.875 102.4 102.4 102.4c56.576 0 102.4-45.824 102.4-102.4s-45.824-102.4-102.4-102.4zM204.8 256.001c-28.262 0-51.2-22.938-51.2-51.2 0-28.211 22.938-51.2 51.2-51.2s51.2 22.989 51.2 51.2c0 28.262-22.938 51.2-51.2 51.2zM512 102.401c-56.525 0-102.4 45.824-102.4 102.4s45.875 102.4 102.4 102.4c56.576 0 102.4-45.824 102.4-102.4s-45.824-102.4-102.4-102.4zM512 256.001c-28.262 0-51.2-22.938-51.2-51.2 0-28.211 22.938-51.2 51.2-51.2s51.2 22.989 51.2 51.2c0 28.262-22.938 51.2-51.2 51.2zM819.2 102.401c-56.525 0-102.4 45.824-102.4 102.4s45.875 102.4 102.4 102.4c56.576 0 102.4-45.824 102.4-102.4s-45.824-102.4-102.4-102.4zM819.2 256.001c-28.262 0-51.2-22.989-51.2-51.2s22.938-51.2 51.2-51.2 51.2 22.989 51.2 51.2c0 28.262-22.938 51.2-51.2 51.2z"></path>
</svg>
