<!-- Generated by IcoMoon.io -->
<svg version="1.1" xmlns="http://www.w3.org/2000/svg" width="1024" height="1024" viewBox="0 0 1024 1024">
<title></title>
<g id="icomoon-ignore">
</g>
<path d="M771.43 475.444c-31.386 0-56.883-25.498-56.883-56.883s25.498-56.883 56.883-56.883 56.883 25.498 56.883 56.883c0 31.386-25.498 56.883-56.883 56.883v0zM505.958 475.444c-31.386 0-56.883-25.498-56.883-56.883s25.498-56.883 56.883-56.883c31.386 0 56.883 25.498 56.883 56.883s-25.498 56.883-56.883 56.883v0zM240.435 475.444c-31.386 0-56.883-25.498-56.883-56.883s25.498-56.883 56.883-56.883 56.883 25.498 56.883 56.883c0 31.386-25.446 56.883-56.883 56.883v0zM922.675 142.951c27.648 0 50.125 22.477 50.125 50.125v514.15c0 27.648-22.477 50.125-50.125 50.125h-267.981c-15.616 0-30.362 7.117-40.038 19.302l-70.963 89.139c-10.598 13.261-24.371 15.258-31.693 15.258s-21.094-1.997-31.693-15.258l-70.963-89.139c-9.728-12.186-24.474-19.302-40.038-19.302h-267.981c-27.648 0-50.125-22.477-50.125-50.125v-514.15c0-27.648 22.477-50.125 50.125-50.125h821.35zM922.675 91.751h-821.35c-55.962 0-101.325 45.363-101.325 101.325v514.15c0 55.962 45.363 101.325 101.325 101.325h267.981l70.963 89.139c18.33 23.040 45.056 34.56 71.731 34.56s53.402-11.52 71.731-34.56l70.963-89.139h267.981c55.962 0 101.325-45.363 101.325-101.325v-514.15c0-55.962-45.363-101.325-101.325-101.325v0z"></path>
</svg>
