<!-- Generated by IcoMoon.io -->
<svg version="1.1" xmlns="http://www.w3.org/2000/svg" width="1024" height="1024" viewBox="0 0 1024 1024">
<title></title>
<g id="icomoon-ignore">
</g>
<path d="M505.958 307.201v256h-256v-256h256zM499.558 256.001h-243.2c-31.846 0-57.6 25.805-57.6 57.6v243.2c0 31.795 25.754 57.6 57.6 57.6h243.2c31.795 0 57.6-25.805 57.6-57.6v-243.2c0-31.795-25.805-57.6-57.6-57.6v0zM761.958 768.001h-512c-28.262 0-28.262 51.2 0 51.2h512c28.262 0 28.262-51.2 0-51.2v0zM793.6 51.201c98.816 0 179.2 80.384 179.2 179.2v563.2c0 98.816-80.384 179.2-179.2 179.2h-563.2c-98.816 0-179.2-80.384-179.2-179.2v-563.2c0-98.816 80.384-179.2 179.2-179.2h563.2zM793.6 0.001h-563.2c-127.232 0-230.4 103.168-230.4 230.4v563.2c0 127.232 103.168 230.4 230.4 230.4h563.2c127.232 0 230.4-103.168 230.4-230.4v-563.2c0-127.232-103.168-230.4-230.4-230.4v0z"></path>
</svg>
