<!-- Generated by IcoMoon.io -->
<svg version="1.1" xmlns="http://www.w3.org/2000/svg" width="1024" height="1024" viewBox="0 0 1024 1024">
<title></title>
<g id="icomoon-ignore">
</g>
<path d="M968.602 152.987h-458.752v-101.99c0-28.211-22.784-50.995-50.995-50.995h-407.91c-28.16 0-50.944 22.784-50.944 50.995v102.093c0.154 0 0.256-0.102 0.461-0.102-0.461 38.963-0.461 38.963-0.461 50.534v765.645c0 28.006 23.040 50.534 51.149 50.534h917.453c28.211 0 51.098-22.528 51.098-50.534v-765.645c0-27.904-22.886-50.534-51.098-50.534zM50.944 91.803c0-22.579 18.176-40.755 40.755-40.755h326.298c22.528 0 40.806 18.227 40.806 40.755v61.184h-407.654c0 0-0.102 0-0.154 0v-61.184zM968.704 924.11c0 24.678-20.582 44.595-45.926 44.595h-825.856c-25.242 0-45.978-19.917-45.978-44.595v-675.533c0-24.678 20.736-44.646 45.978-44.646h825.856c25.293 0 45.926 19.968 45.926 44.646v675.533zM815.77 364.852h-458.957c-13.978 0-25.446 11.418-25.446 25.498s11.469 25.498 25.446 25.498h458.906c14.080 0 25.498-11.418 25.498-25.498s-11.366-25.498-25.446-25.498zM254.925 364.852h-50.995c-14.131 0-25.498 11.418-25.498 25.498s11.366 25.498 25.498 25.498h50.995c14.029 0 25.446-11.418 25.446-25.498s-11.418-25.498-25.446-25.498zM815.77 560.846h-458.957c-13.978 0-25.446 11.418-25.446 25.446 0 14.080 11.469 25.498 25.446 25.498h458.906c14.080 0 25.498-11.418 25.498-25.498 0.051-14.029-11.366-25.446-25.446-25.446zM254.925 560.846h-50.995c-14.131 0-25.498 11.418-25.498 25.446 0 14.080 11.366 25.498 25.498 25.498h50.995c14.029 0 25.446-11.418 25.446-25.498 0-14.029-11.418-25.446-25.446-25.446zM815.77 756.788h-458.957c-13.978 0-25.446 11.418-25.446 25.498s11.469 25.498 25.446 25.498h458.906c14.080 0 25.498-11.418 25.498-25.498 0.051-14.080-11.366-25.498-25.446-25.498zM254.925 756.788h-50.995c-14.131 0-25.498 11.418-25.498 25.498s11.366 25.498 25.498 25.498h50.995c14.029 0 25.446-11.418 25.446-25.498s-11.418-25.498-25.446-25.498z"></path>
</svg>
