<!-- Generated by IcoMoon.io -->
<svg version="1.1" xmlns="http://www.w3.org/2000/svg" width="1024" height="1024" viewBox="0 0 1024 1024">
<title></title>
<g id="icomoon-ignore">
</g>
<path d="M22.528 372.174l435.098 282.778c30.003 19.507 78.694 19.558 108.8 0l435.098-282.778c30.003-19.558 29.901-51.2 0-70.707l-435.098-282.778c-30.106-19.507-78.797-19.558-108.8 0l-435.098 282.829c-30.106 19.558-30.003 51.2 0 70.656zM1001.626 502.171c-1.792 0-3.379 0.614-5.12 0.973l-8.397 3.942-419.277 272.538c-14.899 9.626-34.099 14.643-53.606 15.053-1.075 0.051-2.099-0.358-3.226-0.358-1.075 0-2.15 0.41-3.277 0.358-19.405-0.41-38.707-5.376-53.504-15.053l-419.277-272.538-8.499-3.942c-1.638-0.41-3.226-0.973-5.018-0.973-12.39 0-22.426 9.984-22.426 22.374 0 6.451 2.816 12.186 7.219 16.23l-0.205 0.307 448.205 291.277c15.411 10.035 35.686 15.002 56.013 15.002 0.307 0 0.512-0.102 0.768-0.102 0.205 0 0.512 0.102 0.819 0.102 20.224 0 40.499-4.966 56.013-15.002l448-291.584c4.25-4.045 7.168-9.779 7.168-16.23 0-12.39-10.086-22.374-22.374-22.374zM1001.626 674.766c-1.792 0-3.379 0.614-5.12 1.024l-8.397 3.942-419.277 272.538c-14.899 9.626-34.099 14.643-53.606 15.053-1.075 0.051-2.099-0.358-3.226-0.358-1.075 0-2.15 0.41-3.277 0.358-19.405-0.41-38.707-5.376-53.504-15.053l-419.277-272.538-8.499-3.942c-1.587-0.41-3.226-1.024-5.018-1.024-12.39 0-22.426 9.984-22.426 22.374 0 6.451 2.816 12.186 7.219 16.23l-0.205 0.307 448.205 291.277c15.411 10.035 35.686 15.002 56.013 15.002 0.307 0 0.512-0.102 0.768-0.102 0.205 0 0.512 0.102 0.819 0.102 20.224 0 40.499-4.966 56.013-15.002l448-291.584c4.25-4.045 7.168-9.779 7.168-16.23 0-12.39-10.086-22.374-22.374-22.374z"></path>
</svg>
