<!-- Generated by IcoMoon.io -->
<svg version="1.1" xmlns="http://www.w3.org/2000/svg" width="1024" height="1024" viewBox="0 0 1024 1024">
<title></title>
<g id="icomoon-ignore">
</g>
<path d="M535.962 803.841h-90.829l-298.496-461.824c-8.448-13.005-15.206-25.907-20.326-38.707h-2.304c2.048 13.312 3.072 41.011 3.072 83.149v417.382h-75.878v-593.613h96.205l290.509 453.786c13.824 21.453 21.965 35.123 24.525 41.011h1.536c-2.56-16.896-3.84-45.722-3.84-86.63v-408.166h75.878v593.613zM972.39 784.692c-32.461 19.405-71.526 29.133-117.197 29.133-61.338 0-110.694-19.712-147.968-59.034-37.274-39.27-55.962-90.266-55.962-152.883 0-69.478 20.173-125.491 60.416-168.038 40.192-42.547 94.054-63.795 161.485-63.795 38.861 0 72.038 6.912 99.635 20.685v74.342c-29.85-21.965-63.13-32.973-99.635-32.973-42.906 0-77.875 14.899-104.806 44.646s-40.397 69.427-40.397 118.989c0 48.794 12.698 86.989 38.144 114.586 25.395 27.597 59.699 41.421 102.861 41.421 36.557 0 71.014-12.032 103.475-35.994v68.915z"></path>
</svg>
