<!-- Generated by IcoMoon.io -->
<svg version="1.1" xmlns="http://www.w3.org/2000/svg" width="1024" height="1024" viewBox="0 0 1024 1024">
<title></title>
<g id="icomoon-ignore">
</g>
<path d="M874.138 437.095c-33.178 0-63.59 11.213-88.474 29.542l-42.496-39.117c19.251-25.19 31.078-56.269 31.078-90.368 0-82.637-67.226-149.862-149.862-149.862s-149.862 67.226-149.862 149.862c0 57.037 32.358 106.086 79.36 131.43l-62.822 84.634c-20.122-10.086-42.496-16.23-66.509-16.23-26.931 0-51.866 7.731-73.728 20.224l-66.048-81.050c9.318-19.507 14.95-41.062 14.95-64.051 0-82.637-67.226-149.862-149.862-149.862s-149.862 67.226-149.862 149.862 67.226 149.862 149.862 149.862c40.96 0 78.080-16.589 105.165-43.315l57.19 70.144c-23.040 26.368-37.427 60.416-37.427 98.048 0 82.637 67.226 149.862 149.862 149.862s149.862-67.226 149.862-149.862c0-40.653-16.384-77.466-42.803-104.499l72.243-97.382c6.758 0.922 13.466 2.048 20.48 2.048 30.515 0 58.829-9.267 82.534-24.986l43.776 40.192c-16.589 24.115-26.419 53.248-26.419 84.685 0 82.637 67.226 149.862 149.862 149.862s149.862-67.226 149.862-149.862-67.277-149.811-149.914-149.811zM149.862 512.001c-55.091 0-99.891-44.8-99.891-99.891s44.8-99.891 99.891-99.891 99.891 44.8 99.891 99.891-44.8 99.891-99.891 99.891zM424.602 786.74c-55.091 0-99.891-44.8-99.891-99.891s44.8-99.891 99.891-99.891 99.891 44.8 99.891 99.891-44.8 99.891-99.891 99.891zM524.493 337.153c0-55.091 44.8-99.891 99.891-99.891s99.891 44.8 99.891 99.891-44.8 99.891-99.891 99.891-99.891-44.8-99.891-99.891zM874.138 686.849c-55.091 0-99.891-44.8-99.891-99.891s44.8-99.891 99.891-99.891 99.891 44.8 99.891 99.891-44.8 99.891-99.891 99.891z"></path>
</svg>
