<!-- Generated by IcoMoon.io -->
<svg version="1.1" xmlns="http://www.w3.org/2000/svg" width="1024" height="1024" viewBox="0 0 1024 1024">
<title></title>
<g id="icomoon-ignore">
</g>
<path d="M761.344 1024.001h-561.101c-90.010 0-163.226-73.216-163.226-163.226v-591.718c0-90.010 73.216-163.226 163.226-163.226h57.805c15.002 0 27.187 12.186 27.187 27.187s-12.186 27.187-27.187 27.187h-57.805c-60.006 0-108.8 48.794-108.8 108.8v591.718c0 60.006 48.794 108.8 108.8 108.8h561.101c60.006 0 108.8-48.794 108.8-108.8v-54.426c0-15.053 12.186-27.187 27.187-27.187s27.187 12.186 27.187 27.187v54.426c0.051 90.061-73.165 163.277-163.174 163.277v0zM649.984 827.239c-31.181 0-60.672-13.619-80.947-37.427-116.787-136.704-256-326.195-256-452.813 0-185.805 151.142-336.998 336.947-336.998s336.998 151.194 336.998 336.998c0 126.618-139.213 316.211-256 452.864-20.378 23.757-49.869 37.376-80.998 37.376zM649.984 49.972c-158.259 0-287.027 128.768-287.027 287.027 0 85.658 88.934 238.899 244.070 420.403 21.504 25.344 64.358 25.293 85.965 0 155.085-181.453 244.019-334.746 244.019-420.403 0-158.259-128.768-287.027-287.027-287.027zM649.984 437.044c-71.782 0-130.202-58.368-130.202-130.202s58.419-130.202 130.202-130.202 130.202 58.368 130.202 130.202-58.419 130.202-130.202 130.202zM649.984 226.561c-44.237 0-80.23 35.994-80.23 80.23s35.994 80.23 80.23 80.23c44.237 0 80.23-35.994 80.23-80.23s-35.994-80.23-80.23-80.23zM338.944 691.918h-166.502c-9.216 0-16.64-11.213-16.64-24.986s7.475-24.986 16.64-24.986h166.502c9.216 0 16.64 11.213 16.64 24.986 0 13.824-7.475 24.986-16.64 24.986v0zM489.523 855.143h-317.85c-8.755 0-15.872-11.213-15.872-24.986s7.117-24.986 15.872-24.986h317.85c8.755 0 15.872 11.213 15.872 24.986 0.051 13.824-7.066 24.986-15.872 24.986v0z"></path>
</svg>
