<!-- Generated by IcoMoon.io -->
<svg version="1.1" xmlns="http://www.w3.org/2000/svg" width="1024" height="1024" viewBox="0 0 1024 1024">
<title></title>
<g id="icomoon-ignore">
</g>
<path d="M413.389 0.001h-367.411c-25.446 0-45.978 20.531-45.978 45.875v367.514c0 25.446 20.531 45.926 45.978 45.926h367.411c25.446 0 45.978-20.48 45.978-45.926v-367.514c0-25.344-20.531-45.875-45.978-45.875zM408.32 372.583c0 19.763-15.974 35.738-35.738 35.738h-285.798c-19.814 0-35.738-15.974-35.738-35.738v-285.798c0-19.763 15.974-35.738 35.738-35.738h285.798c19.763 0 35.738 15.923 35.738 35.738v285.798zM418.509 561.46h-367.462c-25.395 0-45.926 20.48-45.926 45.875v367.565c0 25.395 20.531 45.926 45.926 45.926h367.462c25.446 0 45.926-20.531 45.926-45.926v-367.565c0-25.395-20.531-45.875-45.926-45.875zM413.389 933.991c0 19.814-15.974 35.738-35.738 35.738h-285.798c-19.763 0-35.738-15.974-35.738-35.738v-285.798c0-19.814 15.974-35.738 35.738-35.738h285.85c19.763 0 35.738 15.974 35.738 35.738v285.798zM974.848 561.46h-367.411c-25.498 0-45.978 20.48-45.978 45.875v367.565c0 25.395 20.48 45.926 45.978 45.926h367.411c25.344 0 45.926-20.531 45.926-45.926v-367.565c0.051-25.395-20.582-45.875-45.926-45.875zM969.728 933.991c0 19.814-15.923 35.738-35.789 35.738h-285.747c-19.866 0-35.789-15.974-35.789-35.738v-285.798c0-19.814 15.974-35.738 35.789-35.738h285.747c19.866 0 35.789 15.974 35.789 35.738v285.798zM791.091 0.001c-126.874 0-229.632 102.81-229.632 229.683 0 126.822 102.81 229.683 229.632 229.683 126.925 0 229.683-102.861 229.683-229.683 0.051-126.874-102.758-229.683-229.683-229.683zM791.091 408.321c-98.611 0-178.688-80.077-178.688-178.637 0-98.714 80.077-178.637 178.688-178.637 98.662 0 178.637 79.923 178.637 178.637 0 98.56-79.974 178.637-178.637 178.637z"></path>
</svg>
