<!-- Generated by IcoMoon.io -->
<svg version="1.1" xmlns="http://www.w3.org/2000/svg" width="1024" height="1024" viewBox="0 0 1024 1024">
<title></title>
<g id="icomoon-ignore">
</g>
<path d="M186.88 588.187h-68.864c-51.405 0-99.738-24.627-99.738-81.715 0-41.626-1.536-181.453 63.744-181.453 10.803 0 64.256 43.725 133.632 43.725 23.654 0 46.285-4.147 68.352-11.827-1.485 11.315-2.56 22.63-2.56 33.946 0 46.797 14.899 93.030 41.626 131.584-53.402 1.536-101.734 24.678-136.192 65.741zM215.706 325.019c-72.499 0-131.584-59.136-131.584-131.584s59.136-131.584 131.584-131.584c72.499 0 131.584 59.136 131.584 131.584s-59.085 131.584-131.584 131.584zM736.461 982.99h-449.331c-82.227 0-137.267-49.869-137.267-133.171 0-116.173 27.238-294.502 177.869-294.502 17.51 0 81.254 71.424 184.064 71.424s166.554-71.424 184.064-71.424c150.579 0 177.869 178.381 177.869 294.502-0.051 83.354-55.040 133.171-137.267 133.171zM511.795 588.187c-109.005 0-197.376-88.422-197.376-197.376s88.422-197.376 197.376-197.376 197.376 88.422 197.376 197.376-88.371 197.376-197.376 197.376zM807.885 325.019c-72.499 0-131.584-59.136-131.584-131.584s59.085-131.584 131.584-131.584 131.584 59.136 131.584 131.584-59.085 131.584-131.584 131.584zM905.574 588.187h-68.864c-34.458-41.114-82.79-64.205-136.243-65.792 26.726-38.554 41.626-84.838 41.626-131.584 0-11.315-1.075-22.63-2.56-33.946 22.118 7.68 44.698 11.827 68.352 11.827 69.376 0 122.829-43.725 133.632-43.725 65.28 0 63.744 139.827 63.744 181.453 0.051 57.139-48.282 81.766-99.686 81.766z"></path>
</svg>
