<!-- Generated by IcoMoon.io -->
<svg version="1.1" xmlns="http://www.w3.org/2000/svg" width="1024" height="1024" viewBox="0 0 1024 1024">
<title></title>
<g id="icomoon-ignore">
</g>
<path d="M71.782 589.313v207.872h-71.782v-556.032h157.901c60.109 0 106.701 14.438 139.827 43.469 33.126 28.928 49.766 70.349 49.766 124.16 0 54.579-19.405 98.816-58.214 132.71-38.758 33.792-87.194 49.766-145.408 47.872h-72.090zM71.782 304.283v221.85h66.406c43.776 0 77.005-9.83 99.789-29.645 22.733-19.661 34.099-47.974 34.099-84.838 0-71.526-42.394-107.366-127.078-107.366h-73.216zM952.576 797.134v-368.282c0-30.413 1.741-66.867 5.325-109.466h-1.741c-6.246 26.778-11.827 45.517-16.486 56.013l-183.45 421.734h-39.782l-183.040-418.56c-4.352-9.523-9.83-29.286-16.538-59.187h-2.15c2.406 25.856 3.584 63.437 3.584 112.691v365.056h-68.608v-555.981h97.28l163.994 381.184c12.493 29.133 20.685 51.968 24.781 68.198h2.509c12.493-34.202 21.197-57.446 26.266-69.632l166.861-379.75h92.621v555.981h-71.424z"></path>
</svg>
