<!-- Generated by IcoMoon.io -->
<svg version="1.1" xmlns="http://www.w3.org/2000/svg" width="1024" height="1024" viewBox="0 0 1024 1024">
<title></title>
<g id="icomoon-ignore">
</g>
<path d="M335.002 931.022v-152.166l-233.216 37.786-10.138-62.618 41.472-6.451v-577.126h-28.57v-62.669h320.819v62.72h-27.699v533.76l35.072-6.451 10.138 63.539-45.21 7.424v162.253h-62.669zM195.789 312.423h139.213v-141.978h-139.213v141.978zM195.789 517.070h139.213v-141.978h-139.213v141.978zM195.789 737.435l139.213-23.040v-133.683h-139.213v156.723zM932.352 609.281h-333.722l-19.354 73.728h230.451c54.426 0 99.533 45.158 99.533 99.533v52.531c0 54.426-45.158 99.533-99.533 99.533h-200.96v-62.669h200.96c20.275 0 35.942-15.718 35.942-36.915v-52.531c0-21.197-15.667-36.864-35.942-36.864h-312.474l35.942-136.448h-89.446v-62.669h488.602v62.771zM563.61 510.619c-55.296 0-98.662-45.158-98.662-99.584v-177.92c0-54.374 43.366-98.611 98.662-98.611h93.082v-45.158h62.72v45.158h94.054c53.453 0 97.69 44.237 97.69 98.611v177.92c0 54.426-44.237 99.584-97.69 99.584h-249.856zM527.667 287.54h129.075v-90.368h-93.082c-19.354 0-35.942 15.667-35.942 35.942v54.426zM656.742 447.95v-97.69h-129.075v60.826c0 21.197 16.589 36.864 35.942 36.864h93.133zM719.411 197.172v90.368h129.075v-54.426c0-20.275-15.667-35.942-35.021-35.942h-94.054zM848.486 411.086v-60.826h-129.075v97.69h94.054c19.354 0 35.021-15.667 35.021-36.864z"></path>
</svg>
