<!-- Generated by IcoMoon.io -->
<svg version="1.1" xmlns="http://www.w3.org/2000/svg" width="1024" height="1024" viewBox="0 0 1024 1024">
<title></title>
<g id="icomoon-ignore">
</g>
<path d="M1020.365 528.334c-7.526-18.739-25.446-30.771-45.619-30.771h-115.2v-390.502c0-51.814-42.189-93.952-94.003-93.952h-507.136c-51.814 0-94.003 42.138-94.003 93.952v390.502h-115.2c-20.122 0-38.042 12.032-45.619 30.771-7.526 18.688-3.072 39.834 11.469 53.811l406.016 391.782c25.498 24.627 58.214 36.966 90.931 36.966s65.434-12.339 90.931-36.966l406.016-391.782c14.541-13.978 18.995-35.123 11.418-53.811zM569.088 938.855c-32 30.874-82.125 30.874-114.125 0l-405.709-392.55h163.942v-439.245c0-24.934 20.275-45.21 45.261-45.21h507.136c24.934 0 45.261 20.275 45.261 45.21v439.245h163.942l0.307 0.768-406.016 391.782zM647.987 251.598l-119.245 174.541h-22.938l-130.458-172.237c-7.424-9.779-21.504-11.725-31.283-4.301s-11.725 21.504-4.301 31.283l110.080 145.254h-47.206c-12.288 0-22.323 10.035-22.323 22.323s10.035 22.323 22.323 22.323h89.293v86.426h-89.293c-12.288 0-22.323 10.035-22.323 22.323s10.035 22.323 22.323 22.323h89.293v89.293c0 12.288 10.035 22.323 22.323 22.323s22.323-10.035 22.323-22.323v-89.293h89.293c12.288 0 22.323-10.035 22.323-22.323s-10.035-22.323-22.323-22.323h-89.293v-86.426h89.293c12.288 0 22.323-10.035 22.323-22.323s-10.035-22.323-22.323-22.323h-42.957l102.042-149.35c6.912-10.138 4.301-24.115-5.837-31.027-10.24-6.912-24.166-4.301-31.13 5.837z"></path>
</svg>
