<!-- Generated by IcoMoon.io -->
<svg version="1.1" xmlns="http://www.w3.org/2000/svg" width="1024" height="1024" viewBox="0 0 1024 1024">
<title></title>
<g id="icomoon-ignore">
</g>
<path d="M972.8 0.001h-921.6c-28.314 0-51.2 22.938-51.2 51.2v768c0 28.262 22.886 51.2 51.2 51.2h435.2v102.4h-204.8c-14.080 0-25.6 11.469-25.6 25.6s11.52 25.6 25.6 25.6h460.8c14.182 0 25.6-11.469 25.6-25.6s-11.418-25.6-25.6-25.6h-204.8v-102.4h435.2c28.314 0 51.2-22.938 51.2-51.2v-768c0-28.262-22.886-51.2-51.2-51.2zM972.8 773.991c0 24.934-20.582 45.21-46.080 45.21h-829.44c-25.498 0-46.080-20.275-46.080-45.21v-677.581c0-24.934 20.582-45.21 46.080-45.21h829.44c25.498 0 46.080 20.275 46.080 45.21v677.581zM763.187 254.926l-197.632 197.632-90.522-90.522-0.307 0.307c-10.035-8.448-24.934-8.243-34.355 1.229l-217.242 217.242 0.307 0.307c-8.448 10.035-8.243 24.934 1.178 34.406s24.32 9.677 34.406 1.178l0.307 0.307 199.117-199.117 88.986 88.986c9.472 9.472 24.32 9.677 34.406 1.178l0.307 0.307 217.242-217.242c9.984-9.984 9.984-26.214 0-36.198s-26.214-9.984-36.198 0z"></path>
</svg>
