<!-- Generated by IcoMoon.io -->
<svg version="1.1" xmlns="http://www.w3.org/2000/svg" width="1024" height="1024" viewBox="0 0 1024 1024">
<title></title>
<g id="icomoon-ignore">
</g>
<path d="M1005.722 852.225h-879.206c-17.357 0-76.237 0.205-76.237 0.205v-703.283h-50.278v753.51h1005.722v-50.432zM948.634 447.899c-41.626 0-75.366 33.741-75.366 75.366h-83.046l-144.589-385.587c-3.738-9.933-13.722-17.050-24.013-16.282-10.65 0.205-20.019 7.066-23.347 17.152l-131.533 394.547-73.318-146.637c-3.994-7.987-11.981-13.312-20.89-13.824-9.574-1.024-17.51 3.635-22.477 11.11l-93.030 139.52h-87.040c-13.875 0-25.139 11.213-25.139 25.139 0 13.875 11.213 25.139 25.139 25.139h100.454c8.397 0 16.23-4.198 20.89-11.162l76.442-114.688 81.101 162.253c4.25 8.55 13.005 13.875 22.477 13.875 0.563 0 1.178 0 1.792-0.051 10.138-0.717 18.79-7.526 22.016-17.101l128.307-384.819 125.798 335.462c3.686 9.83 13.056 16.282 23.501 16.282h120.013c13.773 15.309 33.587 25.139 55.808 25.139 41.626 0 75.366-33.741 75.366-75.366 0.051-41.728-33.69-75.469-75.315-75.469z"></path>
</svg>
