<!-- Generated by IcoMoon.io -->
<svg version="1.1" xmlns="http://www.w3.org/2000/svg" width="1024" height="1024" viewBox="0 0 1024 1024">
<title></title>
<g id="icomoon-ignore">
</g>
<path d="M987.085 286.158v45.363h-927.642v-45.363h429.261v-47.667h-286.157v-49.562h286.157v-95.898h-381.594v-45.312h381.594v-47.718h45.619l-0.307 47.718h381.594v45.312h-381.594l0.307 95.898h285.901v49.562l-285.901-0.666-0.307 48.333zM529.562 690.126c0 94.003-62.771 238.643-472.525 311.501-7.578-14.438-7.27-21.914-23.501-34.355 394.547-62.31 445.952-205.158 445.952-277.146v-100.147h50.074v100.147zM822.579 810.855v-288.563h-624.845v288.563h-45.312v-333.875h715.469v333.875zM519.449 801.776l22.218-44.876 448.851 222.222-22.218 44.876-448.851-222.222z"></path>
</svg>
