<!-- Generated by IcoMoon.io -->
<svg version="1.1" xmlns="http://www.w3.org/2000/svg" width="1024" height="1024" viewBox="0 0 1024 1024">
<title></title>
<g id="icomoon-ignore">
</g>
<path d="M601.549 361.934v-152.627c-0.256-23.501-19.456-42.394-42.957-42.24-11.315-0.205-22.272 4.147-30.31 12.083-8.090 7.936-12.646 18.893-12.595 30.106v248.013c-2.202 12.493 1.28 25.242 9.421 34.918 8.141 9.626 20.224 15.155 32.819 15.104h255.488c15.309 0 29.338-8.141 36.966-21.299 7.629-13.21 7.629-29.44 0-42.65-7.629-13.158-21.658-21.299-36.966-21.299h-151.91l348.826-349.235c16.282-16.691 16.282-43.366 0-60.006-7.987-8.192-18.893-12.8-30.31-12.8s-22.426 4.608-30.362 12.8l-348.109 349.133zM974.95 490.599v397.978c0 47.002-29.747 85.299-76.8 85.299h-768c-47.002 0-78.95-38.349-78.95-85.35l-1.075-758.938c0-47.053 34.867-79.206 81.869-79.206h389.581c23.091 0 43.981-2.458 43.981-25.6-0.051-23.347-20.685-23.91-44.032-24.013h-389.53c-94.106 0.102-131.994 35.43-131.994 129.536v758.938c0 94.106 31.795 134.656 125.85 134.707h772.25c94.157-0.051 125.901-44.237 125.85-138.342v-393.626c0-23.398-11.725-28.826-26.419-28.826-11.366 0-22.63 8.806-22.63 27.29v0.154h0.051z"></path>
</svg>
