<!-- Generated by IcoMoon.io -->
<svg version="1.1" xmlns="http://www.w3.org/2000/svg" width="1024" height="1024" viewBox="0 0 1024 1024">
<title></title>
<g id="icomoon-ignore">
</g>
<path d="M915.968 102.913l-147.968-0.512v-53.658c0-26.88-21.76-48.742-48.691-48.742h-414.618c-26.88 0-48.691 21.862-48.691 48.742l2.048 54.17h-156.16c-26.829 0-50.688 14.541-50.688 44.902v836.096c0 19.712 16.589 40.090 43.418 40.090h819.302c26.829 0 58.88-14.643 58.88-34.355v-836.045c0-30.413-30.003-50.688-56.832-50.688zM307.2 153.601v-102.4h409.6v153.6h-409.6v-51.2zM921.6 972.801h-819.2v-819.2h153.6v53.658c0 26.829 21.811 48.742 48.64 48.742h414.669c26.931 0 48.691-21.914 48.691-48.742v-53.658h153.6v819.2zM205.466 456.551h-0.666v299.418l283.75 142.131 330.65-130.099v-307.2l-314.010-153.6-299.725 149.35zM460.8 819.201l-204.8-102.4v-204.8l204.8 102.4v204.8zM279.603 456.91l99.379-48.691 229.786 110.49-103.322 49.664-225.843-111.462zM768 716.801l-256 102.4v-204.8l256-101.274v203.674zM645.069 499.406l-226.816-112.435 86.938-43.469 225.894 112.742-86.016 43.162z"></path>
</svg>
