<!-- Generated by IcoMoon.io -->
<svg version="1.1" xmlns="http://www.w3.org/2000/svg" width="1024" height="1024" viewBox="0 0 1024 1024">
<title></title>
<g id="icomoon-ignore">
</g>
<path d="M716.8 0.001h-562.381c-24.832 0-52.019 25.6-52.019 51.2l0.819 922.419c-1.741 30.157 24.781 50.381 50.381 50.381h537.6c0 0 25.549 0.256 24.781-26.419-0.614-22.374-26.368-24.781-26.368-24.781h-536.013v-921.6h614.4v51.2c0 0 0.819 203.725 0.819 278.426 0 0-0.819 28.006 24.781 28.006s25.6-26.419 25.6-26.419v-330.394c0-29.594-16.794-52.019-49.613-52.019h-52.787zM287.642 307.201h245.146c17.408 0 30.413-8.192 30.413-25.6 0-17.459-14.182-25.6-31.642-25.6h-245.094c-17.408 0-30.464 8.141-30.464 25.6 0 17.408 14.234 25.6 31.642 25.6v0zM287.642 460.801h245.146c17.408 0 30.413-8.192 30.413-25.6 0-17.459-14.182-25.6-31.642-25.6h-245.094c-17.408 0-30.464 8.141-30.464 25.6 0 17.408 14.234 25.6 31.642 25.6v0zM287.642 614.401h245.146c17.408 0 30.413-8.192 30.413-25.6 0-17.459-14.182-25.6-31.642-25.6h-245.094c-17.408 0-30.464 8.141-30.464 25.6 0 17.408 14.234 25.6 31.642 25.6v0zM919.091 758.171c0.717-5.683 1.178-11.418 1.178-17.408 0-6.042-0.512-11.725-1.178-17.408l37.376-29.286c3.379-2.662 4.301-7.475 2.202-11.418l-35.584-61.389c-2.099-3.891-6.912-5.325-10.803-3.891l-44.186 17.766c-9.216-7.117-19.2-13.005-30.003-17.408l-6.707-47.053c-0.563-4.352-4.301-7.475-8.704-7.475h-71.066c-4.403 0-8.192 3.123-8.704 7.475l-6.707 47.053c-10.906 4.403-20.787 10.445-30.003 17.408l-44.186-17.766c-4.096-1.587-8.704 0-10.906 3.891l-35.482 61.389c-2.304 3.942-1.178 8.755 2.099 11.418l37.478 29.286c-0.717 5.632-1.178 11.571-1.178 17.408s0.512 11.674 1.178 17.408l-37.478 29.286c-3.277 2.662-4.198 7.475-2.099 11.366l35.482 61.44c2.202 3.891 7.014 5.325 10.906 3.891l44.186-17.818c9.216 7.117 19.098 13.005 30.003 17.408l6.707 47.104c0.512 4.301 4.301 7.475 8.704 7.475h71.117c4.403 0 8.090-3.226 8.704-7.475l6.707-47.104c10.803-4.403 20.787-10.496 30.003-17.408l44.186 17.818c4.096 1.587 8.704 0 10.803-3.891l35.584-61.44c2.099-3.891 1.178-8.704-2.202-11.366l-37.427-29.286zM787.098 802.919c-34.202 0-62.106-27.904-62.106-62.157 0-34.304 27.904-62.157 62.106-62.157 34.304 0 62.208 27.853 62.208 62.157 0 34.253-27.904 62.157-62.208 62.157v0z"></path>
</svg>
