<!-- Generated by IcoMoon.io -->
<svg version="1.1" xmlns="http://www.w3.org/2000/svg" width="1024" height="1024" viewBox="0 0 1024 1024">
<title></title>
<g id="icomoon-ignore">
</g>
<path d="M535.040 0.001h-20.48v468.992c0 7.68 2.56 12.8 7.68 17.971 5.12 5.12 12.8 7.68 17.971 7.68h483.789v-20.582c2.611-266.496-214.989-474.061-488.96-474.061v0 0zM555.52 453.582v-412.57c235.52 10.291 417.28 187.085 427.52 412.621l-427.52-0.051zM486.4 1022.516c271.411 0 494.131-212.634 494.131-476.672v-20.48h-499.251v-484.352h-20.48c-253.491 0-460.8 225.536-460.8 502.272 0 269.107 215.040 479.232 486.4 479.232v0 0zM437.76 84.583v458.701c0 7.731 2.56 12.851 7.68 17.971s12.8 7.731 17.92 7.731h473.651c-10.291 228.045-210.022 412.621-450.611 412.621-248.32 0-445.44-192.205-445.44-438.272s176.64-448.512 396.8-458.752v0 0z"></path>
</svg>
