<!-- Generated by IcoMoon.io -->
<svg version="1.1" xmlns="http://www.w3.org/2000/svg" width="1024" height="1024" viewBox="0 0 1024 1024">
<title></title>
<g id="icomoon-ignore">
</g>
<path d="M13.824 681.934c24.474 17.664 60.314 32.358 97.997 32.358 55.91 0 88.576-34.611 88.576-84.582 0-46.387-22.579-72.858-79.77-98.611-69.12-28.672-111.77-70.605-111.77-140.493-0.051-77.21 54.579-134.605 136.858-134.605 43.366 0 74.752 11.776 93.594 24.269l-15.053 52.224c-13.824-8.806-42.086-23.552-80.384-23.552-57.805 0-79.821 40.448-79.821 74.291 0 46.336 25.754 69.12 84.173 95.642 71.578 32.358 108.032 72.858 108.032 145.613 0 76.544-48.384 142.694-148.224 142.694-40.806 0-85.402-13.926-108.032-31.59l13.824-53.658zM692.634 506.83c0 170.65-88.576 261.171-196.608 261.171-111.77 0-190.31-101.53-190.31-251.597 0-157.389 83.507-260.403 196.557-260.403 115.61 0 190.362 103.731 190.362 250.829zM364.083 514.919c0 105.933 48.998 200.858 135.066 200.858 86.682 0 135.68-93.44 135.68-205.978 0-98.611-43.981-201.523-135.066-201.523-90.419 0-135.68 97.792-135.68 206.643zM763.341 269.979c26.368-5.12 60.928-9.523 104.909-9.523 54.016 0 93.594 14.694 118.733 41.165 23.245 23.501 37.018 59.597 37.018 103.731 0 44.851-11.315 80.179-32.614 105.933-28.928 36.045-76.032 54.426-129.382 54.426-16.333 0-31.437-0.717-43.981-4.454v198.605h-54.682v-489.882zM818.022 509.083c11.878 3.686 26.982 5.12 45.21 5.12 65.997 0 106.189-37.53 106.189-105.933 0-65.485-39.526-97.126-99.891-97.126-23.859 0-42.086 2.202-51.507 5.171v192.768z"></path>
</svg>
