<!-- Generated by IcoMoon.io -->
<svg version="1.1" xmlns="http://www.w3.org/2000/svg" width="1024" height="1024" viewBox="0 0 1024 1024">
<title></title>
<g id="icomoon-ignore">
</g>
<path d="M571.238 98.715c80.896 80.794 115.917 199.066 89.702 310.528l354.048 354.253c8.346 7.936 13.056 18.995 13.056 30.669 0 11.52-4.71 22.579-13.056 30.618l-190.157 190.208c-7.987 8.397-19.046 13.107-30.669 13.107-11.571 0-22.682-4.71-30.669-13.107l-356.198-356.198c-24.166 6.502-177.357 40.346-310.477-89.702-96-96.256-124.57-247.245-67.686-371.712 6.298-20.378 43.878-36.966 67.789-13.005l205.466 205.619 67.789-17.51 17.408-67.789-201.062-205.619c-17.357-14.694-17.869-52.89 13.005-67.789 41.779-22.323 215.347-83.507 371.763 67.43h-0.051zM925.389 794.164l-343.245-343.347c-11.11-11.571-15.309-28.211-10.906-43.725 28.365-88.013 4.659-184.422-61.338-249.242-86.426-88.32-201.114-72.192-212.019-69.888l172.851 172.851c10.803 10.854 15.309 26.163 10.803 41.574l-30.566 115.814c-4.045 15.002-15.718 26.675-30.669 30.72l-115.814 30.669c-14.848 4.352-30.874 0.154-41.626-10.906l-172.698-172.902c-10.957 76.493 12.954 157.542 69.837 214.426 103.424 101.632 225.331 67.789 249.293 61.338 15.309-4.454 32.819 0 43.725 10.906l341.402 342.886 130.97-131.174z"></path>
</svg>
