<!-- Generated by IcoMoon.io -->
<svg version="1.1" xmlns="http://www.w3.org/2000/svg" width="1024" height="1024" viewBox="0 0 1024 1024">
<title></title>
<g id="icomoon-ignore">
</g>
<path d="M739.226 768.82h-124.877l0.051-52.070h124.621c14.592 0 28.621-12.442 28.621-27.546 0-14.95-13.978-23.603-28.57-23.603h-107.827l112.333-109.21c9.626-11.418 8.294-28.058-3.277-37.888l-0.102-0.205c-11.418-9.472-28.416-8.141-37.888 3.021l-113.869 98.15-113.459-98.15c-4.506-5.274-11.059-8.55-18.074-9.216-7.27-0.512-14.387 1.69-19.968 6.4-5.478 4.608-8.858 11.11-9.523 18.227-0.614 7.168 1.587 14.234 6.349 19.763l112.333 109.261-109.312-0.154c-14.643 0-27.187 8.294-27.187 23.194 0 15.206 10.65 28.058 25.6 28.058l128.819-0.051-0.768 52.019-126.464-0.819c-14.643 0-26.419 9.165-26.419 24.166 0 15.36 11.52 27.034 26.419 27.034h126.413v75.93c0 14.541 10.24 26.47 25.19 26.47 15.206 0 26.010-11.725 26.010-26.47v-75.93h124.877c14.592 0 28.723-12.134 28.723-27.034 0-15.002-14.234-23.347-28.774-23.347zM893.798 572.929c-12.39 0-22.374 10.035-22.374 22.426v334.438c0 27.238-22.272 49.459-49.459 49.459h-625.050c-27.29 0-49.459-22.221-49.459-49.459v-334.438c0-12.339-10.035-22.426-22.374-22.426s-22.374 10.035-22.374 22.426v334.438c0 51.968 42.291 94.208 94.208 94.208h625.101c51.917 0 94.208-42.24 94.208-94.208v-334.438c0-12.339-10.086-22.426-22.426-22.426v0zM1023.846 306.228c0-0.102 0-0.154 0-0.256-0.358-2.253-0.154-1.024-0.205-1.485-0.051-0.256-0.051-0.512-0.154-0.768 0-0.205-0.051-0.41-0.154-0.614-0.154-0.563-0.256-1.075-0.41-1.587 0-0.051-0.102-0.154-0.102-0.154-0.205-0.717-0.41-1.331-0.717-1.997v0l-152.422-285.901c-3.482-8.141-11.571-13.466-20.48-13.466h-671.744c-8.909 0-16.947 5.325-20.531 13.414l-155.034 278.221c-0.307 0.614-0.563 1.229-0.768 1.843 0 0.051-0.051 0.154-0.102 0.256-0.102 0.512-0.256 1.024-0.358 1.485-0.051 0.256-0.102 0.461-0.205 0.717-0.051 0.256-0.051 0.512-0.102 0.666-0.102 0.563-0.205 1.024-0.256 1.587 0 0.051 0 0.102 0 0.205-0.051 0.666-0.102 1.382-0.102 2.099v0c0 88.371 65.126 160.307 145.101 160.307 51.61 0 97.024-29.952 122.726-74.854 25.754 44.902 71.168 74.854 122.778 74.854s97.024-29.952 122.726-74.854c25.754 44.902 71.117 74.854 122.726 74.854s97.075-29.952 122.726-74.854c25.754 44.902 71.168 74.854 122.778 74.854 79.974 0 142.438-68.25 142.438-152.525 0 0 0 0 0-0.051 0-0.666-0.051-1.331-0.154-1.997v0zM881.562 416.052c-55.347 0-100.403-51.866-100.403-115.558 0-12.39-9.984-22.374-22.323-22.374s-22.374 9.984-22.374 22.374c0 63.693-45.056 115.558-100.403 115.558-55.296 0-100.352-51.814-100.352-115.507v-0.051c0-12.39-10.035-22.374-22.426-22.374v0 0c-12.39 0-22.426 9.984-22.426 22.374 0 0.051 0 0.051 0 0.051 0 63.693-45.005 115.507-100.301 115.507-55.347 0-100.352-51.866-100.352-115.558 0-0.768 0-1.536-0.102-2.253-1.126-11.315-10.65-20.070-22.272-20.070-11.571 0-21.094 8.755-22.272 20.070-0.051 0.717-0.051 1.485-0.051 2.253 0 63.693-45.005 115.558-100.352 115.558-54.067 0-98.202-49.408-100.25-111.053l147.251-260.25h642.406l147.251 260.25c-2.048 61.645-46.234 111.053-100.25 111.053v0z"></path>
</svg>
