<!-- Generated by IcoMoon.io -->
<svg version="1.1" xmlns="http://www.w3.org/2000/svg" width="1024" height="1024" viewBox="0 0 1024 1024">
<title></title>
<g id="icomoon-ignore">
</g>
<path d="M852.019 674.151c-12.339-28.826-37.069-45.261-82.33-57.6-107.008-24.678-107.008-32.922-94.669-57.6 45.261-82.33 78.182-189.338 28.826-271.667-28.826-45.261-78.182-69.99-135.834-69.99-57.6 0-111.104 24.678-135.834 74.086-41.165 65.843-28.826 160.512 28.826 271.667 12.339 24.678 12.339 32.922-94.669 57.6-41.165 8.243-65.843 28.826-82.33 57.6-12.339 28.826-12.339 57.6-12.339 131.686h584.448c4.096-78.182 8.243-107.008-4.096-135.782v0zM341.606 739.995c0-49.408 4.096-61.747 45.261-69.99 57.6-12.339 115.251-24.678 131.738-65.843 8.243-20.582 8.243-41.165-8.243-69.99-45.261-86.426-57.6-160.512-28.826-205.824 16.486-28.774 45.312-45.21 86.477-45.21 37.018 0 69.99 16.486 86.426 41.165 32.922 57.651 4.096 148.173-28.826 209.92-12.339 24.678-16.486 49.408-8.243 69.99 16.486 41.165 74.086 53.504 131.738 65.843 41.165 8.243 45.261 20.582 45.261 69.99l-452.762-0.051zM176.998 648.295h-176.998v185.242h176.998c4.096 0 8.243-4.096 8.243-8.243v-168.755c0-8.243-4.147-8.243-8.243-8.243v0zM119.347 759.399c0 4.096-4.096 8.243-8.243 8.243h-41.114c-4.096 0-8.243-4.096-8.243-8.243v-41.165c0-4.096 4.096-8.243 8.243-8.243h41.165c4.096 0 8.243 4.096 8.243 8.243v41.165h-0.051zM176.998 421.889h-176.998v185.242h176.998c4.096 0 8.243-4.096 8.243-8.243v-168.755c0-4.096-4.147-8.243-8.243-8.243v0zM119.347 537.14c0 4.096-4.096 8.243-8.243 8.243h-41.114c-4.096 0-8.243-4.096-8.243-8.243v-41.165c0-4.096 4.096-8.243 8.243-8.243h41.165c4.096 0 8.243 4.096 8.243 8.243v41.165h-0.051zM176.998 195.534h-176.998v185.242h176.998c4.096 0 8.243-4.096 8.243-8.243v-168.755c0-4.147-4.147-8.243-8.243-8.243v0zM119.347 310.785c0 4.096-4.096 8.243-8.243 8.243h-41.114c-4.096 0-8.243-4.096-8.243-8.243v-41.165c0-4.096 4.096-8.243 8.243-8.243h41.165c4.096 0 8.243 4.096 8.243 8.243v41.165h-0.051zM915.046 1043.713h-780.544c-60.058 0-108.954-48.845-108.954-108.954v-46.746c0-19.968 16.179-36.198 36.198-36.198 19.968 0 36.198 16.179 36.198 36.198v46.746c0 20.173 16.435 36.608 36.608 36.608h780.544c20.173 0 36.608-16.435 36.608-36.608v-845.517c0-20.173-16.435-36.608-36.608-36.608h-780.595c-20.173 0-36.608 16.435-36.608 36.608v51.763c0 19.968-16.179 36.198-36.198 36.198-19.968 0-36.198-16.179-36.198-36.198v-51.763c0-60.058 48.845-108.954 108.954-108.954h780.544c60.109 0 109.005 48.896 109.005 108.954v845.517c0 60.058-48.896 108.954-108.954 108.954z"></path>
</svg>
