<!-- Generated by IcoMoon.io -->
<svg version="1.1" xmlns="http://www.w3.org/2000/svg" width="1024" height="1024" viewBox="0 0 1024 1024">
<title></title>
<g id="icomoon-ignore">
</g>
<path d="M512 42.651l-166.4 247.501h328.55c-51.2-85.35-106.701-166.4-162.15-247.501v0zM0 977.051h273.050v-273.050h-273.050v273.050zM887.45 708.251c-76.8 0-136.55 59.75-136.55 136.55s59.75 136.55 136.55 136.55c76.8 0 136.55-59.75 136.55-136.55s-64-136.55-136.55-136.55v0zM614.4 772.251c-4.25-4.25-8.55-8.55-17.050-8.55-4.25 0-12.8 4.25-17.050 8.55-8.55 8.55-8.55 21.35 0 34.15l17.050 17.050h-230.4c-12.8 0-21.35 8.55-21.35 21.35s8.55 21.35 21.35 21.35h230.4l-17.050 17.050c-8.55 8.55-8.55 21.35 0 34.15 8.55 8.55 21.35 8.55 34.15 0l59.699-59.699c8.55-8.55 4.25-25.6-4.25-29.85l-55.501-55.552zM883.2 614.401l-115.2-196.25 25.6 8.55c29.85 8.499 42.65-34.15 12.8-42.701s-55.45-17.050-85.35-21.35c-12.8 0-21.35 8.55-21.35 21.35l-21.299 76.8c-8.55 29.85 34.15 42.65 42.65 12.8l8.55-25.6 115.2 196.25c12.8 21.35 55.45-4.25 38.4-29.85v0zM324.25 358.401c-8.499 0-17.050 4.25-21.299 12.8l-115.2 196.25-8.55-25.6c-4.25-8.55-12.8-17.050-21.35-17.050-12.8 0-25.6 12.8-21.35 29.85 8.55 25.6 12.8 51.2 21.35 76.8 4.25 8.55 17.050 17.050 29.85 17.050 25.6-8.55 76.8-21.35 76.8-21.35 29.85-8.55 17.050-51.2-12.8-42.65l-25.6 8.55 115.2-196.25c8.55-17.050 0.051-38.4-17.050-38.4v0z"></path>
</svg>
