<!-- Generated by IcoMoon.io -->
<svg version="1.1" xmlns="http://www.w3.org/2000/svg" width="1024" height="1024" viewBox="0 0 1024 1024">
<title></title>
<g id="icomoon-ignore">
</g>
<path d="M670.515 578.663c-28.672-9.677-47.923-36.454-47.923-66.662s19.251-56.986 47.923-66.662c8.704-2.918 13.722-12.083 11.418-21.043-8.141-31.59-20.634-61.901-37.222-90.163-4.813-8.192-15.258-11.059-23.603-6.554-10.291 5.581-21.914 8.55-33.638 8.55-38.81 0-70.349-31.539-70.349-70.349 0-11.776 2.97-23.398 8.55-33.638 4.557-8.346 1.638-18.79-6.554-23.603-28.262-16.589-58.624-29.133-90.214-37.222-8.858-2.304-18.074 2.714-20.992 11.418-9.626 28.672-36.454 47.923-66.662 47.923s-57.037-19.302-66.662-47.923c-2.918-8.704-12.083-13.722-21.043-11.418-31.539 8.090-61.85 20.634-90.163 37.222-8.192 4.813-11.059 15.258-6.554 23.603 5.632 10.291 8.55 21.914 8.55 33.69 0 38.81-31.539 70.349-70.349 70.349-11.776 0-23.45-2.97-33.638-8.55-8.346-4.557-18.79-1.69-23.603 6.502-16.589 28.262-29.082 58.624-37.222 90.163-2.304 8.909 2.714 18.074 11.418 21.043 28.672 9.626 47.923 36.454 47.923 66.662s-19.251 56.986-47.923 66.662c-8.704 2.918-13.722 12.083-11.418 21.043 8.141 31.59 20.634 61.901 37.274 90.163 4.813 8.192 15.258 11.059 23.603 6.554 10.24-5.581 21.914-8.55 33.638-8.55 38.81 0 70.349 31.539 70.349 70.349 0 11.776-2.97 23.398-8.55 33.638-4.557 8.346-1.638 18.79 6.554 23.603 28.262 16.589 58.573 29.133 90.163 37.222 1.485 0.41 2.918 0.563 4.352 0.563 7.373 0 14.182-4.71 16.64-11.981 9.626-28.672 36.454-47.923 66.662-47.923s56.986 19.251 66.662 47.923c2.918 8.704 12.083 13.722 21.043 11.418 31.59-8.141 61.901-20.634 90.163-37.222 8.192-4.813 11.059-15.258 6.554-23.603-5.581-10.291-8.55-21.914-8.55-33.638 0-38.81 31.539-70.349 70.349-70.349 11.776 0 23.398 2.97 33.638 8.55 8.346 4.557 18.79 1.638 23.603-6.554 16.589-28.262 29.133-58.573 37.222-90.163 2.304-8.96-2.714-18.125-11.418-21.043zM613.427 639.438c-8.499-1.843-17.254-2.816-26.010-2.816-67.021 0-121.549 54.528-121.549 121.549 0 8.755 0.973 17.459 2.816 26.010-8.806 4.147-17.869 7.834-26.982 11.11-22.323-32.768-59.546-53.146-100.454-53.146-40.96 0-78.234 20.429-100.454 53.146-9.216-3.277-18.227-7.014-26.982-11.11 1.843-8.55 2.816-17.254 2.816-26.010 0-67.021-54.528-121.549-121.549-121.549-8.755 0-17.459 0.973-26.010 2.816-4.147-8.806-7.834-17.869-11.11-26.982 32.717-22.323 53.146-59.546 53.146-100.454 0-40.96-20.429-78.234-53.146-100.454 3.226-9.216 6.963-18.176 11.11-26.982 8.499 1.843 17.254 2.816 26.010 2.816 67.021 0 121.549-54.528 121.549-121.549 0-8.755-0.973-17.51-2.816-26.010 8.806-4.147 17.818-7.885 26.982-11.11 22.323 32.768 59.546 53.146 100.454 53.146 40.96 0 78.234-20.429 100.454-53.146 9.216 3.277 18.176 7.014 26.982 11.11-1.843 8.499-2.765 17.254-2.765 25.958 0 67.021 54.528 121.549 121.549 121.549 8.755 0 17.51-0.973 26.010-2.816 4.147 8.806 7.834 17.869 11.11 26.982-32.768 22.374-53.197 59.597-53.197 100.506 0 40.96 20.429 78.234 53.146 100.454-3.226 9.216-6.912 18.176-11.11 26.982zM341.248 406.478c-58.163 0-105.523 47.36-105.523 105.523s47.36 105.523 105.523 105.523c58.163 0 105.523-47.36 105.523-105.523s-47.36-105.523-105.523-105.523zM341.248 566.324c-29.952 0-54.323-24.371-54.323-54.323s24.371-54.323 54.323-54.323 54.323 24.371 54.323 54.323-24.371 54.323-54.323 54.323zM1018.010 203.777c-14.336-4.813-23.91-18.227-23.91-33.28 0-15.104 9.626-28.467 23.91-33.28 4.352-1.434 6.861-6.042 5.734-10.496-4.045-15.77-10.291-30.925-18.586-45.056-2.406-4.096-7.629-5.53-11.776-3.277-5.12 2.816-10.957 4.25-16.794 4.25-19.405 0-35.123-15.77-35.123-35.123 0-5.888 1.485-11.674 4.25-16.794 2.253-4.147 0.819-9.37-3.277-11.776-14.131-8.294-29.286-14.541-45.056-18.586-4.454-1.126-9.011 1.331-10.496 5.734-4.813 14.336-18.227 23.91-33.28 23.91s-28.467-9.626-33.28-23.91c-1.434-4.352-6.042-6.861-10.496-5.734-15.77 4.045-30.925 10.291-45.056 18.586-4.096 2.406-5.53 7.629-3.277 11.776 2.816 5.12 4.25 10.957 4.25 16.794 0 19.405-15.77 35.123-35.123 35.123-5.888 0-11.725-1.485-16.794-4.25-4.147-2.253-9.37-0.819-11.776 3.277-8.294 14.131-14.541 29.286-18.586 45.056-1.126 4.454 1.382 9.011 5.734 10.496 14.336 4.813 23.91 18.227 23.91 33.28 0 15.104-9.626 28.467-23.91 33.28-4.352 1.434-6.861 6.042-5.734 10.496 4.045 15.77 10.291 30.925 18.586 45.056 2.406 4.096 7.629 5.53 11.776 3.277 5.12-2.816 10.957-4.25 16.794-4.25 19.354 0 35.123 15.77 35.123 35.123 0 5.888-1.485 11.674-4.25 16.794-2.253 4.147-0.819 9.37 3.277 11.776 14.131 8.294 29.286 14.541 45.056 18.586 0.717 0.205 1.485 0.256 2.202 0.256 3.686 0 7.117-2.355 8.346-5.99 4.813-14.336 18.227-23.91 33.28-23.91s28.467 9.626 33.28 23.91c1.434 4.352 6.042 6.861 10.496 5.734 15.77-4.045 30.925-10.291 45.056-18.586 4.096-2.406 5.53-7.629 3.277-11.776-2.816-5.12-4.25-10.957-4.25-16.794 0-19.405 15.77-35.123 35.123-35.123 5.888 0 11.674 1.485 16.794 4.25 4.147 2.253 9.37 0.819 11.776-3.277 8.294-14.131 14.541-29.286 18.586-45.056 1.075-4.454-1.434-9.011-5.786-10.496zM989.491 234.19c-4.25-0.922-8.602-1.382-13.005-1.382-33.485 0-60.723 27.238-60.723 60.723 0 4.352 0.461 8.704 1.382 13.005-4.403 2.048-8.909 3.942-13.466 5.53-11.162-16.384-29.747-26.573-50.176-26.573-20.48 0-39.117 10.24-50.176 26.573-4.608-1.638-9.114-3.482-13.466-5.53 0.922-4.25 1.382-8.602 1.382-13.005 0-33.485-27.238-60.723-60.723-60.723-4.352 0-8.704 0.461-13.005 1.382-2.048-4.403-3.942-8.909-5.53-13.466 16.384-11.162 26.573-29.747 26.573-50.176 0-20.48-10.24-39.117-26.573-50.176 1.638-4.608 3.482-9.114 5.53-13.466 4.25 0.922 8.602 1.382 13.005 1.382 33.485 0 60.723-27.238 60.723-60.723 0-4.352-0.461-8.755-1.382-13.005 4.403-2.048 8.909-3.942 13.466-5.53 11.162 16.384 29.747 26.573 50.176 26.573 20.48 0 39.117-10.24 50.176-26.573 4.608 1.638 9.114 3.482 13.466 5.53-0.922 4.25-1.382 8.602-1.382 13.005 0 33.485 27.238 60.723 60.723 60.723 4.352 0 8.755-0.461 13.005-1.382 2.048 4.403 3.942 8.909 5.53 13.466-16.384 11.162-26.573 29.747-26.573 50.176 0 20.48 10.24 39.117 26.573 50.176-1.587 4.557-3.43 9.062-5.53 13.466zM853.504 117.761c-29.082 0-52.736 23.654-52.736 52.736s23.654 52.736 52.736 52.736c29.082 0 52.736-23.654 52.736-52.736s-23.654-52.736-52.736-52.736zM853.504 197.633c-14.95 0-27.136-12.186-27.136-27.136s12.186-27.136 27.136-27.136 27.136 12.186 27.136 27.136-12.186 27.136-27.136 27.136zM1018.010 886.785c-14.336-4.813-23.91-18.227-23.91-33.28 0-15.104 9.626-28.467 23.91-33.28 4.352-1.434 6.861-6.042 5.734-10.496-4.045-15.77-10.291-30.925-18.586-45.056-2.406-4.096-7.629-5.53-11.776-3.277-5.12 2.816-10.957 4.25-16.794 4.25-19.405 0-35.123-15.77-35.123-35.123 0-5.888 1.485-11.674 4.25-16.794 2.253-4.147 0.819-9.37-3.277-11.776-14.131-8.294-29.286-14.541-45.056-18.586-4.454-1.126-9.011 1.331-10.496 5.734-4.813 14.336-18.227 23.91-33.28 23.91s-28.467-9.626-33.28-23.91c-1.434-4.352-6.042-6.861-10.496-5.734-15.77 4.045-30.925 10.291-45.056 18.586-4.096 2.406-5.53 7.629-3.277 11.776 2.816 5.12 4.25 10.957 4.25 16.794 0 19.405-15.77 35.123-35.123 35.123-5.888 0-11.725-1.485-16.794-4.25-4.147-2.253-9.37-0.819-11.776 3.277-8.294 14.131-14.541 29.286-18.586 45.056-1.126 4.454 1.382 9.011 5.734 10.496 14.336 4.813 23.91 18.227 23.91 33.28 0 15.104-9.626 28.467-23.91 33.28-4.352 1.434-6.861 6.042-5.734 10.496 4.045 15.77 10.291 30.925 18.586 45.056 2.406 4.096 7.629 5.53 11.776 3.277 5.12-2.816 10.957-4.25 16.794-4.25 19.354 0 35.123 15.77 35.123 35.123 0 5.888-1.485 11.674-4.25 16.794-2.253 4.147-0.819 9.37 3.277 11.776 14.131 8.294 29.286 14.541 45.056 18.586 0.614 0.256 1.331 0.358 2.048 0.358 3.686 0 7.117-2.355 8.346-5.99 4.813-14.336 18.227-23.91 33.28-23.91s28.467 9.626 33.28 23.91c1.434 4.352 6.042 6.861 10.496 5.734 15.77-4.045 30.925-10.291 45.056-18.586 4.096-2.406 5.53-7.629 3.277-11.776-2.816-5.12-4.25-10.957-4.25-16.794 0-19.405 15.77-35.123 35.123-35.123 5.888 0 11.674 1.485 16.794 4.25 4.147 2.253 9.37 0.819 11.776-3.277 8.294-14.131 14.541-29.286 18.586-45.056 1.229-4.557-1.28-9.114-5.632-10.598zM989.491 917.198c-4.25-0.922-8.602-1.382-13.005-1.382-33.485 0-60.723 27.238-60.723 60.723 0 4.352 0.461 8.704 1.382 13.005-4.403 2.048-8.909 3.942-13.466 5.53-11.162-16.384-29.747-26.573-50.176-26.573-20.48 0-39.117 10.24-50.176 26.573-4.608-1.638-9.114-3.482-13.466-5.53 0.922-4.25 1.382-8.602 1.382-13.005 0-33.485-27.238-60.723-60.723-60.723-4.352 0-8.704 0.461-13.005 1.382-2.048-4.403-3.942-8.909-5.53-13.466 16.384-11.162 26.573-29.747 26.573-50.176 0-20.48-10.24-39.117-26.573-50.176 1.638-4.608 3.482-9.114 5.53-13.466 4.25 0.922 8.602 1.382 13.005 1.382 33.485 0 60.723-27.238 60.723-60.723 0-4.352-0.461-8.755-1.382-13.005 4.403-2.048 8.909-3.942 13.466-5.53 11.162 16.384 29.747 26.573 50.176 26.573 20.48 0 39.117-10.24 50.176-26.573 4.608 1.638 9.114 3.482 13.466 5.53-0.922 4.25-1.382 8.602-1.382 13.005 0 33.485 27.238 60.723 60.723 60.723 4.352 0 8.755-0.461 13.005-1.382 2.048 4.403 3.942 8.909 5.53 13.466-16.384 11.162-26.573 29.747-26.573 50.176 0 20.48 10.24 39.117 26.573 50.176-1.587 4.557-3.43 9.062-5.53 13.466zM853.504 800.769c-29.082 0-52.736 23.654-52.736 52.736s23.654 52.736 52.736 52.736c29.082 0 52.736-23.654 52.736-52.736s-23.654-52.736-52.736-52.736zM853.504 880.641c-14.95 0-27.136-12.186-27.136-27.136s12.186-27.136 27.136-27.136 27.136 12.186 27.136 27.136c0 14.95-12.186 27.136-27.136 27.136z"></path>
</svg>
