<!-- Generated by IcoMoon.io -->
<svg version="1.1" xmlns="http://www.w3.org/2000/svg" width="1024" height="1024" viewBox="0 0 1024 1024">
<title></title>
<g id="icomoon-ignore">
</g>
<path d="M502.835 215.604c-9.933 0-17.971 8.038-17.971 17.971s8.038 17.971 17.971 17.971h323.379c9.933 0 17.971-8.038 17.971-17.971s-8.038-17.971-17.971-17.971h-323.379zM844.186 485.070c0-9.933-8.038-17.971-17.971-17.971h-323.379c-9.933 0-17.971 8.038-17.971 17.971s8.038 17.971 17.971 17.971h323.379c9.933 0 17.971-8.038 17.971-17.971zM387.482 130.1c-7.475-6.451-18.842-5.632-25.293 1.946l-112.23 130.918-68.659-51.507c-7.936-5.939-19.2-4.352-25.139 3.584-5.99 7.936-4.352 19.2 3.584 25.139l82.125 61.594c3.226 2.406 7.014 3.584 10.752 3.584 5.069 0 10.138-2.15 13.67-6.298l123.187-143.718c6.451-7.475 5.581-18.79-1.997-25.242zM387.482 381.595c-7.475-6.451-18.842-5.581-25.293 1.946l-112.23 130.918-68.659-51.507c-7.936-5.888-19.2-4.352-25.139 3.635-5.99 7.885-4.352 19.149 3.584 25.139l82.125 61.594c3.226 2.406 7.014 3.584 10.752 3.584 5.069 0 10.138-2.15 13.67-6.298l123.187-143.718c6.451-7.526 5.581-18.842-1.997-25.293zM362.189 653.006l-112.23 130.918-68.659-51.507c-7.885-5.939-19.149-4.352-25.139 3.584-5.939 7.936-4.352 19.2 3.584 25.139l82.125 61.594c3.226 2.406 7.014 3.584 10.752 3.584 5.069 0 10.138-2.15 13.67-6.298l123.187-143.718c6.451-7.526 5.581-18.842-1.946-25.293-7.526-6.4-18.893-5.53-25.344 1.997zM484.915 934.196h-248.371c-100.813 0-182.835-81.971-182.835-182.835v-532.634c0-100.813 81.971-182.835 182.835-182.835h532.634c100.813 0 182.835 81.971 182.835 182.835v374.118c0 9.933 8.038 17.971 17.971 17.971s17.971-8.038 17.971-17.971v-374.118c-0.051-120.627-98.15-218.726-218.778-218.726h-532.634c-120.627 0-218.726 98.099-218.726 218.726v532.634c0 120.627 98.099 218.726 218.726 218.726h248.371c9.933 0 17.971-8.038 17.971-17.971-0.051-9.933-8.038-17.92-17.971-17.92zM870.4 637.134c0 10.035-7.629 18.227-17.050 18.227h-273.050c-9.472 0-17.101-8.141-17.101-18.227v-4.557c0-10.035 7.629-18.176 17.050-18.176h273.050c9.472 0 17.101 8.141 17.101 18.227v4.506zM870.4 1005.774c0 10.086-7.629 18.227-17.050 18.227h-273.050c-9.472 0-17.101-8.141-17.101-18.227v-4.557c0-10.035 7.629-18.227 17.050-18.227h273.050c9.421 0 17.050 8.141 17.050 18.227v4.557h0.051zM716.8 820.020l-3.226-1.485c-1.382-0.614-34.15-15.616-67.379-40.090-44.39-32.666-67.891-66.509-67.891-97.946 0-18.739 15.36-34.355 44.442-45.261 24.934-9.318 58.317-14.438 94.106-14.438 35.738 0 69.171 5.12 94.106 14.438 29.082 10.854 44.442 26.522 44.442 45.261 0 31.437-23.45 65.28-67.891 97.946-33.28 24.474-66.048 39.475-67.379 40.090l-3.328 1.485zM716.8 628.481c-33.792 0-65.229 4.762-88.474 13.466-17.613 6.605-38.554 18.637-38.554 38.554 0 37.274 35.277 71.014 64.922 92.826 26.419 19.456 53.094 32.973 62.157 37.376 9.062-4.403 35.84-18.022 62.31-37.478 29.542-21.76 64.717-55.45 64.717-92.672 0-19.968-20.992-32-38.554-38.554-23.296-8.755-54.733-13.517-88.525-13.517zM716.8 1013.761c-35.738 0-69.171-5.12-94.106-14.438-29.082-10.854-44.442-26.522-44.442-45.261 0-31.437 23.45-65.28 67.891-97.946 33.28-24.474 66.048-39.475 67.379-40.090l3.277-1.434 3.226 1.485c1.382 0.614 34.15 15.616 67.379 40.090 44.39 32.666 67.891 66.509 67.891 97.946 0 18.739-15.36 34.355-44.442 45.261-24.883 9.267-58.317 14.387-94.054 14.387zM716.8 823.911c-9.062 4.403-35.84 18.022-62.31 37.478-29.542 21.76-64.717 55.45-64.717 92.672 0 19.968 20.992 32 38.554 38.554 23.245 8.704 54.682 13.466 88.474 13.466s65.229-4.762 88.474-13.466c17.613-6.605 38.554-18.637 38.554-38.554 0-37.222-35.226-70.912-64.717-92.672-26.47-19.456-53.248-33.075-62.31-37.478zM807.373 713.729c0 50.483-90.573 91.443-90.573 91.443s-90.573-40.96-90.573-91.443 181.146-50.534 181.146 0z"></path>
</svg>
