<!-- Generated by IcoMoon.io -->
<svg version="1.1" xmlns="http://www.w3.org/2000/svg" width="1024" height="1024" viewBox="0 0 1024 1024">
<title></title>
<g id="icomoon-ignore">
</g>
<path d="M841.984 580.251c-65.638 0-124.57-34.509-157.133-91.034h-15.718c-32.512 56.525-91.494 91.034-157.133 91.034s-124.57-34.509-157.133-91.034h-15.718c-32.512 56.525-91.494 91.034-157.133 91.034-80.026 0-151.142-53.555-173.926-130.611-5.427-10.598-8.090-20.941-8.090-31.488v-312.883c0-39.219 31.898-71.117 71.117-71.117h881.818c39.168 0 71.066 31.898 71.066 71.117v312.883c0 10.547-2.662 20.89-8.141 31.488-22.733 77.056-93.901 130.611-173.875 130.611zM641.024 443.751h71.936l6.195 12.954c22.989 48.179 70.042 78.080 122.829 78.080 60.518 0 114.33-41.062 130.816-99.84l1.946-4.864c2.56-4.659 3.738-8.448 3.738-11.93v-312.883c0-14.131-11.469-25.6-25.6-25.6h-881.766c-14.131 0-25.6 11.469-25.6 25.6v312.883c0 3.482 1.178 7.322 3.738 11.93l1.997 4.813c16.486 58.778 70.246 99.84 130.816 99.84 52.787 0 99.84-29.901 122.829-78.080l6.195-12.954h71.885l6.195 13.005c22.989 48.128 70.042 78.029 122.829 78.029s99.84-29.901 122.829-78.080l6.195-12.902zM877.517 989.851h-731.034c-49.408 0-89.6-40.192-89.6-89.6v-275.917c0-12.595 10.189-22.733 22.733-22.733 12.595 0 22.784 10.189 22.784 22.733v275.917c0 24.32 19.763 44.083 44.083 44.083h731.034c24.32 0 44.083-19.763 44.083-44.083v-275.917c0-12.595 10.189-22.733 22.733-22.733 12.595 0 22.733 10.189 22.733 22.733v275.917c0.051 49.408-40.141 89.6-89.549 89.6z"></path>
</svg>
