<!-- Generated by IcoMoon.io -->
<svg version="1.1" xmlns="http://www.w3.org/2000/svg" width="1024" height="1024" viewBox="0 0 1024 1024">
<title></title>
<g id="icomoon-ignore">
</g>
<path d="M996.096 861.134l-202.291-202.291 26.982-26.982-26.982-26.982-80.896 80.896-134.861-134.861 162.099-162.099c21.606 7.68 44.134 11.571 67.277 11.571 53.402 0 103.68-20.787 141.466-58.573 58.317-58.368 74.854-145.050 42.138-220.877l-11.11-25.805-86.938 86.938-69.99 0.973 0.922-66.765 88.627-88.576-25.754-11.162c-25.293-10.906-52.122-16.486-79.77-16.486-53.453 0-103.629 20.787-141.363 58.573-55.296 55.296-73.062 136.038-46.899 208.896l-162.048 162.048-229.274-229.222 26.982-26.982-148.326-148.326-80.998 80.896 148.378 148.326 26.931-26.982 229.274 229.222-161.997 161.997c-21.658-7.731-44.288-11.674-67.533-11.674-53.402 0-103.68 20.838-141.414 58.573-58.419 58.368-74.957 145.203-42.035 221.133l11.162 25.754 88.627-88.627 66.714-0.922-0.922 70.144-86.938 86.938 25.805 11.11c25.19 10.854 51.917 16.384 79.462 16.384 53.453 0 103.629-20.787 141.363-58.573 55.245-55.245 73.011-135.885 47.002-208.691l162.099-162.099 134.912 134.861-80.947 80.947 26.982 26.982 26.982-26.982 202.24 202.24c18.022 18.022 41.984 27.955 67.43 27.955s49.408-9.933 67.43-27.955c37.222-37.171 37.171-97.69 0-134.861v0zM79.104 105.934l26.982-26.931 94.362 94.362-26.982 26.982-94.362-94.413zM349.133 742.964c26.47 61.389 13.056 131.584-34.15 178.79-30.566 30.566-71.168 47.36-114.432 47.36-12.39 0-24.627-1.382-36.557-4.147l56.166-56.115 1.69-124.672-121.395 1.638-57.958 57.907c-12.749-54.016 2.918-111.002 43.213-151.296 30.566-30.566 71.219-47.411 114.432-47.411 22.426 0 44.134 4.506 64.614 13.363l11.878 5.171 387.072-387.021-5.171-11.93c-26.624-61.491-13.261-131.738 34.048-178.995 30.566-30.566 71.168-47.411 114.432-47.411 12.544 0 24.832 1.382 36.864 4.198l-57.907 57.907-1.69 121.446 124.672-1.69 56.166-56.166c12.595 53.914-3.072 110.797-43.264 150.989-30.566 30.566-71.219 47.36-114.483 47.36-22.323 0-43.981-4.454-64.41-13.261l-11.878-5.12-387.123 387.174 5.171 11.93zM969.165 969.012c-10.803 10.803-25.19 16.742-40.499 16.742s-29.645-5.99-40.499-16.742l-202.291-202.24 80.896-80.896 202.291 202.24c22.374 22.323 22.374 58.573 0.102 80.896v0z"></path>
</svg>
