<!-- Generated by IcoMoon.io -->
<svg version="1.1" xmlns="http://www.w3.org/2000/svg" width="1024" height="1024" viewBox="0 0 1024 1024">
<title></title>
<g id="icomoon-ignore">
</g>
<path d="M960.051 377.806l-34.099 31.232c10.24 38.861 14.694 79.002 13.261 119.757-8.243 231.117-206.643 412.621-442.317 404.531-235.622-8.090-420.659-202.701-412.416-433.869 8.243-231.117 206.643-412.621 442.266-404.531 27.392 0.922 54.477 4.71 81.101 10.752l36.147-33.075c-37.683-10.854-76.493-17.050-115.763-18.381-258.56-8.858-476.262 190.259-485.274 443.853s193.946 467.098 452.506 475.955c258.56 8.858 476.262-190.259 485.274-443.853 1.843-52.070-5.12-103.219-20.685-152.371v0 0zM701.747 442.574c6.758 17.254 11.059 35.43 12.749 54.17 9.779 109.568-73.165 206.592-184.934 216.166-111.718 9.574-210.586-71.782-220.365-181.402s73.165-206.592 184.883-216.166c24.73-2.099 49.459 0.307 73.114 6.81l-3.84-42.854c-23.808-5.018-48.333-6.656-72.909-4.557-134.554 11.571-234.445 128.358-222.669 260.301 11.776 131.994 130.816 229.99 265.37 218.419s234.496-128.307 222.72-260.301c-1.638-18.586-5.581-36.762-11.418-54.272l-42.701 3.686zM644.147 379.7l-122.931 120.525-9.472 0.102c-3.942 0-7.629 1.536-10.394 4.25-2.611 2.509-4.045 5.939-4.045 9.574 0 3.584 1.434 6.963 4.096 9.523 5.786 5.683 15.104 5.632 20.838 0.051 3.328-3.277 4.762-7.68 3.891-12.083l-2.355-12.39 120.678-118.374-0.41 0.051 0.102-1.229zM821.453 206.542l11.162-156.826-196.864 193.075-8.55 120.73-115.558 113.357c-9.677 0.051-19.302 3.635-26.675 10.906-14.848 14.541-14.848 38.144 0 52.685 14.848 14.592 38.912 14.541 53.76 0 9.216-9.062 12.698-21.606 10.445-33.28l112.23-110.080 123.136-8.448 196.813-193.075-159.898 10.957zM766.106 349.083l-96.717 6.605 6.758-94.874 107.264-105.216-6.758 94.874 96.717-6.605-107.264 105.216z"></path>
</svg>
