<!-- Generated by IcoMoon.io -->
<svg version="1.1" xmlns="http://www.w3.org/2000/svg" width="1024" height="1024" viewBox="0 0 1024 1024">
<title></title>
<g id="icomoon-ignore">
</g>
<path d="M631.757 217.55c0 13.261-17.357 24.013-38.707 24.013h-369.101c-21.402 0-38.707-10.752-38.707-24.013v0c0-13.261 17.357-24.013 38.707-24.013h369.101c21.35 0 38.707 10.752 38.707 24.013v0 0zM408.474 367.924c0 13.261-17.357 24.013-38.707 24.013h-145.818c-21.402 0-38.707-10.752-38.707-24.013v0c0-13.261 17.357-24.013 38.707-24.013h145.818c21.35 0 38.707 10.752 38.707 24.013v0 0zM800.922 0.001h-577.843c-105.728 0-191.386 85.709-191.386 191.386v241.664c0 105.677 85.709 191.386 191.386 191.386h265.421c-3.635 5.99-6.042 13.619-6.042 22.17v88.474l-246.426 202.598c-10.189 8.397-11.674 23.603-3.277 33.792s23.603 11.674 33.792 3.277l215.91-177.51v192.461c0 18.944 10.752 34.304 24.013 34.304s24.013-15.36 24.013-34.304v-343.091c0-8.55-2.406-16.179-6.042-22.17h276.531c105.677 0 191.386-85.709 191.386-191.386v-241.664c-0.051-105.677-85.709-191.386-191.437-191.386zM944.282 433.051c0 79.053-64.307 143.36-143.36 143.36h-577.843c-79.053 0-143.36-64.307-143.36-143.36v-241.664c0-79.053 64.307-143.36 143.36-143.36h577.894c79.053 0 143.36 64.307 143.36 143.36v241.664zM638.822 790.529c-11.008-7.322-26.010-4.25-33.28 6.758-7.322 11.008-4.25 26.010 6.758 33.28l203.776 135.117c11.008 7.322 26.010 4.25 33.28-6.758 7.322-11.008 4.25-26.010-6.758-33.28l-203.776-135.117z"></path>
</svg>
