<!-- Generated by IcoMoon.io -->
<svg version="1.1" xmlns="http://www.w3.org/2000/svg" width="1024" height="1024" viewBox="0 0 1024 1024">
<title></title>
<g id="icomoon-ignore">
</g>
<path d="M177.050 140.135h189.235v168.141h-189.235v-168.141zM420.966 257.895h276.634v48.128h-276.634v-48.128zM420.966 142.439h452.71v60.109h-452.71v-60.109zM177.050 358.247h696.627v50.739h-696.627v-50.739zM360.448 707.175h-303.053v-707.174h909.21v707.174h-50.483v-656.64h-808.243v606.157h252.57v50.483zM863.232 435.969c-12.749-8.704-30.31-5.427-39.014 7.322l-149.914 219.443h-28.877l-164.045-216.576c-9.318-12.288-27.034-14.694-39.322-5.376s-14.746 27.034-5.427 39.322l138.394 182.682h-59.341c-15.462 0-28.058 12.646-28.058 28.058s12.646 28.058 28.058 28.058h112.23v108.698h-112.23c-15.462 0-28.058 12.646-28.058 28.058s12.646 28.058 28.058 28.058h112.23v112.23c0 15.411 12.646 28.058 28.058 28.058s28.058-12.646 28.058-28.058v-112.23h112.23c15.462 0 28.058-12.646 28.058-28.058s-12.646-28.058-28.058-28.058h-112.23v-108.698h112.23c15.462 0 28.058-12.646 28.058-28.058s-12.646-28.058-28.058-28.058h-54.016l128.307-187.802c8.755-12.749 5.427-30.31-7.322-39.014z"></path>
</svg>
