<!-- Generated by IcoMoon.io -->
<svg version="1.1" xmlns="http://www.w3.org/2000/svg" width="1024" height="1024" viewBox="0 0 1024 1024">
<title></title>
<g id="icomoon-ignore">
</g>
<path d="M898.765 32.615c-13.619-20.378-36.506-32.614-60.928-32.614h-653.466c-24.474 0-47.36 12.237-60.928 32.614l-123.699 186.726v731.904c0 40.243 32.973 73.216 73.165 73.216h878.131c40.192 0 73.216-32.973 73.216-73.216v-731.904l-125.491-186.726zM951.040 951.246h-878.131v-658.739h878.131v658.739zM72.909 219.342l107.059-145.664 666.112-0.563 104.96 146.227h-878.131zM442.726 625.255c1.126 9.011 1.69 30.464 1.69 49.562v120.013c0 22.528-1.126 50.688-3.379 81.715h47.923v-82.278h170.086v16.896c0 22.579-3.942 25.395-56.32 22.579 11.264 21.914 15.77 35.379 18.022 51.814 78.848-11.315 81.715-19.2 81.715-64.205v-146.534c0-19.098 0.563-40.55 1.075-49.562-19.149 1.69-68.71 2.867-129.536 2.867-63.642 0-110.387-1.178-131.277-2.867zM659.046 762.113h-170.086v-33.792h170.086v33.792zM659.046 696.782h-170.086v-36.096h170.086v36.096zM371.2 579.073c-26.47-15.77-63.078-38.861-86.733-56.32l-25.907 39.987c25.344 11.827 64.205 39.987 85.606 59.187l27.034-42.854zM344.166 778.446c18.022-53.504 25.344-73.267 32.102-87.859-16.333-6.195-32.102-16.896-45.056-31.539-7.322 30.464-18.022 64.768-29.286 93.491-16.333 41.165-27.034 61.952-43.93 85.658 19.712 9.472 37.734 21.914 55.194 37.12 9.574-32.102 20.275-65.331 30.976-96.87zM550.912 494.593c-42.803-0.614-93.491-3.43-115.507-6.195v43.366c20.838-2.816 71.526-5.632 115.456-6.195v38.861c-56.883-1.075-134.042-3.942-157.133-6.758v45.056c29.85-3.891 124.467-5.581 180.787-5.581 56.371 0 149.862 1.69 180.275 5.581v-45.056c-24.73 3.379-104.192 6.195-160.512 6.758v-38.861c47.309 0.563 103.066 3.379 126.157 6.195v-43.366c-23.091 2.816-78.848 5.069-126.157 6.195v-41.165c52.326 0.563 121.088 3.379 144.742 6.195v-45.619c-23.654 2.816-92.416 6.195-144.742 6.758v-18.022c0-6.758 1.638-16.896 5.069-20.275 6.195-5.632 5.069-9.574-1.69-9.011-17.459 1.69-36.045 0.563-48.435-1.69 1.126 9.574 1.69 23.091 1.69 48.998-49.562-1.126-112.077-3.942-133.53-6.758v45.619c20.838-2.816 83.968-5.069 133.478-6.195v41.165zM368.384 496.846l32.666-39.987c-23.654-20.838-57.446-47.309-84.48-67.584l-29.286 35.43c27.597 15.821 56.32 41.677 81.101 72.141z"></path>
</svg>
