<!-- Generated by IcoMoon.io -->
<svg version="1.1" xmlns="http://www.w3.org/2000/svg" width="1024" height="1024" viewBox="0 0 1024 1024">
<title></title>
<g id="icomoon-ignore">
</g>
<path d="M563.2 44.75c0-24.678-30.413-44.749-67.84-44.749-37.478 0-67.84 20.070-67.84 44.749 0 1.587 1.075 2.918 1.331 4.454h-1.331l22.477 259.072c0 16.486 20.275 29.901 45.363 29.901 25.037 0 45.363-13.414 45.363-29.901l22.477-259.072h-1.28c0.102-1.536 1.28-2.867 1.28-4.454zM427.52 979.303c0 24.627 30.362 44.698 67.84 44.698 37.427 0 67.84-20.070 67.84-44.698 0-1.587-1.075-2.97-1.331-4.506h1.331l-22.477-259.123c0-16.486-20.275-29.901-45.363-29.901-25.037 0-45.363 13.414-45.363 29.901l-22.477 259.123h1.28c-0.154 1.536-1.28 2.918-1.28 4.506zM124.621 219.598c-21.402-12.339-53.965 3.942-72.653 36.403-18.739 32.41-16.589 68.762 4.762 81.101 1.382 0.819 3.072 0.512 4.557 1.075l-0.666 1.178 235.622 110.029c14.285 8.243 36.045-2.611 48.589-24.32 12.544-21.658 11.059-45.978-3.226-54.221l-213.146-148.992-0.614 1.075c-1.28-0.87-1.894-2.509-3.226-3.328zM866.099 804.404c21.35 12.288 53.965-3.994 72.653-36.403 18.739-32.461 16.538-68.813-4.813-81.101-1.331-0.819-3.072-0.563-4.557-1.126l0.666-1.178-235.622-110.029c-14.285-8.243-36.045 2.662-48.589 24.371-12.493 21.709-11.059 45.926 3.226 54.221l213.094 149.043 0.666-1.178c1.331 0.87 1.946 2.56 3.277 3.379zM56.73 686.849c-21.35 12.339-23.552 48.691-4.813 81.101 18.739 32.461 51.302 48.742 72.653 36.403 1.382-0.768 1.997-2.406 3.226-3.379l0.717 1.178 213.094-149.043c14.285-8.243 15.77-32.512 3.226-54.221-12.493-21.709-34.253-32.614-48.589-24.371l-235.622 110.029 0.666 1.178c-1.434 0.666-3.174 0.307-4.557 1.126zM933.939 337.102c21.299-12.339 23.501-48.742 4.813-81.101-18.739-32.461-51.302-48.742-72.653-36.403-1.331 0.768-1.997 2.406-3.226 3.379l-0.768-1.126-213.094 148.992c-14.285 8.294-15.718 32.563-3.226 54.272 12.544 21.658 34.253 32.563 48.538 24.269l235.674-110.029-0.666-1.126c1.485-0.666 3.277-0.358 4.608-1.126z"></path>
</svg>
