<!-- Generated by IcoMoon.io -->
<svg version="1.1" xmlns="http://www.w3.org/2000/svg" width="1024" height="1024" viewBox="0 0 1024 1024">
<title></title>
<g id="icomoon-ignore">
</g>
<path d="M451.686 252.007h-245.76c-17.050 0-30.771 13.722-30.771 30.72v245.76c0 17.050 13.722 30.771 30.771 30.771h245.76c16.998 0 30.72-13.722 30.72-30.771v-245.76c0-17.050-13.722-30.72-30.72-30.72zM431.206 487.476c0 11.418-9.114 20.48-20.48 20.48h-163.84c-11.315 0-20.48-9.114-20.48-20.48v-163.789c0-11.418 9.216-20.48 20.48-20.48h163.789c11.418 0 20.48 9.114 20.48 20.48v163.789zM818.125 252.007h-245.76c-17.050 0-30.771 13.722-30.771 30.72v245.76c0 17.050 13.722 30.771 30.771 30.771h245.76c16.998 0 30.72-13.722 30.72-30.771v-245.76c-0.051-17.050-13.773-30.72-30.72-30.72zM797.594 487.476c0 11.418-9.114 20.48-20.48 20.48h-163.789c-11.315 0-20.48-9.114-20.48-20.48v-163.789c0-11.418 9.216-20.48 20.48-20.48h163.789c11.418 0 20.48 9.114 20.48 20.48v163.789zM451.686 618.395h-245.76c-17.050 0-30.771 13.722-30.771 30.72v245.76c0 17.050 13.722 30.771 30.771 30.771h245.76c16.998 0 30.72-13.722 30.72-30.771v-245.76c0-16.998-13.722-30.72-30.72-30.72zM431.206 853.915c0 11.418-9.114 20.48-20.48 20.48h-163.84c-11.315 0-20.48-9.114-20.48-20.48v-163.789c0-11.418 9.216-20.48 20.48-20.48h163.789c11.418 0 20.48 9.114 20.48 20.48v163.789zM818.125 618.395h-245.76c-17.050 0-30.771 13.722-30.771 30.72v245.76c0 17.050 13.722 30.771 30.771 30.771h245.76c16.998 0 30.72-13.722 30.72-30.771v-245.76c-0.051-16.998-13.773-30.72-30.72-30.72zM797.594 853.915c0 11.418-9.114 20.48-20.48 20.48h-163.789c-11.315 0-20.48-9.114-20.48-20.48v-163.789c0-11.418 9.216-20.48 20.48-20.48h163.789c11.418 0 20.48 9.114 20.48 20.48v163.789zM972.8 153.601h-238.387v-115.2c0-21.197-17.203-38.4-38.4-38.4s-38.4 17.203-38.4 38.4v115.2h-291.226v-115.2c0-21.197-17.203-38.4-38.4-38.4s-38.4 17.203-38.4 38.4v115.2h-238.387c-28.314 0-51.2 22.938-51.2 51.2v768c0 28.262 22.886 51.2 51.2 51.2h921.6c28.314 0 51.2-22.938 51.2-51.2v-768c0-28.262-22.886-51.2-51.2-51.2zM972.8 927.591c0 24.934-20.582 45.21-46.080 45.21h-829.44c-25.498 0-46.080-20.275-46.080-45.21v-677.581c0-24.934 20.582-45.21 46.080-45.21h829.44c25.498 0 46.080 20.275 46.080 45.21v677.581z"></path>
</svg>
