<!-- Generated by IcoMoon.io -->
<svg version="1.1" xmlns="http://www.w3.org/2000/svg" width="1024" height="1024" viewBox="0 0 1024 1024">
<title></title>
<g id="icomoon-ignore">
</g>
<path d="M556.851 294.094l-118.784 423.731h-63.693l-85.35-305.306c-3.84-13.875-6.144-28.467-6.861-43.776h-1.075c-1.075 15.155-3.738 29.542-7.68 43.213l-86.17 305.869h-63.232l-122.829-423.731h60.467l86.426 320.051c3.84 14.387 6.093 28.928 6.861 43.571h1.638c0.87-11.008 3.891-25.446 9.011-43.571l91.648-320.051h53.914l87.552 322.56c2.867 10.547 5.222 24.064 7.117 40.499h1.075c0.87-11.827 3.533-25.754 7.936-41.626l83.2-321.434h58.829zM714.086 340.327h-40.755v331.366h40.755v46.182h-136.243v-46.182h40.806v-331.366h-40.806v-46.234h136.243v46.234zM763.597 638.26c12.954 11.315 30.259 20.582 51.968 27.904s42.342 10.957 61.85 10.957c59.443 0 89.139-21.146 89.139-63.488 0-11.827-3.226-22.477-9.626-32-6.349-9.523-15.104-17.818-26.214-25.139-11.11-7.27-32.051-18.534-62.669-33.638-42.445-21.197-70.451-40.806-84.019-58.982-13.363-18.176-20.122-38.912-20.122-62.259 0-35.226 14.080-63.078 42.342-83.712 28.314-20.634 64-30.925 107.008-30.925 42.138 0 73.011 5.12 92.723 15.309v59.597c-25.446-17.715-57.702-26.522-96.819-26.522-25.907 0-47.002 5.427-63.283 16.23-16.333 10.854-24.525 25.958-24.525 45.312 0 17.152 5.683 31.13 16.998 41.83 11.315 10.752 35.789 25.446 73.574 44.032 41.626 19.917 70.758 39.782 87.245 59.648 16.589 19.968 24.832 42.291 24.832 67.123 0 37.171-13.414 65.69-40.448 85.555-26.982 19.866-64.512 29.85-112.384 29.85-16.845 0-36.403-2.406-58.675-7.014-22.426-4.659-38.656-10.394-48.845-17.357v-62.31z"></path>
</svg>
