<!-- Generated by IcoMoon.io -->
<svg version="1.1" xmlns="http://www.w3.org/2000/svg" width="1024" height="1024" viewBox="0 0 1024 1024">
<title></title>
<g id="icomoon-ignore">
</g>
<path d="M987.136 373.966l-70.195 1.741c-87.296 11.981-77.158 124.979-77.158 124.979-6.81 101.171-53.043 123.392-53.043 123.392-135.424 42.803-113.152-73.677-113.152-73.677 51.456-107.93-61.542-111.309-61.542-111.309-118.221-5.12-101.12 111.309-101.12 111.309-25.702 83.968-58.266 77.158-58.266 77.158-118.221 22.272-95.949-58.266-95.949-58.266l22.272-166.144c18.893-83.968-34.253-92.621-34.253-92.621l-286.106-95.949c-75.418 20.634-56.525 118.221-56.525 118.221 30.822 37.683 205.619 78.899 205.619 78.899 1.741 29.030-22.272 167.885-22.272 167.885-5.171 142.131 114.739 171.264 114.739 171.264 116.48 66.867 265.626-35.994 265.626-35.994 27.29 46.234 137.011 58.368 137.011 58.368 186.675-1.741 270.643-139.725 270.643-139.725 35.942-52.224 46.336-192.768 46.336-192.768 20.48-63.283-32.666-66.765-32.666-66.765z"></path>
</svg>
