<!-- Generated by IcoMoon.io -->
<svg version="1.1" xmlns="http://www.w3.org/2000/svg" width="1024" height="1024" viewBox="0 0 1024 1024">
<title></title>
<g id="icomoon-ignore">
</g>
<path d="M448.717 392.91c-31.334 78.95-67.021 169.83-98.355 224.922l-41.114-12.954c22.733-43.315 51.917-109.261 74.598-171.93h-147.046v463.872c0 33.434-7.578 49.664-32.461 57.242-25.958 9.779-70.298 9.779-144.896 9.779-3.226-14.080-9.728-34.611-17.306-48.691 60.57 1.126 110.285 1.126 124.365 0 16.179-1.075 20.531-5.376 20.531-18.33v-463.872h-187.034v-48.691h285.44c-58.368-48.589-152.422-120.013-227.021-170.803l31.334-31.334c31.334 20.531 68.147 45.363 102.758 70.246 49.664-42.138 104.806-104.806 142.694-162.15h-314.675v-47.616h349.235l9.728-3.174 34.611 22.63c-47.565 76.749-121.088 161.126-184.883 217.344 42.189 30.31 82.176 60.57 108.134 82.176l-18.381 22.682h88.678l8.602-2.099 32.461 10.752zM977.408 38.299v47.616h-220.57c-15.155 43.213-31.334 90.778-46.49 128.614h223.795v329.318h-50.79v-280.627h-337.306v280.627h-49.766v-329.318h163.277c12.954-36.71 28.109-87.603 38.912-128.614h-243.302v-47.616h522.24zM685.517 342.068h49.766v212.736h-49.766v-212.736zM372.378 592.027h75.725l60.723 214.272c11.059 42.445 22.886 84.838 33.946 127.283h3.123c13.414-42.445 27.597-84.89 41.83-127.283l79.667-214.272h66.304l81.254 214.272c14.182 41.882 27.597 84.326 41.011 127.283h3.942c11.059-43.008 22.067-85.402 33.126-127.283l60.774-214.272h70.195l-119.91 393.677h-87.552l-87.603-237.363c-10.24-31.181-18.893-59.648-28.416-89.702h-3.123c-9.472 30.054-19.712 58.522-29.184 89.702l-85.965 237.363h-86.784l-123.085-393.677z"></path>
</svg>
