<!-- Generated by IcoMoon.io -->
<svg version="1.1" xmlns="http://www.w3.org/2000/svg" width="1024" height="1024" viewBox="0 0 1024 1024">
<title></title>
<g id="icomoon-ignore">
</g>
<path d="M621.722 357.889l-110.541 169.933-108.083-169.933h-66.202l138.803 222.413h-138.803v45.978h146.125v60.518h-146.125v46.797h146.125v136.294h56.371v-136.294h147.712v-46.797h-147.712v-60.518h147.712v-45.978h-140.39l140.39-222.413zM988.314 431.463l-358.298-367.616c-32.205-41.421-74.086-62.31-116.275-63.437v-0.41c-0.666 0-1.126 0.205-1.741 0.205s-1.075-0.205-1.69-0.205v0.41c-42.189 1.126-84.122 22.016-116.326 63.437l-358.298 367.616c-66.202 85.197-32 154.266 75.418 154.266h42.496v386.048c0 28.314 22.886 51.2 51.2 51.2h614.4c28.314 0 51.2-22.886 51.2-51.2v-386.048h42.496c107.418-0.051 141.619-69.069 75.418-154.266zM920.986 544.359h-101.786v394.803c0 22.63-19.712 40.96-43.878 40.96h-526.643c-24.32 0-43.878-18.278-43.878-40.96l-0.614-394.803h-101.171c-59.494-8.806-76.339-56.013 6.093-130.406l306.278-308.634c26.624-34.816 61.491-52.326 96.614-52.941 35.123 0.614 69.888 18.125 96.614 52.89l306.278 308.634c82.432 74.445 65.587 121.651 6.093 130.458z"></path>
</svg>
