<!-- Generated by IcoMoon.io -->
<svg version="1.1" xmlns="http://www.w3.org/2000/svg" width="1024" height="1024" viewBox="0 0 1024 1024">
<title></title>
<g id="icomoon-ignore">
</g>
<path d="M1024 325.838v-279.296c0-25.702-20.838-46.541-46.541-46.541h-279.245c-25.754 0-46.541 20.838-46.541 46.541v116.378c-227.379 0-418.406 156.262-472.73 366.899l-48.384-8.499c-8.704-1.485-17.51 1.997-22.733 9.062s-6.042 16.538-2.048 24.422l50.432 99.533c-88.474 14.387-156.211 91.085-156.211 183.501 0 102.656 83.507 186.163 186.214 186.163 94.771 0 173.056-71.219 184.576-162.918h164.506v46.541c0 8.806 4.966 16.845 12.851 20.838 7.885 3.942 17.306 3.072 24.422-2.202l81.357-61.030c13.261 89.651 90.573 158.771 183.859 158.771 102.707 0 186.214-83.507 186.214-186.163 0-94.771-71.219-173.056-162.97-184.576v-164.506h46.592c8.755 0 16.845-4.966 20.787-12.851s3.123-17.306-2.202-24.371l-59.392-79.104h110.49c25.856-0.051 46.694-20.89 46.694-46.592zM186.214 930.919c-51.354 0-93.082-41.728-93.082-93.030s41.779-93.082 93.082-93.082 93.082 41.779 93.082 93.082-41.779 93.030-93.082 93.030zM930.97 837.838c0 51.302-41.779 93.030-93.082 93.030s-93.030-41.728-93.030-93.030 41.728-93.082 93.030-93.082 93.082 41.779 93.082 93.082zM747.213 475.854c3.942 7.885 11.981 12.851 20.787 12.851h46.541v164.506c-82.637 10.394-148.48 75.11-160.614 157.184l-81.408-61.082c-7.014-5.274-16.486-6.093-24.371-2.202-7.885 3.994-12.851 11.981-12.851 20.838v46.541h-164.506c-10.547-84.122-77.414-150.938-161.638-161.331 0.051-0.512 0.307-0.973 0.307-1.536 0-0.102 0-0.154 0-0.256l70.451-65.946c6.451-5.99 8.909-15.155 6.4-23.603-2.56-8.499-9.574-14.797-18.278-16.282l-43.213-7.629c50.381-188.774 222.362-328.448 426.803-328.448v116.378c0 25.702 20.838 46.541 46.541 46.541h110.541l-59.341 79.155c-5.274 7.014-6.144 16.435-2.15 24.32zM930.97 279.246h-186.214v-186.163h186.214v186.163z"></path>
</svg>
